%TF.GenerationSoftware,KiCad,Pcbnew,(5.1.6)-1*%
%TF.CreationDate,2020-09-28T21:59:18+02:00*%
%TF.ProjectId,BMP-Arduino,424d502d-4172-4647-9569-6e6f2e6b6963,0.1*%
%TF.SameCoordinates,Original*%
%TF.FileFunction,Paste,Top*%
%TF.FilePolarity,Positive*%
%FSLAX46Y46*%
G04 Gerber Fmt 4.6, Leading zero omitted, Abs format (unit mm)*
G04 Created by KiCad (PCBNEW (5.1.6)-1) date 2020-09-28 21:59:18*
%MOMM*%
%LPD*%
G01*
G04 APERTURE LIST*
%ADD10R,2.400000X2.000000*%
%ADD11R,1.450000X0.600000*%
%ADD12R,1.450000X0.300000*%
%ADD13R,1.500000X2.000000*%
%ADD14R,3.800000X2.000000*%
G04 APERTURE END LIST*
%TO.C,R9*%
G36*
G01*
X133685000Y-98991250D02*
X133685000Y-98478750D01*
G75*
G02*
X133903750Y-98260000I218750J0D01*
G01*
X134341250Y-98260000D01*
G75*
G02*
X134560000Y-98478750I0J-218750D01*
G01*
X134560000Y-98991250D01*
G75*
G02*
X134341250Y-99210000I-218750J0D01*
G01*
X133903750Y-99210000D01*
G75*
G02*
X133685000Y-98991250I0J218750D01*
G01*
G37*
G36*
G01*
X132110000Y-98991250D02*
X132110000Y-98478750D01*
G75*
G02*
X132328750Y-98260000I218750J0D01*
G01*
X132766250Y-98260000D01*
G75*
G02*
X132985000Y-98478750I0J-218750D01*
G01*
X132985000Y-98991250D01*
G75*
G02*
X132766250Y-99210000I-218750J0D01*
G01*
X132328750Y-99210000D01*
G75*
G02*
X132110000Y-98991250I0J218750D01*
G01*
G37*
%TD*%
%TO.C,R8*%
G36*
G01*
X133685000Y-100741250D02*
X133685000Y-100228750D01*
G75*
G02*
X133903750Y-100010000I218750J0D01*
G01*
X134341250Y-100010000D01*
G75*
G02*
X134560000Y-100228750I0J-218750D01*
G01*
X134560000Y-100741250D01*
G75*
G02*
X134341250Y-100960000I-218750J0D01*
G01*
X133903750Y-100960000D01*
G75*
G02*
X133685000Y-100741250I0J218750D01*
G01*
G37*
G36*
G01*
X132110000Y-100741250D02*
X132110000Y-100228750D01*
G75*
G02*
X132328750Y-100010000I218750J0D01*
G01*
X132766250Y-100010000D01*
G75*
G02*
X132985000Y-100228750I0J-218750D01*
G01*
X132985000Y-100741250D01*
G75*
G02*
X132766250Y-100960000I-218750J0D01*
G01*
X132328750Y-100960000D01*
G75*
G02*
X132110000Y-100741250I0J218750D01*
G01*
G37*
%TD*%
%TO.C,R7*%
G36*
G01*
X133722500Y-104491250D02*
X133722500Y-103978750D01*
G75*
G02*
X133941250Y-103760000I218750J0D01*
G01*
X134378750Y-103760000D01*
G75*
G02*
X134597500Y-103978750I0J-218750D01*
G01*
X134597500Y-104491250D01*
G75*
G02*
X134378750Y-104710000I-218750J0D01*
G01*
X133941250Y-104710000D01*
G75*
G02*
X133722500Y-104491250I0J218750D01*
G01*
G37*
G36*
G01*
X132147500Y-104491250D02*
X132147500Y-103978750D01*
G75*
G02*
X132366250Y-103760000I218750J0D01*
G01*
X132803750Y-103760000D01*
G75*
G02*
X133022500Y-103978750I0J-218750D01*
G01*
X133022500Y-104491250D01*
G75*
G02*
X132803750Y-104710000I-218750J0D01*
G01*
X132366250Y-104710000D01*
G75*
G02*
X132147500Y-104491250I0J218750D01*
G01*
G37*
%TD*%
%TO.C,R6*%
G36*
G01*
X133685000Y-106241250D02*
X133685000Y-105728750D01*
G75*
G02*
X133903750Y-105510000I218750J0D01*
G01*
X134341250Y-105510000D01*
G75*
G02*
X134560000Y-105728750I0J-218750D01*
G01*
X134560000Y-106241250D01*
G75*
G02*
X134341250Y-106460000I-218750J0D01*
G01*
X133903750Y-106460000D01*
G75*
G02*
X133685000Y-106241250I0J218750D01*
G01*
G37*
G36*
G01*
X132110000Y-106241250D02*
X132110000Y-105728750D01*
G75*
G02*
X132328750Y-105510000I218750J0D01*
G01*
X132766250Y-105510000D01*
G75*
G02*
X132985000Y-105728750I0J-218750D01*
G01*
X132985000Y-106241250D01*
G75*
G02*
X132766250Y-106460000I-218750J0D01*
G01*
X132328750Y-106460000D01*
G75*
G02*
X132110000Y-106241250I0J218750D01*
G01*
G37*
%TD*%
%TO.C,D5*%
G36*
G01*
X129785000Y-98947500D02*
X129785000Y-98522500D01*
G75*
G02*
X129997500Y-98310000I212500J0D01*
G01*
X130797500Y-98310000D01*
G75*
G02*
X131010000Y-98522500I0J-212500D01*
G01*
X131010000Y-98947500D01*
G75*
G02*
X130797500Y-99160000I-212500J0D01*
G01*
X129997500Y-99160000D01*
G75*
G02*
X129785000Y-98947500I0J212500D01*
G01*
G37*
G36*
G01*
X128160000Y-98947500D02*
X128160000Y-98522500D01*
G75*
G02*
X128372500Y-98310000I212500J0D01*
G01*
X129172500Y-98310000D01*
G75*
G02*
X129385000Y-98522500I0J-212500D01*
G01*
X129385000Y-98947500D01*
G75*
G02*
X129172500Y-99160000I-212500J0D01*
G01*
X128372500Y-99160000D01*
G75*
G02*
X128160000Y-98947500I0J212500D01*
G01*
G37*
%TD*%
%TO.C,D4*%
G36*
G01*
X129785000Y-100697500D02*
X129785000Y-100272500D01*
G75*
G02*
X129997500Y-100060000I212500J0D01*
G01*
X130797500Y-100060000D01*
G75*
G02*
X131010000Y-100272500I0J-212500D01*
G01*
X131010000Y-100697500D01*
G75*
G02*
X130797500Y-100910000I-212500J0D01*
G01*
X129997500Y-100910000D01*
G75*
G02*
X129785000Y-100697500I0J212500D01*
G01*
G37*
G36*
G01*
X128160000Y-100697500D02*
X128160000Y-100272500D01*
G75*
G02*
X128372500Y-100060000I212500J0D01*
G01*
X129172500Y-100060000D01*
G75*
G02*
X129385000Y-100272500I0J-212500D01*
G01*
X129385000Y-100697500D01*
G75*
G02*
X129172500Y-100910000I-212500J0D01*
G01*
X128372500Y-100910000D01*
G75*
G02*
X128160000Y-100697500I0J212500D01*
G01*
G37*
%TD*%
%TO.C,D3*%
G36*
G01*
X129785000Y-104447500D02*
X129785000Y-104022500D01*
G75*
G02*
X129997500Y-103810000I212500J0D01*
G01*
X130797500Y-103810000D01*
G75*
G02*
X131010000Y-104022500I0J-212500D01*
G01*
X131010000Y-104447500D01*
G75*
G02*
X130797500Y-104660000I-212500J0D01*
G01*
X129997500Y-104660000D01*
G75*
G02*
X129785000Y-104447500I0J212500D01*
G01*
G37*
G36*
G01*
X128160000Y-104447500D02*
X128160000Y-104022500D01*
G75*
G02*
X128372500Y-103810000I212500J0D01*
G01*
X129172500Y-103810000D01*
G75*
G02*
X129385000Y-104022500I0J-212500D01*
G01*
X129385000Y-104447500D01*
G75*
G02*
X129172500Y-104660000I-212500J0D01*
G01*
X128372500Y-104660000D01*
G75*
G02*
X128160000Y-104447500I0J212500D01*
G01*
G37*
%TD*%
%TO.C,D2*%
G36*
G01*
X129785000Y-106197500D02*
X129785000Y-105772500D01*
G75*
G02*
X129997500Y-105560000I212500J0D01*
G01*
X130797500Y-105560000D01*
G75*
G02*
X131010000Y-105772500I0J-212500D01*
G01*
X131010000Y-106197500D01*
G75*
G02*
X130797500Y-106410000I-212500J0D01*
G01*
X129997500Y-106410000D01*
G75*
G02*
X129785000Y-106197500I0J212500D01*
G01*
G37*
G36*
G01*
X128160000Y-106197500D02*
X128160000Y-105772500D01*
G75*
G02*
X128372500Y-105560000I212500J0D01*
G01*
X129172500Y-105560000D01*
G75*
G02*
X129385000Y-105772500I0J-212500D01*
G01*
X129385000Y-106197500D01*
G75*
G02*
X129172500Y-106410000I-212500J0D01*
G01*
X128372500Y-106410000D01*
G75*
G02*
X128160000Y-106197500I0J212500D01*
G01*
G37*
%TD*%
%TO.C,U2*%
G36*
G01*
X121985000Y-84485000D02*
X121985000Y-85810000D01*
G75*
G02*
X121910000Y-85885000I-75000J0D01*
G01*
X121760000Y-85885000D01*
G75*
G02*
X121685000Y-85810000I0J75000D01*
G01*
X121685000Y-84485000D01*
G75*
G02*
X121760000Y-84410000I75000J0D01*
G01*
X121910000Y-84410000D01*
G75*
G02*
X121985000Y-84485000I0J-75000D01*
G01*
G37*
G36*
G01*
X121485000Y-84485000D02*
X121485000Y-85810000D01*
G75*
G02*
X121410000Y-85885000I-75000J0D01*
G01*
X121260000Y-85885000D01*
G75*
G02*
X121185000Y-85810000I0J75000D01*
G01*
X121185000Y-84485000D01*
G75*
G02*
X121260000Y-84410000I75000J0D01*
G01*
X121410000Y-84410000D01*
G75*
G02*
X121485000Y-84485000I0J-75000D01*
G01*
G37*
G36*
G01*
X120985000Y-84485000D02*
X120985000Y-85810000D01*
G75*
G02*
X120910000Y-85885000I-75000J0D01*
G01*
X120760000Y-85885000D01*
G75*
G02*
X120685000Y-85810000I0J75000D01*
G01*
X120685000Y-84485000D01*
G75*
G02*
X120760000Y-84410000I75000J0D01*
G01*
X120910000Y-84410000D01*
G75*
G02*
X120985000Y-84485000I0J-75000D01*
G01*
G37*
G36*
G01*
X120485000Y-84485000D02*
X120485000Y-85810000D01*
G75*
G02*
X120410000Y-85885000I-75000J0D01*
G01*
X120260000Y-85885000D01*
G75*
G02*
X120185000Y-85810000I0J75000D01*
G01*
X120185000Y-84485000D01*
G75*
G02*
X120260000Y-84410000I75000J0D01*
G01*
X120410000Y-84410000D01*
G75*
G02*
X120485000Y-84485000I0J-75000D01*
G01*
G37*
G36*
G01*
X119985000Y-84485000D02*
X119985000Y-85810000D01*
G75*
G02*
X119910000Y-85885000I-75000J0D01*
G01*
X119760000Y-85885000D01*
G75*
G02*
X119685000Y-85810000I0J75000D01*
G01*
X119685000Y-84485000D01*
G75*
G02*
X119760000Y-84410000I75000J0D01*
G01*
X119910000Y-84410000D01*
G75*
G02*
X119985000Y-84485000I0J-75000D01*
G01*
G37*
G36*
G01*
X119485000Y-84485000D02*
X119485000Y-85810000D01*
G75*
G02*
X119410000Y-85885000I-75000J0D01*
G01*
X119260000Y-85885000D01*
G75*
G02*
X119185000Y-85810000I0J75000D01*
G01*
X119185000Y-84485000D01*
G75*
G02*
X119260000Y-84410000I75000J0D01*
G01*
X119410000Y-84410000D01*
G75*
G02*
X119485000Y-84485000I0J-75000D01*
G01*
G37*
G36*
G01*
X118985000Y-84485000D02*
X118985000Y-85810000D01*
G75*
G02*
X118910000Y-85885000I-75000J0D01*
G01*
X118760000Y-85885000D01*
G75*
G02*
X118685000Y-85810000I0J75000D01*
G01*
X118685000Y-84485000D01*
G75*
G02*
X118760000Y-84410000I75000J0D01*
G01*
X118910000Y-84410000D01*
G75*
G02*
X118985000Y-84485000I0J-75000D01*
G01*
G37*
G36*
G01*
X118485000Y-84485000D02*
X118485000Y-85810000D01*
G75*
G02*
X118410000Y-85885000I-75000J0D01*
G01*
X118260000Y-85885000D01*
G75*
G02*
X118185000Y-85810000I0J75000D01*
G01*
X118185000Y-84485000D01*
G75*
G02*
X118260000Y-84410000I75000J0D01*
G01*
X118410000Y-84410000D01*
G75*
G02*
X118485000Y-84485000I0J-75000D01*
G01*
G37*
G36*
G01*
X117985000Y-84485000D02*
X117985000Y-85810000D01*
G75*
G02*
X117910000Y-85885000I-75000J0D01*
G01*
X117760000Y-85885000D01*
G75*
G02*
X117685000Y-85810000I0J75000D01*
G01*
X117685000Y-84485000D01*
G75*
G02*
X117760000Y-84410000I75000J0D01*
G01*
X117910000Y-84410000D01*
G75*
G02*
X117985000Y-84485000I0J-75000D01*
G01*
G37*
G36*
G01*
X117485000Y-84485000D02*
X117485000Y-85810000D01*
G75*
G02*
X117410000Y-85885000I-75000J0D01*
G01*
X117260000Y-85885000D01*
G75*
G02*
X117185000Y-85810000I0J75000D01*
G01*
X117185000Y-84485000D01*
G75*
G02*
X117260000Y-84410000I75000J0D01*
G01*
X117410000Y-84410000D01*
G75*
G02*
X117485000Y-84485000I0J-75000D01*
G01*
G37*
G36*
G01*
X116985000Y-84485000D02*
X116985000Y-85810000D01*
G75*
G02*
X116910000Y-85885000I-75000J0D01*
G01*
X116760000Y-85885000D01*
G75*
G02*
X116685000Y-85810000I0J75000D01*
G01*
X116685000Y-84485000D01*
G75*
G02*
X116760000Y-84410000I75000J0D01*
G01*
X116910000Y-84410000D01*
G75*
G02*
X116985000Y-84485000I0J-75000D01*
G01*
G37*
G36*
G01*
X116485000Y-84485000D02*
X116485000Y-85810000D01*
G75*
G02*
X116410000Y-85885000I-75000J0D01*
G01*
X116260000Y-85885000D01*
G75*
G02*
X116185000Y-85810000I0J75000D01*
G01*
X116185000Y-84485000D01*
G75*
G02*
X116260000Y-84410000I75000J0D01*
G01*
X116410000Y-84410000D01*
G75*
G02*
X116485000Y-84485000I0J-75000D01*
G01*
G37*
G36*
G01*
X115660000Y-83660000D02*
X115660000Y-83810000D01*
G75*
G02*
X115585000Y-83885000I-75000J0D01*
G01*
X114260000Y-83885000D01*
G75*
G02*
X114185000Y-83810000I0J75000D01*
G01*
X114185000Y-83660000D01*
G75*
G02*
X114260000Y-83585000I75000J0D01*
G01*
X115585000Y-83585000D01*
G75*
G02*
X115660000Y-83660000I0J-75000D01*
G01*
G37*
G36*
G01*
X115660000Y-83160000D02*
X115660000Y-83310000D01*
G75*
G02*
X115585000Y-83385000I-75000J0D01*
G01*
X114260000Y-83385000D01*
G75*
G02*
X114185000Y-83310000I0J75000D01*
G01*
X114185000Y-83160000D01*
G75*
G02*
X114260000Y-83085000I75000J0D01*
G01*
X115585000Y-83085000D01*
G75*
G02*
X115660000Y-83160000I0J-75000D01*
G01*
G37*
G36*
G01*
X115660000Y-82660000D02*
X115660000Y-82810000D01*
G75*
G02*
X115585000Y-82885000I-75000J0D01*
G01*
X114260000Y-82885000D01*
G75*
G02*
X114185000Y-82810000I0J75000D01*
G01*
X114185000Y-82660000D01*
G75*
G02*
X114260000Y-82585000I75000J0D01*
G01*
X115585000Y-82585000D01*
G75*
G02*
X115660000Y-82660000I0J-75000D01*
G01*
G37*
G36*
G01*
X115660000Y-82160000D02*
X115660000Y-82310000D01*
G75*
G02*
X115585000Y-82385000I-75000J0D01*
G01*
X114260000Y-82385000D01*
G75*
G02*
X114185000Y-82310000I0J75000D01*
G01*
X114185000Y-82160000D01*
G75*
G02*
X114260000Y-82085000I75000J0D01*
G01*
X115585000Y-82085000D01*
G75*
G02*
X115660000Y-82160000I0J-75000D01*
G01*
G37*
G36*
G01*
X115660000Y-81660000D02*
X115660000Y-81810000D01*
G75*
G02*
X115585000Y-81885000I-75000J0D01*
G01*
X114260000Y-81885000D01*
G75*
G02*
X114185000Y-81810000I0J75000D01*
G01*
X114185000Y-81660000D01*
G75*
G02*
X114260000Y-81585000I75000J0D01*
G01*
X115585000Y-81585000D01*
G75*
G02*
X115660000Y-81660000I0J-75000D01*
G01*
G37*
G36*
G01*
X115660000Y-81160000D02*
X115660000Y-81310000D01*
G75*
G02*
X115585000Y-81385000I-75000J0D01*
G01*
X114260000Y-81385000D01*
G75*
G02*
X114185000Y-81310000I0J75000D01*
G01*
X114185000Y-81160000D01*
G75*
G02*
X114260000Y-81085000I75000J0D01*
G01*
X115585000Y-81085000D01*
G75*
G02*
X115660000Y-81160000I0J-75000D01*
G01*
G37*
G36*
G01*
X115660000Y-80660000D02*
X115660000Y-80810000D01*
G75*
G02*
X115585000Y-80885000I-75000J0D01*
G01*
X114260000Y-80885000D01*
G75*
G02*
X114185000Y-80810000I0J75000D01*
G01*
X114185000Y-80660000D01*
G75*
G02*
X114260000Y-80585000I75000J0D01*
G01*
X115585000Y-80585000D01*
G75*
G02*
X115660000Y-80660000I0J-75000D01*
G01*
G37*
G36*
G01*
X115660000Y-80160000D02*
X115660000Y-80310000D01*
G75*
G02*
X115585000Y-80385000I-75000J0D01*
G01*
X114260000Y-80385000D01*
G75*
G02*
X114185000Y-80310000I0J75000D01*
G01*
X114185000Y-80160000D01*
G75*
G02*
X114260000Y-80085000I75000J0D01*
G01*
X115585000Y-80085000D01*
G75*
G02*
X115660000Y-80160000I0J-75000D01*
G01*
G37*
G36*
G01*
X115660000Y-79660000D02*
X115660000Y-79810000D01*
G75*
G02*
X115585000Y-79885000I-75000J0D01*
G01*
X114260000Y-79885000D01*
G75*
G02*
X114185000Y-79810000I0J75000D01*
G01*
X114185000Y-79660000D01*
G75*
G02*
X114260000Y-79585000I75000J0D01*
G01*
X115585000Y-79585000D01*
G75*
G02*
X115660000Y-79660000I0J-75000D01*
G01*
G37*
G36*
G01*
X115660000Y-79160000D02*
X115660000Y-79310000D01*
G75*
G02*
X115585000Y-79385000I-75000J0D01*
G01*
X114260000Y-79385000D01*
G75*
G02*
X114185000Y-79310000I0J75000D01*
G01*
X114185000Y-79160000D01*
G75*
G02*
X114260000Y-79085000I75000J0D01*
G01*
X115585000Y-79085000D01*
G75*
G02*
X115660000Y-79160000I0J-75000D01*
G01*
G37*
G36*
G01*
X115660000Y-78660000D02*
X115660000Y-78810000D01*
G75*
G02*
X115585000Y-78885000I-75000J0D01*
G01*
X114260000Y-78885000D01*
G75*
G02*
X114185000Y-78810000I0J75000D01*
G01*
X114185000Y-78660000D01*
G75*
G02*
X114260000Y-78585000I75000J0D01*
G01*
X115585000Y-78585000D01*
G75*
G02*
X115660000Y-78660000I0J-75000D01*
G01*
G37*
G36*
G01*
X115660000Y-78160000D02*
X115660000Y-78310000D01*
G75*
G02*
X115585000Y-78385000I-75000J0D01*
G01*
X114260000Y-78385000D01*
G75*
G02*
X114185000Y-78310000I0J75000D01*
G01*
X114185000Y-78160000D01*
G75*
G02*
X114260000Y-78085000I75000J0D01*
G01*
X115585000Y-78085000D01*
G75*
G02*
X115660000Y-78160000I0J-75000D01*
G01*
G37*
G36*
G01*
X116485000Y-76160000D02*
X116485000Y-77485000D01*
G75*
G02*
X116410000Y-77560000I-75000J0D01*
G01*
X116260000Y-77560000D01*
G75*
G02*
X116185000Y-77485000I0J75000D01*
G01*
X116185000Y-76160000D01*
G75*
G02*
X116260000Y-76085000I75000J0D01*
G01*
X116410000Y-76085000D01*
G75*
G02*
X116485000Y-76160000I0J-75000D01*
G01*
G37*
G36*
G01*
X116985000Y-76160000D02*
X116985000Y-77485000D01*
G75*
G02*
X116910000Y-77560000I-75000J0D01*
G01*
X116760000Y-77560000D01*
G75*
G02*
X116685000Y-77485000I0J75000D01*
G01*
X116685000Y-76160000D01*
G75*
G02*
X116760000Y-76085000I75000J0D01*
G01*
X116910000Y-76085000D01*
G75*
G02*
X116985000Y-76160000I0J-75000D01*
G01*
G37*
G36*
G01*
X117485000Y-76160000D02*
X117485000Y-77485000D01*
G75*
G02*
X117410000Y-77560000I-75000J0D01*
G01*
X117260000Y-77560000D01*
G75*
G02*
X117185000Y-77485000I0J75000D01*
G01*
X117185000Y-76160000D01*
G75*
G02*
X117260000Y-76085000I75000J0D01*
G01*
X117410000Y-76085000D01*
G75*
G02*
X117485000Y-76160000I0J-75000D01*
G01*
G37*
G36*
G01*
X117985000Y-76160000D02*
X117985000Y-77485000D01*
G75*
G02*
X117910000Y-77560000I-75000J0D01*
G01*
X117760000Y-77560000D01*
G75*
G02*
X117685000Y-77485000I0J75000D01*
G01*
X117685000Y-76160000D01*
G75*
G02*
X117760000Y-76085000I75000J0D01*
G01*
X117910000Y-76085000D01*
G75*
G02*
X117985000Y-76160000I0J-75000D01*
G01*
G37*
G36*
G01*
X118485000Y-76160000D02*
X118485000Y-77485000D01*
G75*
G02*
X118410000Y-77560000I-75000J0D01*
G01*
X118260000Y-77560000D01*
G75*
G02*
X118185000Y-77485000I0J75000D01*
G01*
X118185000Y-76160000D01*
G75*
G02*
X118260000Y-76085000I75000J0D01*
G01*
X118410000Y-76085000D01*
G75*
G02*
X118485000Y-76160000I0J-75000D01*
G01*
G37*
G36*
G01*
X118985000Y-76160000D02*
X118985000Y-77485000D01*
G75*
G02*
X118910000Y-77560000I-75000J0D01*
G01*
X118760000Y-77560000D01*
G75*
G02*
X118685000Y-77485000I0J75000D01*
G01*
X118685000Y-76160000D01*
G75*
G02*
X118760000Y-76085000I75000J0D01*
G01*
X118910000Y-76085000D01*
G75*
G02*
X118985000Y-76160000I0J-75000D01*
G01*
G37*
G36*
G01*
X119485000Y-76160000D02*
X119485000Y-77485000D01*
G75*
G02*
X119410000Y-77560000I-75000J0D01*
G01*
X119260000Y-77560000D01*
G75*
G02*
X119185000Y-77485000I0J75000D01*
G01*
X119185000Y-76160000D01*
G75*
G02*
X119260000Y-76085000I75000J0D01*
G01*
X119410000Y-76085000D01*
G75*
G02*
X119485000Y-76160000I0J-75000D01*
G01*
G37*
G36*
G01*
X119985000Y-76160000D02*
X119985000Y-77485000D01*
G75*
G02*
X119910000Y-77560000I-75000J0D01*
G01*
X119760000Y-77560000D01*
G75*
G02*
X119685000Y-77485000I0J75000D01*
G01*
X119685000Y-76160000D01*
G75*
G02*
X119760000Y-76085000I75000J0D01*
G01*
X119910000Y-76085000D01*
G75*
G02*
X119985000Y-76160000I0J-75000D01*
G01*
G37*
G36*
G01*
X120485000Y-76160000D02*
X120485000Y-77485000D01*
G75*
G02*
X120410000Y-77560000I-75000J0D01*
G01*
X120260000Y-77560000D01*
G75*
G02*
X120185000Y-77485000I0J75000D01*
G01*
X120185000Y-76160000D01*
G75*
G02*
X120260000Y-76085000I75000J0D01*
G01*
X120410000Y-76085000D01*
G75*
G02*
X120485000Y-76160000I0J-75000D01*
G01*
G37*
G36*
G01*
X120985000Y-76160000D02*
X120985000Y-77485000D01*
G75*
G02*
X120910000Y-77560000I-75000J0D01*
G01*
X120760000Y-77560000D01*
G75*
G02*
X120685000Y-77485000I0J75000D01*
G01*
X120685000Y-76160000D01*
G75*
G02*
X120760000Y-76085000I75000J0D01*
G01*
X120910000Y-76085000D01*
G75*
G02*
X120985000Y-76160000I0J-75000D01*
G01*
G37*
G36*
G01*
X121485000Y-76160000D02*
X121485000Y-77485000D01*
G75*
G02*
X121410000Y-77560000I-75000J0D01*
G01*
X121260000Y-77560000D01*
G75*
G02*
X121185000Y-77485000I0J75000D01*
G01*
X121185000Y-76160000D01*
G75*
G02*
X121260000Y-76085000I75000J0D01*
G01*
X121410000Y-76085000D01*
G75*
G02*
X121485000Y-76160000I0J-75000D01*
G01*
G37*
G36*
G01*
X121985000Y-76160000D02*
X121985000Y-77485000D01*
G75*
G02*
X121910000Y-77560000I-75000J0D01*
G01*
X121760000Y-77560000D01*
G75*
G02*
X121685000Y-77485000I0J75000D01*
G01*
X121685000Y-76160000D01*
G75*
G02*
X121760000Y-76085000I75000J0D01*
G01*
X121910000Y-76085000D01*
G75*
G02*
X121985000Y-76160000I0J-75000D01*
G01*
G37*
G36*
G01*
X123985000Y-78160000D02*
X123985000Y-78310000D01*
G75*
G02*
X123910000Y-78385000I-75000J0D01*
G01*
X122585000Y-78385000D01*
G75*
G02*
X122510000Y-78310000I0J75000D01*
G01*
X122510000Y-78160000D01*
G75*
G02*
X122585000Y-78085000I75000J0D01*
G01*
X123910000Y-78085000D01*
G75*
G02*
X123985000Y-78160000I0J-75000D01*
G01*
G37*
G36*
G01*
X123985000Y-78660000D02*
X123985000Y-78810000D01*
G75*
G02*
X123910000Y-78885000I-75000J0D01*
G01*
X122585000Y-78885000D01*
G75*
G02*
X122510000Y-78810000I0J75000D01*
G01*
X122510000Y-78660000D01*
G75*
G02*
X122585000Y-78585000I75000J0D01*
G01*
X123910000Y-78585000D01*
G75*
G02*
X123985000Y-78660000I0J-75000D01*
G01*
G37*
G36*
G01*
X123985000Y-79160000D02*
X123985000Y-79310000D01*
G75*
G02*
X123910000Y-79385000I-75000J0D01*
G01*
X122585000Y-79385000D01*
G75*
G02*
X122510000Y-79310000I0J75000D01*
G01*
X122510000Y-79160000D01*
G75*
G02*
X122585000Y-79085000I75000J0D01*
G01*
X123910000Y-79085000D01*
G75*
G02*
X123985000Y-79160000I0J-75000D01*
G01*
G37*
G36*
G01*
X123985000Y-79660000D02*
X123985000Y-79810000D01*
G75*
G02*
X123910000Y-79885000I-75000J0D01*
G01*
X122585000Y-79885000D01*
G75*
G02*
X122510000Y-79810000I0J75000D01*
G01*
X122510000Y-79660000D01*
G75*
G02*
X122585000Y-79585000I75000J0D01*
G01*
X123910000Y-79585000D01*
G75*
G02*
X123985000Y-79660000I0J-75000D01*
G01*
G37*
G36*
G01*
X123985000Y-80160000D02*
X123985000Y-80310000D01*
G75*
G02*
X123910000Y-80385000I-75000J0D01*
G01*
X122585000Y-80385000D01*
G75*
G02*
X122510000Y-80310000I0J75000D01*
G01*
X122510000Y-80160000D01*
G75*
G02*
X122585000Y-80085000I75000J0D01*
G01*
X123910000Y-80085000D01*
G75*
G02*
X123985000Y-80160000I0J-75000D01*
G01*
G37*
G36*
G01*
X123985000Y-80660000D02*
X123985000Y-80810000D01*
G75*
G02*
X123910000Y-80885000I-75000J0D01*
G01*
X122585000Y-80885000D01*
G75*
G02*
X122510000Y-80810000I0J75000D01*
G01*
X122510000Y-80660000D01*
G75*
G02*
X122585000Y-80585000I75000J0D01*
G01*
X123910000Y-80585000D01*
G75*
G02*
X123985000Y-80660000I0J-75000D01*
G01*
G37*
G36*
G01*
X123985000Y-81160000D02*
X123985000Y-81310000D01*
G75*
G02*
X123910000Y-81385000I-75000J0D01*
G01*
X122585000Y-81385000D01*
G75*
G02*
X122510000Y-81310000I0J75000D01*
G01*
X122510000Y-81160000D01*
G75*
G02*
X122585000Y-81085000I75000J0D01*
G01*
X123910000Y-81085000D01*
G75*
G02*
X123985000Y-81160000I0J-75000D01*
G01*
G37*
G36*
G01*
X123985000Y-81660000D02*
X123985000Y-81810000D01*
G75*
G02*
X123910000Y-81885000I-75000J0D01*
G01*
X122585000Y-81885000D01*
G75*
G02*
X122510000Y-81810000I0J75000D01*
G01*
X122510000Y-81660000D01*
G75*
G02*
X122585000Y-81585000I75000J0D01*
G01*
X123910000Y-81585000D01*
G75*
G02*
X123985000Y-81660000I0J-75000D01*
G01*
G37*
G36*
G01*
X123985000Y-82160000D02*
X123985000Y-82310000D01*
G75*
G02*
X123910000Y-82385000I-75000J0D01*
G01*
X122585000Y-82385000D01*
G75*
G02*
X122510000Y-82310000I0J75000D01*
G01*
X122510000Y-82160000D01*
G75*
G02*
X122585000Y-82085000I75000J0D01*
G01*
X123910000Y-82085000D01*
G75*
G02*
X123985000Y-82160000I0J-75000D01*
G01*
G37*
G36*
G01*
X123985000Y-82660000D02*
X123985000Y-82810000D01*
G75*
G02*
X123910000Y-82885000I-75000J0D01*
G01*
X122585000Y-82885000D01*
G75*
G02*
X122510000Y-82810000I0J75000D01*
G01*
X122510000Y-82660000D01*
G75*
G02*
X122585000Y-82585000I75000J0D01*
G01*
X123910000Y-82585000D01*
G75*
G02*
X123985000Y-82660000I0J-75000D01*
G01*
G37*
G36*
G01*
X123985000Y-83160000D02*
X123985000Y-83310000D01*
G75*
G02*
X123910000Y-83385000I-75000J0D01*
G01*
X122585000Y-83385000D01*
G75*
G02*
X122510000Y-83310000I0J75000D01*
G01*
X122510000Y-83160000D01*
G75*
G02*
X122585000Y-83085000I75000J0D01*
G01*
X123910000Y-83085000D01*
G75*
G02*
X123985000Y-83160000I0J-75000D01*
G01*
G37*
G36*
G01*
X123985000Y-83660000D02*
X123985000Y-83810000D01*
G75*
G02*
X123910000Y-83885000I-75000J0D01*
G01*
X122585000Y-83885000D01*
G75*
G02*
X122510000Y-83810000I0J75000D01*
G01*
X122510000Y-83660000D01*
G75*
G02*
X122585000Y-83585000I75000J0D01*
G01*
X123910000Y-83585000D01*
G75*
G02*
X123985000Y-83660000I0J-75000D01*
G01*
G37*
%TD*%
%TO.C,R13*%
G36*
G01*
X124078750Y-72835000D02*
X124591250Y-72835000D01*
G75*
G02*
X124810000Y-73053750I0J-218750D01*
G01*
X124810000Y-73491250D01*
G75*
G02*
X124591250Y-73710000I-218750J0D01*
G01*
X124078750Y-73710000D01*
G75*
G02*
X123860000Y-73491250I0J218750D01*
G01*
X123860000Y-73053750D01*
G75*
G02*
X124078750Y-72835000I218750J0D01*
G01*
G37*
G36*
G01*
X124078750Y-71260000D02*
X124591250Y-71260000D01*
G75*
G02*
X124810000Y-71478750I0J-218750D01*
G01*
X124810000Y-71916250D01*
G75*
G02*
X124591250Y-72135000I-218750J0D01*
G01*
X124078750Y-72135000D01*
G75*
G02*
X123860000Y-71916250I0J218750D01*
G01*
X123860000Y-71478750D01*
G75*
G02*
X124078750Y-71260000I218750J0D01*
G01*
G37*
%TD*%
%TO.C,C10*%
G36*
G01*
X115360000Y-73491250D02*
X115360000Y-72978750D01*
G75*
G02*
X115578750Y-72760000I218750J0D01*
G01*
X116016250Y-72760000D01*
G75*
G02*
X116235000Y-72978750I0J-218750D01*
G01*
X116235000Y-73491250D01*
G75*
G02*
X116016250Y-73710000I-218750J0D01*
G01*
X115578750Y-73710000D01*
G75*
G02*
X115360000Y-73491250I0J218750D01*
G01*
G37*
G36*
G01*
X116935000Y-73491250D02*
X116935000Y-72978750D01*
G75*
G02*
X117153750Y-72760000I218750J0D01*
G01*
X117591250Y-72760000D01*
G75*
G02*
X117810000Y-72978750I0J-218750D01*
G01*
X117810000Y-73491250D01*
G75*
G02*
X117591250Y-73710000I-218750J0D01*
G01*
X117153750Y-73710000D01*
G75*
G02*
X116935000Y-73491250I0J218750D01*
G01*
G37*
%TD*%
%TO.C,C8*%
G36*
G01*
X122810000Y-86978750D02*
X122810000Y-87491250D01*
G75*
G02*
X122591250Y-87710000I-218750J0D01*
G01*
X122153750Y-87710000D01*
G75*
G02*
X121935000Y-87491250I0J218750D01*
G01*
X121935000Y-86978750D01*
G75*
G02*
X122153750Y-86760000I218750J0D01*
G01*
X122591250Y-86760000D01*
G75*
G02*
X122810000Y-86978750I0J-218750D01*
G01*
G37*
G36*
G01*
X121235000Y-86978750D02*
X121235000Y-87491250D01*
G75*
G02*
X121016250Y-87710000I-218750J0D01*
G01*
X120578750Y-87710000D01*
G75*
G02*
X120360000Y-87491250I0J218750D01*
G01*
X120360000Y-86978750D01*
G75*
G02*
X120578750Y-86760000I218750J0D01*
G01*
X121016250Y-86760000D01*
G75*
G02*
X121235000Y-86978750I0J-218750D01*
G01*
G37*
%TD*%
%TO.C,C9*%
G36*
G01*
X125078750Y-78760000D02*
X125591250Y-78760000D01*
G75*
G02*
X125810000Y-78978750I0J-218750D01*
G01*
X125810000Y-79416250D01*
G75*
G02*
X125591250Y-79635000I-218750J0D01*
G01*
X125078750Y-79635000D01*
G75*
G02*
X124860000Y-79416250I0J218750D01*
G01*
X124860000Y-78978750D01*
G75*
G02*
X125078750Y-78760000I218750J0D01*
G01*
G37*
G36*
G01*
X125078750Y-80335000D02*
X125591250Y-80335000D01*
G75*
G02*
X125810000Y-80553750I0J-218750D01*
G01*
X125810000Y-80991250D01*
G75*
G02*
X125591250Y-81210000I-218750J0D01*
G01*
X125078750Y-81210000D01*
G75*
G02*
X124860000Y-80991250I0J218750D01*
G01*
X124860000Y-80553750D01*
G75*
G02*
X125078750Y-80335000I218750J0D01*
G01*
G37*
%TD*%
%TO.C,C4*%
G36*
G01*
X129841250Y-87960000D02*
X129328750Y-87960000D01*
G75*
G02*
X129110000Y-87741250I0J218750D01*
G01*
X129110000Y-87303750D01*
G75*
G02*
X129328750Y-87085000I218750J0D01*
G01*
X129841250Y-87085000D01*
G75*
G02*
X130060000Y-87303750I0J-218750D01*
G01*
X130060000Y-87741250D01*
G75*
G02*
X129841250Y-87960000I-218750J0D01*
G01*
G37*
G36*
G01*
X129841250Y-86385000D02*
X129328750Y-86385000D01*
G75*
G02*
X129110000Y-86166250I0J218750D01*
G01*
X129110000Y-85728750D01*
G75*
G02*
X129328750Y-85510000I218750J0D01*
G01*
X129841250Y-85510000D01*
G75*
G02*
X130060000Y-85728750I0J-218750D01*
G01*
X130060000Y-86166250D01*
G75*
G02*
X129841250Y-86385000I-218750J0D01*
G01*
G37*
%TD*%
%TO.C,C7*%
G36*
G01*
X115360000Y-74991250D02*
X115360000Y-74478750D01*
G75*
G02*
X115578750Y-74260000I218750J0D01*
G01*
X116016250Y-74260000D01*
G75*
G02*
X116235000Y-74478750I0J-218750D01*
G01*
X116235000Y-74991250D01*
G75*
G02*
X116016250Y-75210000I-218750J0D01*
G01*
X115578750Y-75210000D01*
G75*
G02*
X115360000Y-74991250I0J218750D01*
G01*
G37*
G36*
G01*
X116935000Y-74991250D02*
X116935000Y-74478750D01*
G75*
G02*
X117153750Y-74260000I218750J0D01*
G01*
X117591250Y-74260000D01*
G75*
G02*
X117810000Y-74478750I0J-218750D01*
G01*
X117810000Y-74991250D01*
G75*
G02*
X117591250Y-75210000I-218750J0D01*
G01*
X117153750Y-75210000D01*
G75*
G02*
X116935000Y-74991250I0J218750D01*
G01*
G37*
%TD*%
%TO.C,C5*%
G36*
G01*
X129328750Y-82010000D02*
X129841250Y-82010000D01*
G75*
G02*
X130060000Y-82228750I0J-218750D01*
G01*
X130060000Y-82666250D01*
G75*
G02*
X129841250Y-82885000I-218750J0D01*
G01*
X129328750Y-82885000D01*
G75*
G02*
X129110000Y-82666250I0J218750D01*
G01*
X129110000Y-82228750D01*
G75*
G02*
X129328750Y-82010000I218750J0D01*
G01*
G37*
G36*
G01*
X129328750Y-83585000D02*
X129841250Y-83585000D01*
G75*
G02*
X130060000Y-83803750I0J-218750D01*
G01*
X130060000Y-84241250D01*
G75*
G02*
X129841250Y-84460000I-218750J0D01*
G01*
X129328750Y-84460000D01*
G75*
G02*
X129110000Y-84241250I0J218750D01*
G01*
X129110000Y-83803750D01*
G75*
G02*
X129328750Y-83585000I218750J0D01*
G01*
G37*
%TD*%
%TO.C,C3*%
G36*
G01*
X126091250Y-72135000D02*
X125578750Y-72135000D01*
G75*
G02*
X125360000Y-71916250I0J218750D01*
G01*
X125360000Y-71478750D01*
G75*
G02*
X125578750Y-71260000I218750J0D01*
G01*
X126091250Y-71260000D01*
G75*
G02*
X126310000Y-71478750I0J-218750D01*
G01*
X126310000Y-71916250D01*
G75*
G02*
X126091250Y-72135000I-218750J0D01*
G01*
G37*
G36*
G01*
X126091250Y-73710000D02*
X125578750Y-73710000D01*
G75*
G02*
X125360000Y-73491250I0J218750D01*
G01*
X125360000Y-73053750D01*
G75*
G02*
X125578750Y-72835000I218750J0D01*
G01*
X126091250Y-72835000D01*
G75*
G02*
X126310000Y-73053750I0J-218750D01*
G01*
X126310000Y-73491250D01*
G75*
G02*
X126091250Y-73710000I-218750J0D01*
G01*
G37*
%TD*%
%TO.C,R16*%
G36*
G01*
X118841250Y-91497500D02*
X118328750Y-91497500D01*
G75*
G02*
X118110000Y-91278750I0J218750D01*
G01*
X118110000Y-90841250D01*
G75*
G02*
X118328750Y-90622500I218750J0D01*
G01*
X118841250Y-90622500D01*
G75*
G02*
X119060000Y-90841250I0J-218750D01*
G01*
X119060000Y-91278750D01*
G75*
G02*
X118841250Y-91497500I-218750J0D01*
G01*
G37*
G36*
G01*
X118841250Y-89922500D02*
X118328750Y-89922500D01*
G75*
G02*
X118110000Y-89703750I0J218750D01*
G01*
X118110000Y-89266250D01*
G75*
G02*
X118328750Y-89047500I218750J0D01*
G01*
X118841250Y-89047500D01*
G75*
G02*
X119060000Y-89266250I0J-218750D01*
G01*
X119060000Y-89703750D01*
G75*
G02*
X118841250Y-89922500I-218750J0D01*
G01*
G37*
%TD*%
D10*
%TO.C,Y1*%
X126585000Y-86835000D03*
X126585000Y-83135000D03*
%TD*%
%TO.C,C6*%
G36*
G01*
X113091250Y-85460000D02*
X112578750Y-85460000D01*
G75*
G02*
X112360000Y-85241250I0J218750D01*
G01*
X112360000Y-84803750D01*
G75*
G02*
X112578750Y-84585000I218750J0D01*
G01*
X113091250Y-84585000D01*
G75*
G02*
X113310000Y-84803750I0J-218750D01*
G01*
X113310000Y-85241250D01*
G75*
G02*
X113091250Y-85460000I-218750J0D01*
G01*
G37*
G36*
G01*
X113091250Y-83885000D02*
X112578750Y-83885000D01*
G75*
G02*
X112360000Y-83666250I0J218750D01*
G01*
X112360000Y-83228750D01*
G75*
G02*
X112578750Y-83010000I218750J0D01*
G01*
X113091250Y-83010000D01*
G75*
G02*
X113310000Y-83228750I0J-218750D01*
G01*
X113310000Y-83666250D01*
G75*
G02*
X113091250Y-83885000I-218750J0D01*
G01*
G37*
%TD*%
%TO.C,FB1*%
G36*
G01*
X95635000Y-101278750D02*
X95635000Y-102191250D01*
G75*
G02*
X95391250Y-102435000I-243750J0D01*
G01*
X94903750Y-102435000D01*
G75*
G02*
X94660000Y-102191250I0J243750D01*
G01*
X94660000Y-101278750D01*
G75*
G02*
X94903750Y-101035000I243750J0D01*
G01*
X95391250Y-101035000D01*
G75*
G02*
X95635000Y-101278750I0J-243750D01*
G01*
G37*
G36*
G01*
X97510000Y-101278750D02*
X97510000Y-102191250D01*
G75*
G02*
X97266250Y-102435000I-243750J0D01*
G01*
X96778750Y-102435000D01*
G75*
G02*
X96535000Y-102191250I0J243750D01*
G01*
X96535000Y-101278750D01*
G75*
G02*
X96778750Y-101035000I243750J0D01*
G01*
X97266250Y-101035000D01*
G75*
G02*
X97510000Y-101278750I0J-243750D01*
G01*
G37*
%TD*%
%TO.C,U4*%
G36*
G01*
X168185000Y-78310000D02*
X168185000Y-78160000D01*
G75*
G02*
X168260000Y-78085000I75000J0D01*
G01*
X169585000Y-78085000D01*
G75*
G02*
X169660000Y-78160000I0J-75000D01*
G01*
X169660000Y-78310000D01*
G75*
G02*
X169585000Y-78385000I-75000J0D01*
G01*
X168260000Y-78385000D01*
G75*
G02*
X168185000Y-78310000I0J75000D01*
G01*
G37*
G36*
G01*
X168185000Y-78810000D02*
X168185000Y-78660000D01*
G75*
G02*
X168260000Y-78585000I75000J0D01*
G01*
X169585000Y-78585000D01*
G75*
G02*
X169660000Y-78660000I0J-75000D01*
G01*
X169660000Y-78810000D01*
G75*
G02*
X169585000Y-78885000I-75000J0D01*
G01*
X168260000Y-78885000D01*
G75*
G02*
X168185000Y-78810000I0J75000D01*
G01*
G37*
G36*
G01*
X168185000Y-79310000D02*
X168185000Y-79160000D01*
G75*
G02*
X168260000Y-79085000I75000J0D01*
G01*
X169585000Y-79085000D01*
G75*
G02*
X169660000Y-79160000I0J-75000D01*
G01*
X169660000Y-79310000D01*
G75*
G02*
X169585000Y-79385000I-75000J0D01*
G01*
X168260000Y-79385000D01*
G75*
G02*
X168185000Y-79310000I0J75000D01*
G01*
G37*
G36*
G01*
X168185000Y-79810000D02*
X168185000Y-79660000D01*
G75*
G02*
X168260000Y-79585000I75000J0D01*
G01*
X169585000Y-79585000D01*
G75*
G02*
X169660000Y-79660000I0J-75000D01*
G01*
X169660000Y-79810000D01*
G75*
G02*
X169585000Y-79885000I-75000J0D01*
G01*
X168260000Y-79885000D01*
G75*
G02*
X168185000Y-79810000I0J75000D01*
G01*
G37*
G36*
G01*
X168185000Y-80310000D02*
X168185000Y-80160000D01*
G75*
G02*
X168260000Y-80085000I75000J0D01*
G01*
X169585000Y-80085000D01*
G75*
G02*
X169660000Y-80160000I0J-75000D01*
G01*
X169660000Y-80310000D01*
G75*
G02*
X169585000Y-80385000I-75000J0D01*
G01*
X168260000Y-80385000D01*
G75*
G02*
X168185000Y-80310000I0J75000D01*
G01*
G37*
G36*
G01*
X168185000Y-80810000D02*
X168185000Y-80660000D01*
G75*
G02*
X168260000Y-80585000I75000J0D01*
G01*
X169585000Y-80585000D01*
G75*
G02*
X169660000Y-80660000I0J-75000D01*
G01*
X169660000Y-80810000D01*
G75*
G02*
X169585000Y-80885000I-75000J0D01*
G01*
X168260000Y-80885000D01*
G75*
G02*
X168185000Y-80810000I0J75000D01*
G01*
G37*
G36*
G01*
X168185000Y-81310000D02*
X168185000Y-81160000D01*
G75*
G02*
X168260000Y-81085000I75000J0D01*
G01*
X169585000Y-81085000D01*
G75*
G02*
X169660000Y-81160000I0J-75000D01*
G01*
X169660000Y-81310000D01*
G75*
G02*
X169585000Y-81385000I-75000J0D01*
G01*
X168260000Y-81385000D01*
G75*
G02*
X168185000Y-81310000I0J75000D01*
G01*
G37*
G36*
G01*
X168185000Y-81810000D02*
X168185000Y-81660000D01*
G75*
G02*
X168260000Y-81585000I75000J0D01*
G01*
X169585000Y-81585000D01*
G75*
G02*
X169660000Y-81660000I0J-75000D01*
G01*
X169660000Y-81810000D01*
G75*
G02*
X169585000Y-81885000I-75000J0D01*
G01*
X168260000Y-81885000D01*
G75*
G02*
X168185000Y-81810000I0J75000D01*
G01*
G37*
G36*
G01*
X168185000Y-82310000D02*
X168185000Y-82160000D01*
G75*
G02*
X168260000Y-82085000I75000J0D01*
G01*
X169585000Y-82085000D01*
G75*
G02*
X169660000Y-82160000I0J-75000D01*
G01*
X169660000Y-82310000D01*
G75*
G02*
X169585000Y-82385000I-75000J0D01*
G01*
X168260000Y-82385000D01*
G75*
G02*
X168185000Y-82310000I0J75000D01*
G01*
G37*
G36*
G01*
X168185000Y-82810000D02*
X168185000Y-82660000D01*
G75*
G02*
X168260000Y-82585000I75000J0D01*
G01*
X169585000Y-82585000D01*
G75*
G02*
X169660000Y-82660000I0J-75000D01*
G01*
X169660000Y-82810000D01*
G75*
G02*
X169585000Y-82885000I-75000J0D01*
G01*
X168260000Y-82885000D01*
G75*
G02*
X168185000Y-82810000I0J75000D01*
G01*
G37*
G36*
G01*
X168185000Y-83310000D02*
X168185000Y-83160000D01*
G75*
G02*
X168260000Y-83085000I75000J0D01*
G01*
X169585000Y-83085000D01*
G75*
G02*
X169660000Y-83160000I0J-75000D01*
G01*
X169660000Y-83310000D01*
G75*
G02*
X169585000Y-83385000I-75000J0D01*
G01*
X168260000Y-83385000D01*
G75*
G02*
X168185000Y-83310000I0J75000D01*
G01*
G37*
G36*
G01*
X168185000Y-83810000D02*
X168185000Y-83660000D01*
G75*
G02*
X168260000Y-83585000I75000J0D01*
G01*
X169585000Y-83585000D01*
G75*
G02*
X169660000Y-83660000I0J-75000D01*
G01*
X169660000Y-83810000D01*
G75*
G02*
X169585000Y-83885000I-75000J0D01*
G01*
X168260000Y-83885000D01*
G75*
G02*
X168185000Y-83810000I0J75000D01*
G01*
G37*
G36*
G01*
X170185000Y-85810000D02*
X170185000Y-84485000D01*
G75*
G02*
X170260000Y-84410000I75000J0D01*
G01*
X170410000Y-84410000D01*
G75*
G02*
X170485000Y-84485000I0J-75000D01*
G01*
X170485000Y-85810000D01*
G75*
G02*
X170410000Y-85885000I-75000J0D01*
G01*
X170260000Y-85885000D01*
G75*
G02*
X170185000Y-85810000I0J75000D01*
G01*
G37*
G36*
G01*
X170685000Y-85810000D02*
X170685000Y-84485000D01*
G75*
G02*
X170760000Y-84410000I75000J0D01*
G01*
X170910000Y-84410000D01*
G75*
G02*
X170985000Y-84485000I0J-75000D01*
G01*
X170985000Y-85810000D01*
G75*
G02*
X170910000Y-85885000I-75000J0D01*
G01*
X170760000Y-85885000D01*
G75*
G02*
X170685000Y-85810000I0J75000D01*
G01*
G37*
G36*
G01*
X171185000Y-85810000D02*
X171185000Y-84485000D01*
G75*
G02*
X171260000Y-84410000I75000J0D01*
G01*
X171410000Y-84410000D01*
G75*
G02*
X171485000Y-84485000I0J-75000D01*
G01*
X171485000Y-85810000D01*
G75*
G02*
X171410000Y-85885000I-75000J0D01*
G01*
X171260000Y-85885000D01*
G75*
G02*
X171185000Y-85810000I0J75000D01*
G01*
G37*
G36*
G01*
X171685000Y-85810000D02*
X171685000Y-84485000D01*
G75*
G02*
X171760000Y-84410000I75000J0D01*
G01*
X171910000Y-84410000D01*
G75*
G02*
X171985000Y-84485000I0J-75000D01*
G01*
X171985000Y-85810000D01*
G75*
G02*
X171910000Y-85885000I-75000J0D01*
G01*
X171760000Y-85885000D01*
G75*
G02*
X171685000Y-85810000I0J75000D01*
G01*
G37*
G36*
G01*
X172185000Y-85810000D02*
X172185000Y-84485000D01*
G75*
G02*
X172260000Y-84410000I75000J0D01*
G01*
X172410000Y-84410000D01*
G75*
G02*
X172485000Y-84485000I0J-75000D01*
G01*
X172485000Y-85810000D01*
G75*
G02*
X172410000Y-85885000I-75000J0D01*
G01*
X172260000Y-85885000D01*
G75*
G02*
X172185000Y-85810000I0J75000D01*
G01*
G37*
G36*
G01*
X172685000Y-85810000D02*
X172685000Y-84485000D01*
G75*
G02*
X172760000Y-84410000I75000J0D01*
G01*
X172910000Y-84410000D01*
G75*
G02*
X172985000Y-84485000I0J-75000D01*
G01*
X172985000Y-85810000D01*
G75*
G02*
X172910000Y-85885000I-75000J0D01*
G01*
X172760000Y-85885000D01*
G75*
G02*
X172685000Y-85810000I0J75000D01*
G01*
G37*
G36*
G01*
X173185000Y-85810000D02*
X173185000Y-84485000D01*
G75*
G02*
X173260000Y-84410000I75000J0D01*
G01*
X173410000Y-84410000D01*
G75*
G02*
X173485000Y-84485000I0J-75000D01*
G01*
X173485000Y-85810000D01*
G75*
G02*
X173410000Y-85885000I-75000J0D01*
G01*
X173260000Y-85885000D01*
G75*
G02*
X173185000Y-85810000I0J75000D01*
G01*
G37*
G36*
G01*
X173685000Y-85810000D02*
X173685000Y-84485000D01*
G75*
G02*
X173760000Y-84410000I75000J0D01*
G01*
X173910000Y-84410000D01*
G75*
G02*
X173985000Y-84485000I0J-75000D01*
G01*
X173985000Y-85810000D01*
G75*
G02*
X173910000Y-85885000I-75000J0D01*
G01*
X173760000Y-85885000D01*
G75*
G02*
X173685000Y-85810000I0J75000D01*
G01*
G37*
G36*
G01*
X174185000Y-85810000D02*
X174185000Y-84485000D01*
G75*
G02*
X174260000Y-84410000I75000J0D01*
G01*
X174410000Y-84410000D01*
G75*
G02*
X174485000Y-84485000I0J-75000D01*
G01*
X174485000Y-85810000D01*
G75*
G02*
X174410000Y-85885000I-75000J0D01*
G01*
X174260000Y-85885000D01*
G75*
G02*
X174185000Y-85810000I0J75000D01*
G01*
G37*
G36*
G01*
X174685000Y-85810000D02*
X174685000Y-84485000D01*
G75*
G02*
X174760000Y-84410000I75000J0D01*
G01*
X174910000Y-84410000D01*
G75*
G02*
X174985000Y-84485000I0J-75000D01*
G01*
X174985000Y-85810000D01*
G75*
G02*
X174910000Y-85885000I-75000J0D01*
G01*
X174760000Y-85885000D01*
G75*
G02*
X174685000Y-85810000I0J75000D01*
G01*
G37*
G36*
G01*
X175185000Y-85810000D02*
X175185000Y-84485000D01*
G75*
G02*
X175260000Y-84410000I75000J0D01*
G01*
X175410000Y-84410000D01*
G75*
G02*
X175485000Y-84485000I0J-75000D01*
G01*
X175485000Y-85810000D01*
G75*
G02*
X175410000Y-85885000I-75000J0D01*
G01*
X175260000Y-85885000D01*
G75*
G02*
X175185000Y-85810000I0J75000D01*
G01*
G37*
G36*
G01*
X175685000Y-85810000D02*
X175685000Y-84485000D01*
G75*
G02*
X175760000Y-84410000I75000J0D01*
G01*
X175910000Y-84410000D01*
G75*
G02*
X175985000Y-84485000I0J-75000D01*
G01*
X175985000Y-85810000D01*
G75*
G02*
X175910000Y-85885000I-75000J0D01*
G01*
X175760000Y-85885000D01*
G75*
G02*
X175685000Y-85810000I0J75000D01*
G01*
G37*
G36*
G01*
X176510000Y-83810000D02*
X176510000Y-83660000D01*
G75*
G02*
X176585000Y-83585000I75000J0D01*
G01*
X177910000Y-83585000D01*
G75*
G02*
X177985000Y-83660000I0J-75000D01*
G01*
X177985000Y-83810000D01*
G75*
G02*
X177910000Y-83885000I-75000J0D01*
G01*
X176585000Y-83885000D01*
G75*
G02*
X176510000Y-83810000I0J75000D01*
G01*
G37*
G36*
G01*
X176510000Y-83310000D02*
X176510000Y-83160000D01*
G75*
G02*
X176585000Y-83085000I75000J0D01*
G01*
X177910000Y-83085000D01*
G75*
G02*
X177985000Y-83160000I0J-75000D01*
G01*
X177985000Y-83310000D01*
G75*
G02*
X177910000Y-83385000I-75000J0D01*
G01*
X176585000Y-83385000D01*
G75*
G02*
X176510000Y-83310000I0J75000D01*
G01*
G37*
G36*
G01*
X176510000Y-82810000D02*
X176510000Y-82660000D01*
G75*
G02*
X176585000Y-82585000I75000J0D01*
G01*
X177910000Y-82585000D01*
G75*
G02*
X177985000Y-82660000I0J-75000D01*
G01*
X177985000Y-82810000D01*
G75*
G02*
X177910000Y-82885000I-75000J0D01*
G01*
X176585000Y-82885000D01*
G75*
G02*
X176510000Y-82810000I0J75000D01*
G01*
G37*
G36*
G01*
X176510000Y-82310000D02*
X176510000Y-82160000D01*
G75*
G02*
X176585000Y-82085000I75000J0D01*
G01*
X177910000Y-82085000D01*
G75*
G02*
X177985000Y-82160000I0J-75000D01*
G01*
X177985000Y-82310000D01*
G75*
G02*
X177910000Y-82385000I-75000J0D01*
G01*
X176585000Y-82385000D01*
G75*
G02*
X176510000Y-82310000I0J75000D01*
G01*
G37*
G36*
G01*
X176510000Y-81810000D02*
X176510000Y-81660000D01*
G75*
G02*
X176585000Y-81585000I75000J0D01*
G01*
X177910000Y-81585000D01*
G75*
G02*
X177985000Y-81660000I0J-75000D01*
G01*
X177985000Y-81810000D01*
G75*
G02*
X177910000Y-81885000I-75000J0D01*
G01*
X176585000Y-81885000D01*
G75*
G02*
X176510000Y-81810000I0J75000D01*
G01*
G37*
G36*
G01*
X176510000Y-81310000D02*
X176510000Y-81160000D01*
G75*
G02*
X176585000Y-81085000I75000J0D01*
G01*
X177910000Y-81085000D01*
G75*
G02*
X177985000Y-81160000I0J-75000D01*
G01*
X177985000Y-81310000D01*
G75*
G02*
X177910000Y-81385000I-75000J0D01*
G01*
X176585000Y-81385000D01*
G75*
G02*
X176510000Y-81310000I0J75000D01*
G01*
G37*
G36*
G01*
X176510000Y-80810000D02*
X176510000Y-80660000D01*
G75*
G02*
X176585000Y-80585000I75000J0D01*
G01*
X177910000Y-80585000D01*
G75*
G02*
X177985000Y-80660000I0J-75000D01*
G01*
X177985000Y-80810000D01*
G75*
G02*
X177910000Y-80885000I-75000J0D01*
G01*
X176585000Y-80885000D01*
G75*
G02*
X176510000Y-80810000I0J75000D01*
G01*
G37*
G36*
G01*
X176510000Y-80310000D02*
X176510000Y-80160000D01*
G75*
G02*
X176585000Y-80085000I75000J0D01*
G01*
X177910000Y-80085000D01*
G75*
G02*
X177985000Y-80160000I0J-75000D01*
G01*
X177985000Y-80310000D01*
G75*
G02*
X177910000Y-80385000I-75000J0D01*
G01*
X176585000Y-80385000D01*
G75*
G02*
X176510000Y-80310000I0J75000D01*
G01*
G37*
G36*
G01*
X176510000Y-79810000D02*
X176510000Y-79660000D01*
G75*
G02*
X176585000Y-79585000I75000J0D01*
G01*
X177910000Y-79585000D01*
G75*
G02*
X177985000Y-79660000I0J-75000D01*
G01*
X177985000Y-79810000D01*
G75*
G02*
X177910000Y-79885000I-75000J0D01*
G01*
X176585000Y-79885000D01*
G75*
G02*
X176510000Y-79810000I0J75000D01*
G01*
G37*
G36*
G01*
X176510000Y-79310000D02*
X176510000Y-79160000D01*
G75*
G02*
X176585000Y-79085000I75000J0D01*
G01*
X177910000Y-79085000D01*
G75*
G02*
X177985000Y-79160000I0J-75000D01*
G01*
X177985000Y-79310000D01*
G75*
G02*
X177910000Y-79385000I-75000J0D01*
G01*
X176585000Y-79385000D01*
G75*
G02*
X176510000Y-79310000I0J75000D01*
G01*
G37*
G36*
G01*
X176510000Y-78810000D02*
X176510000Y-78660000D01*
G75*
G02*
X176585000Y-78585000I75000J0D01*
G01*
X177910000Y-78585000D01*
G75*
G02*
X177985000Y-78660000I0J-75000D01*
G01*
X177985000Y-78810000D01*
G75*
G02*
X177910000Y-78885000I-75000J0D01*
G01*
X176585000Y-78885000D01*
G75*
G02*
X176510000Y-78810000I0J75000D01*
G01*
G37*
G36*
G01*
X176510000Y-78310000D02*
X176510000Y-78160000D01*
G75*
G02*
X176585000Y-78085000I75000J0D01*
G01*
X177910000Y-78085000D01*
G75*
G02*
X177985000Y-78160000I0J-75000D01*
G01*
X177985000Y-78310000D01*
G75*
G02*
X177910000Y-78385000I-75000J0D01*
G01*
X176585000Y-78385000D01*
G75*
G02*
X176510000Y-78310000I0J75000D01*
G01*
G37*
G36*
G01*
X175685000Y-77485000D02*
X175685000Y-76160000D01*
G75*
G02*
X175760000Y-76085000I75000J0D01*
G01*
X175910000Y-76085000D01*
G75*
G02*
X175985000Y-76160000I0J-75000D01*
G01*
X175985000Y-77485000D01*
G75*
G02*
X175910000Y-77560000I-75000J0D01*
G01*
X175760000Y-77560000D01*
G75*
G02*
X175685000Y-77485000I0J75000D01*
G01*
G37*
G36*
G01*
X175185000Y-77485000D02*
X175185000Y-76160000D01*
G75*
G02*
X175260000Y-76085000I75000J0D01*
G01*
X175410000Y-76085000D01*
G75*
G02*
X175485000Y-76160000I0J-75000D01*
G01*
X175485000Y-77485000D01*
G75*
G02*
X175410000Y-77560000I-75000J0D01*
G01*
X175260000Y-77560000D01*
G75*
G02*
X175185000Y-77485000I0J75000D01*
G01*
G37*
G36*
G01*
X174685000Y-77485000D02*
X174685000Y-76160000D01*
G75*
G02*
X174760000Y-76085000I75000J0D01*
G01*
X174910000Y-76085000D01*
G75*
G02*
X174985000Y-76160000I0J-75000D01*
G01*
X174985000Y-77485000D01*
G75*
G02*
X174910000Y-77560000I-75000J0D01*
G01*
X174760000Y-77560000D01*
G75*
G02*
X174685000Y-77485000I0J75000D01*
G01*
G37*
G36*
G01*
X174185000Y-77485000D02*
X174185000Y-76160000D01*
G75*
G02*
X174260000Y-76085000I75000J0D01*
G01*
X174410000Y-76085000D01*
G75*
G02*
X174485000Y-76160000I0J-75000D01*
G01*
X174485000Y-77485000D01*
G75*
G02*
X174410000Y-77560000I-75000J0D01*
G01*
X174260000Y-77560000D01*
G75*
G02*
X174185000Y-77485000I0J75000D01*
G01*
G37*
G36*
G01*
X173685000Y-77485000D02*
X173685000Y-76160000D01*
G75*
G02*
X173760000Y-76085000I75000J0D01*
G01*
X173910000Y-76085000D01*
G75*
G02*
X173985000Y-76160000I0J-75000D01*
G01*
X173985000Y-77485000D01*
G75*
G02*
X173910000Y-77560000I-75000J0D01*
G01*
X173760000Y-77560000D01*
G75*
G02*
X173685000Y-77485000I0J75000D01*
G01*
G37*
G36*
G01*
X173185000Y-77485000D02*
X173185000Y-76160000D01*
G75*
G02*
X173260000Y-76085000I75000J0D01*
G01*
X173410000Y-76085000D01*
G75*
G02*
X173485000Y-76160000I0J-75000D01*
G01*
X173485000Y-77485000D01*
G75*
G02*
X173410000Y-77560000I-75000J0D01*
G01*
X173260000Y-77560000D01*
G75*
G02*
X173185000Y-77485000I0J75000D01*
G01*
G37*
G36*
G01*
X172685000Y-77485000D02*
X172685000Y-76160000D01*
G75*
G02*
X172760000Y-76085000I75000J0D01*
G01*
X172910000Y-76085000D01*
G75*
G02*
X172985000Y-76160000I0J-75000D01*
G01*
X172985000Y-77485000D01*
G75*
G02*
X172910000Y-77560000I-75000J0D01*
G01*
X172760000Y-77560000D01*
G75*
G02*
X172685000Y-77485000I0J75000D01*
G01*
G37*
G36*
G01*
X172185000Y-77485000D02*
X172185000Y-76160000D01*
G75*
G02*
X172260000Y-76085000I75000J0D01*
G01*
X172410000Y-76085000D01*
G75*
G02*
X172485000Y-76160000I0J-75000D01*
G01*
X172485000Y-77485000D01*
G75*
G02*
X172410000Y-77560000I-75000J0D01*
G01*
X172260000Y-77560000D01*
G75*
G02*
X172185000Y-77485000I0J75000D01*
G01*
G37*
G36*
G01*
X171685000Y-77485000D02*
X171685000Y-76160000D01*
G75*
G02*
X171760000Y-76085000I75000J0D01*
G01*
X171910000Y-76085000D01*
G75*
G02*
X171985000Y-76160000I0J-75000D01*
G01*
X171985000Y-77485000D01*
G75*
G02*
X171910000Y-77560000I-75000J0D01*
G01*
X171760000Y-77560000D01*
G75*
G02*
X171685000Y-77485000I0J75000D01*
G01*
G37*
G36*
G01*
X171185000Y-77485000D02*
X171185000Y-76160000D01*
G75*
G02*
X171260000Y-76085000I75000J0D01*
G01*
X171410000Y-76085000D01*
G75*
G02*
X171485000Y-76160000I0J-75000D01*
G01*
X171485000Y-77485000D01*
G75*
G02*
X171410000Y-77560000I-75000J0D01*
G01*
X171260000Y-77560000D01*
G75*
G02*
X171185000Y-77485000I0J75000D01*
G01*
G37*
G36*
G01*
X170685000Y-77485000D02*
X170685000Y-76160000D01*
G75*
G02*
X170760000Y-76085000I75000J0D01*
G01*
X170910000Y-76085000D01*
G75*
G02*
X170985000Y-76160000I0J-75000D01*
G01*
X170985000Y-77485000D01*
G75*
G02*
X170910000Y-77560000I-75000J0D01*
G01*
X170760000Y-77560000D01*
G75*
G02*
X170685000Y-77485000I0J75000D01*
G01*
G37*
G36*
G01*
X170185000Y-77485000D02*
X170185000Y-76160000D01*
G75*
G02*
X170260000Y-76085000I75000J0D01*
G01*
X170410000Y-76085000D01*
G75*
G02*
X170485000Y-76160000I0J-75000D01*
G01*
X170485000Y-77485000D01*
G75*
G02*
X170410000Y-77560000I-75000J0D01*
G01*
X170260000Y-77560000D01*
G75*
G02*
X170185000Y-77485000I0J75000D01*
G01*
G37*
%TD*%
D11*
%TO.C,J1*%
X96801000Y-85263000D03*
X96801000Y-84463000D03*
X96801000Y-79563000D03*
X96801000Y-78763000D03*
X96801000Y-78763000D03*
X96801000Y-79563000D03*
X96801000Y-84463000D03*
X96801000Y-85263000D03*
D12*
X96801000Y-80263000D03*
X96801000Y-80763000D03*
X96801000Y-81263000D03*
X96801000Y-82263000D03*
X96801000Y-82763000D03*
X96801000Y-83263000D03*
X96801000Y-83763000D03*
X96801000Y-81763000D03*
%TD*%
%TO.C,R15*%
G36*
G01*
X110591250Y-81422500D02*
X110078750Y-81422500D01*
G75*
G02*
X109860000Y-81203750I0J218750D01*
G01*
X109860000Y-80766250D01*
G75*
G02*
X110078750Y-80547500I218750J0D01*
G01*
X110591250Y-80547500D01*
G75*
G02*
X110810000Y-80766250I0J-218750D01*
G01*
X110810000Y-81203750D01*
G75*
G02*
X110591250Y-81422500I-218750J0D01*
G01*
G37*
G36*
G01*
X110591250Y-82997500D02*
X110078750Y-82997500D01*
G75*
G02*
X109860000Y-82778750I0J218750D01*
G01*
X109860000Y-82341250D01*
G75*
G02*
X110078750Y-82122500I218750J0D01*
G01*
X110591250Y-82122500D01*
G75*
G02*
X110810000Y-82341250I0J-218750D01*
G01*
X110810000Y-82778750D01*
G75*
G02*
X110591250Y-82997500I-218750J0D01*
G01*
G37*
%TD*%
%TO.C,C16*%
G36*
G01*
X179078750Y-78835000D02*
X179591250Y-78835000D01*
G75*
G02*
X179810000Y-79053750I0J-218750D01*
G01*
X179810000Y-79491250D01*
G75*
G02*
X179591250Y-79710000I-218750J0D01*
G01*
X179078750Y-79710000D01*
G75*
G02*
X178860000Y-79491250I0J218750D01*
G01*
X178860000Y-79053750D01*
G75*
G02*
X179078750Y-78835000I218750J0D01*
G01*
G37*
G36*
G01*
X179078750Y-77260000D02*
X179591250Y-77260000D01*
G75*
G02*
X179810000Y-77478750I0J-218750D01*
G01*
X179810000Y-77916250D01*
G75*
G02*
X179591250Y-78135000I-218750J0D01*
G01*
X179078750Y-78135000D01*
G75*
G02*
X178860000Y-77916250I0J218750D01*
G01*
X178860000Y-77478750D01*
G75*
G02*
X179078750Y-77260000I218750J0D01*
G01*
G37*
%TD*%
D13*
%TO.C,U1*%
X104385000Y-101757000D03*
X99785000Y-101757000D03*
X102085000Y-101757000D03*
D14*
X102085000Y-108057000D03*
%TD*%
D10*
%TO.C,Y2*%
X165585000Y-78835000D03*
X165585000Y-75135000D03*
%TD*%
%TO.C,R19*%
G36*
G01*
X173328750Y-72047500D02*
X173841250Y-72047500D01*
G75*
G02*
X174060000Y-72266250I0J-218750D01*
G01*
X174060000Y-72703750D01*
G75*
G02*
X173841250Y-72922500I-218750J0D01*
G01*
X173328750Y-72922500D01*
G75*
G02*
X173110000Y-72703750I0J218750D01*
G01*
X173110000Y-72266250D01*
G75*
G02*
X173328750Y-72047500I218750J0D01*
G01*
G37*
G36*
G01*
X173328750Y-70472500D02*
X173841250Y-70472500D01*
G75*
G02*
X174060000Y-70691250I0J-218750D01*
G01*
X174060000Y-71128750D01*
G75*
G02*
X173841250Y-71347500I-218750J0D01*
G01*
X173328750Y-71347500D01*
G75*
G02*
X173110000Y-71128750I0J218750D01*
G01*
X173110000Y-70691250D01*
G75*
G02*
X173328750Y-70472500I218750J0D01*
G01*
G37*
%TD*%
%TO.C,R18*%
G36*
G01*
X165735000Y-70978750D02*
X165735000Y-71491250D01*
G75*
G02*
X165516250Y-71710000I-218750J0D01*
G01*
X165078750Y-71710000D01*
G75*
G02*
X164860000Y-71491250I0J218750D01*
G01*
X164860000Y-70978750D01*
G75*
G02*
X165078750Y-70760000I218750J0D01*
G01*
X165516250Y-70760000D01*
G75*
G02*
X165735000Y-70978750I0J-218750D01*
G01*
G37*
G36*
G01*
X167310000Y-70978750D02*
X167310000Y-71491250D01*
G75*
G02*
X167091250Y-71710000I-218750J0D01*
G01*
X166653750Y-71710000D01*
G75*
G02*
X166435000Y-71491250I0J218750D01*
G01*
X166435000Y-70978750D01*
G75*
G02*
X166653750Y-70760000I218750J0D01*
G01*
X167091250Y-70760000D01*
G75*
G02*
X167310000Y-70978750I0J-218750D01*
G01*
G37*
%TD*%
%TO.C,R17*%
G36*
G01*
X169091250Y-88385000D02*
X168578750Y-88385000D01*
G75*
G02*
X168360000Y-88166250I0J218750D01*
G01*
X168360000Y-87728750D01*
G75*
G02*
X168578750Y-87510000I218750J0D01*
G01*
X169091250Y-87510000D01*
G75*
G02*
X169310000Y-87728750I0J-218750D01*
G01*
X169310000Y-88166250D01*
G75*
G02*
X169091250Y-88385000I-218750J0D01*
G01*
G37*
G36*
G01*
X169091250Y-89960000D02*
X168578750Y-89960000D01*
G75*
G02*
X168360000Y-89741250I0J218750D01*
G01*
X168360000Y-89303750D01*
G75*
G02*
X168578750Y-89085000I218750J0D01*
G01*
X169091250Y-89085000D01*
G75*
G02*
X169310000Y-89303750I0J-218750D01*
G01*
X169310000Y-89741250D01*
G75*
G02*
X169091250Y-89960000I-218750J0D01*
G01*
G37*
%TD*%
%TO.C,R14*%
G36*
G01*
X109972500Y-77741250D02*
X109972500Y-77228750D01*
G75*
G02*
X110191250Y-77010000I218750J0D01*
G01*
X110628750Y-77010000D01*
G75*
G02*
X110847500Y-77228750I0J-218750D01*
G01*
X110847500Y-77741250D01*
G75*
G02*
X110628750Y-77960000I-218750J0D01*
G01*
X110191250Y-77960000D01*
G75*
G02*
X109972500Y-77741250I0J218750D01*
G01*
G37*
G36*
G01*
X108397500Y-77741250D02*
X108397500Y-77228750D01*
G75*
G02*
X108616250Y-77010000I218750J0D01*
G01*
X109053750Y-77010000D01*
G75*
G02*
X109272500Y-77228750I0J-218750D01*
G01*
X109272500Y-77741250D01*
G75*
G02*
X109053750Y-77960000I-218750J0D01*
G01*
X108616250Y-77960000D01*
G75*
G02*
X108397500Y-77741250I0J218750D01*
G01*
G37*
%TD*%
%TO.C,R12*%
G36*
G01*
X118841250Y-65135000D02*
X118328750Y-65135000D01*
G75*
G02*
X118110000Y-64916250I0J218750D01*
G01*
X118110000Y-64478750D01*
G75*
G02*
X118328750Y-64260000I218750J0D01*
G01*
X118841250Y-64260000D01*
G75*
G02*
X119060000Y-64478750I0J-218750D01*
G01*
X119060000Y-64916250D01*
G75*
G02*
X118841250Y-65135000I-218750J0D01*
G01*
G37*
G36*
G01*
X118841250Y-66710000D02*
X118328750Y-66710000D01*
G75*
G02*
X118110000Y-66491250I0J218750D01*
G01*
X118110000Y-66053750D01*
G75*
G02*
X118328750Y-65835000I218750J0D01*
G01*
X118841250Y-65835000D01*
G75*
G02*
X119060000Y-66053750I0J-218750D01*
G01*
X119060000Y-66491250D01*
G75*
G02*
X118841250Y-66710000I-218750J0D01*
G01*
G37*
%TD*%
%TO.C,R11*%
G36*
G01*
X120591250Y-65135000D02*
X120078750Y-65135000D01*
G75*
G02*
X119860000Y-64916250I0J218750D01*
G01*
X119860000Y-64478750D01*
G75*
G02*
X120078750Y-64260000I218750J0D01*
G01*
X120591250Y-64260000D01*
G75*
G02*
X120810000Y-64478750I0J-218750D01*
G01*
X120810000Y-64916250D01*
G75*
G02*
X120591250Y-65135000I-218750J0D01*
G01*
G37*
G36*
G01*
X120591250Y-66710000D02*
X120078750Y-66710000D01*
G75*
G02*
X119860000Y-66491250I0J218750D01*
G01*
X119860000Y-66053750D01*
G75*
G02*
X120078750Y-65835000I218750J0D01*
G01*
X120591250Y-65835000D01*
G75*
G02*
X120810000Y-66053750I0J-218750D01*
G01*
X120810000Y-66491250D01*
G75*
G02*
X120591250Y-66710000I-218750J0D01*
G01*
G37*
%TD*%
%TO.C,R10*%
G36*
G01*
X122341250Y-65135000D02*
X121828750Y-65135000D01*
G75*
G02*
X121610000Y-64916250I0J218750D01*
G01*
X121610000Y-64478750D01*
G75*
G02*
X121828750Y-64260000I218750J0D01*
G01*
X122341250Y-64260000D01*
G75*
G02*
X122560000Y-64478750I0J-218750D01*
G01*
X122560000Y-64916250D01*
G75*
G02*
X122341250Y-65135000I-218750J0D01*
G01*
G37*
G36*
G01*
X122341250Y-66710000D02*
X121828750Y-66710000D01*
G75*
G02*
X121610000Y-66491250I0J218750D01*
G01*
X121610000Y-66053750D01*
G75*
G02*
X121828750Y-65835000I218750J0D01*
G01*
X122341250Y-65835000D01*
G75*
G02*
X122560000Y-66053750I0J-218750D01*
G01*
X122560000Y-66491250D01*
G75*
G02*
X122341250Y-66710000I-218750J0D01*
G01*
G37*
%TD*%
%TO.C,R3*%
G36*
G01*
X97685000Y-71991250D02*
X97685000Y-71478750D01*
G75*
G02*
X97903750Y-71260000I218750J0D01*
G01*
X98341250Y-71260000D01*
G75*
G02*
X98560000Y-71478750I0J-218750D01*
G01*
X98560000Y-71991250D01*
G75*
G02*
X98341250Y-72210000I-218750J0D01*
G01*
X97903750Y-72210000D01*
G75*
G02*
X97685000Y-71991250I0J218750D01*
G01*
G37*
G36*
G01*
X96110000Y-71991250D02*
X96110000Y-71478750D01*
G75*
G02*
X96328750Y-71260000I218750J0D01*
G01*
X96766250Y-71260000D01*
G75*
G02*
X96985000Y-71478750I0J-218750D01*
G01*
X96985000Y-71991250D01*
G75*
G02*
X96766250Y-72210000I-218750J0D01*
G01*
X96328750Y-72210000D01*
G75*
G02*
X96110000Y-71991250I0J218750D01*
G01*
G37*
%TD*%
%TO.C,R5*%
G36*
G01*
X103185000Y-83241250D02*
X103185000Y-82728750D01*
G75*
G02*
X103403750Y-82510000I218750J0D01*
G01*
X103841250Y-82510000D01*
G75*
G02*
X104060000Y-82728750I0J-218750D01*
G01*
X104060000Y-83241250D01*
G75*
G02*
X103841250Y-83460000I-218750J0D01*
G01*
X103403750Y-83460000D01*
G75*
G02*
X103185000Y-83241250I0J218750D01*
G01*
G37*
G36*
G01*
X101610000Y-83241250D02*
X101610000Y-82728750D01*
G75*
G02*
X101828750Y-82510000I218750J0D01*
G01*
X102266250Y-82510000D01*
G75*
G02*
X102485000Y-82728750I0J-218750D01*
G01*
X102485000Y-83241250D01*
G75*
G02*
X102266250Y-83460000I-218750J0D01*
G01*
X101828750Y-83460000D01*
G75*
G02*
X101610000Y-83241250I0J218750D01*
G01*
G37*
%TD*%
%TO.C,R4*%
G36*
G01*
X102485000Y-80978750D02*
X102485000Y-81491250D01*
G75*
G02*
X102266250Y-81710000I-218750J0D01*
G01*
X101828750Y-81710000D01*
G75*
G02*
X101610000Y-81491250I0J218750D01*
G01*
X101610000Y-80978750D01*
G75*
G02*
X101828750Y-80760000I218750J0D01*
G01*
X102266250Y-80760000D01*
G75*
G02*
X102485000Y-80978750I0J-218750D01*
G01*
G37*
G36*
G01*
X104060000Y-80978750D02*
X104060000Y-81491250D01*
G75*
G02*
X103841250Y-81710000I-218750J0D01*
G01*
X103403750Y-81710000D01*
G75*
G02*
X103185000Y-81491250I0J218750D01*
G01*
X103185000Y-80978750D01*
G75*
G02*
X103403750Y-80760000I218750J0D01*
G01*
X103841250Y-80760000D01*
G75*
G02*
X104060000Y-80978750I0J-218750D01*
G01*
G37*
%TD*%
%TO.C,R2*%
G36*
G01*
X103185000Y-84991250D02*
X103185000Y-84478750D01*
G75*
G02*
X103403750Y-84260000I218750J0D01*
G01*
X103841250Y-84260000D01*
G75*
G02*
X104060000Y-84478750I0J-218750D01*
G01*
X104060000Y-84991250D01*
G75*
G02*
X103841250Y-85210000I-218750J0D01*
G01*
X103403750Y-85210000D01*
G75*
G02*
X103185000Y-84991250I0J218750D01*
G01*
G37*
G36*
G01*
X101610000Y-84991250D02*
X101610000Y-84478750D01*
G75*
G02*
X101828750Y-84260000I218750J0D01*
G01*
X102266250Y-84260000D01*
G75*
G02*
X102485000Y-84478750I0J-218750D01*
G01*
X102485000Y-84991250D01*
G75*
G02*
X102266250Y-85210000I-218750J0D01*
G01*
X101828750Y-85210000D01*
G75*
G02*
X101610000Y-84991250I0J218750D01*
G01*
G37*
%TD*%
%TO.C,R1*%
G36*
G01*
X102485000Y-79228750D02*
X102485000Y-79741250D01*
G75*
G02*
X102266250Y-79960000I-218750J0D01*
G01*
X101828750Y-79960000D01*
G75*
G02*
X101610000Y-79741250I0J218750D01*
G01*
X101610000Y-79228750D01*
G75*
G02*
X101828750Y-79010000I218750J0D01*
G01*
X102266250Y-79010000D01*
G75*
G02*
X102485000Y-79228750I0J-218750D01*
G01*
G37*
G36*
G01*
X104060000Y-79228750D02*
X104060000Y-79741250D01*
G75*
G02*
X103841250Y-79960000I-218750J0D01*
G01*
X103403750Y-79960000D01*
G75*
G02*
X103185000Y-79741250I0J218750D01*
G01*
X103185000Y-79228750D01*
G75*
G02*
X103403750Y-79010000I218750J0D01*
G01*
X103841250Y-79010000D01*
G75*
G02*
X104060000Y-79228750I0J-218750D01*
G01*
G37*
%TD*%
%TO.C,D9*%
G36*
G01*
X163035000Y-71447500D02*
X163035000Y-71022500D01*
G75*
G02*
X163247500Y-70810000I212500J0D01*
G01*
X164047500Y-70810000D01*
G75*
G02*
X164260000Y-71022500I0J-212500D01*
G01*
X164260000Y-71447500D01*
G75*
G02*
X164047500Y-71660000I-212500J0D01*
G01*
X163247500Y-71660000D01*
G75*
G02*
X163035000Y-71447500I0J212500D01*
G01*
G37*
G36*
G01*
X161410000Y-71447500D02*
X161410000Y-71022500D01*
G75*
G02*
X161622500Y-70810000I212500J0D01*
G01*
X162422500Y-70810000D01*
G75*
G02*
X162635000Y-71022500I0J-212500D01*
G01*
X162635000Y-71447500D01*
G75*
G02*
X162422500Y-71660000I-212500J0D01*
G01*
X161622500Y-71660000D01*
G75*
G02*
X161410000Y-71447500I0J212500D01*
G01*
G37*
%TD*%
%TO.C,D8*%
G36*
G01*
X118372500Y-62185000D02*
X118797500Y-62185000D01*
G75*
G02*
X119010000Y-62397500I0J-212500D01*
G01*
X119010000Y-63197500D01*
G75*
G02*
X118797500Y-63410000I-212500J0D01*
G01*
X118372500Y-63410000D01*
G75*
G02*
X118160000Y-63197500I0J212500D01*
G01*
X118160000Y-62397500D01*
G75*
G02*
X118372500Y-62185000I212500J0D01*
G01*
G37*
G36*
G01*
X118372500Y-60560000D02*
X118797500Y-60560000D01*
G75*
G02*
X119010000Y-60772500I0J-212500D01*
G01*
X119010000Y-61572500D01*
G75*
G02*
X118797500Y-61785000I-212500J0D01*
G01*
X118372500Y-61785000D01*
G75*
G02*
X118160000Y-61572500I0J212500D01*
G01*
X118160000Y-60772500D01*
G75*
G02*
X118372500Y-60560000I212500J0D01*
G01*
G37*
%TD*%
%TO.C,D7*%
G36*
G01*
X120122500Y-62185000D02*
X120547500Y-62185000D01*
G75*
G02*
X120760000Y-62397500I0J-212500D01*
G01*
X120760000Y-63197500D01*
G75*
G02*
X120547500Y-63410000I-212500J0D01*
G01*
X120122500Y-63410000D01*
G75*
G02*
X119910000Y-63197500I0J212500D01*
G01*
X119910000Y-62397500D01*
G75*
G02*
X120122500Y-62185000I212500J0D01*
G01*
G37*
G36*
G01*
X120122500Y-60560000D02*
X120547500Y-60560000D01*
G75*
G02*
X120760000Y-60772500I0J-212500D01*
G01*
X120760000Y-61572500D01*
G75*
G02*
X120547500Y-61785000I-212500J0D01*
G01*
X120122500Y-61785000D01*
G75*
G02*
X119910000Y-61572500I0J212500D01*
G01*
X119910000Y-60772500D01*
G75*
G02*
X120122500Y-60560000I212500J0D01*
G01*
G37*
%TD*%
%TO.C,D6*%
G36*
G01*
X121872500Y-62185000D02*
X122297500Y-62185000D01*
G75*
G02*
X122510000Y-62397500I0J-212500D01*
G01*
X122510000Y-63197500D01*
G75*
G02*
X122297500Y-63410000I-212500J0D01*
G01*
X121872500Y-63410000D01*
G75*
G02*
X121660000Y-63197500I0J212500D01*
G01*
X121660000Y-62397500D01*
G75*
G02*
X121872500Y-62185000I212500J0D01*
G01*
G37*
G36*
G01*
X121872500Y-60560000D02*
X122297500Y-60560000D01*
G75*
G02*
X122510000Y-60772500I0J-212500D01*
G01*
X122510000Y-61572500D01*
G75*
G02*
X122297500Y-61785000I-212500J0D01*
G01*
X121872500Y-61785000D01*
G75*
G02*
X121660000Y-61572500I0J212500D01*
G01*
X121660000Y-60772500D01*
G75*
G02*
X121872500Y-60560000I212500J0D01*
G01*
G37*
%TD*%
%TO.C,D1*%
G36*
G01*
X94285000Y-71947500D02*
X94285000Y-71522500D01*
G75*
G02*
X94497500Y-71310000I212500J0D01*
G01*
X95297500Y-71310000D01*
G75*
G02*
X95510000Y-71522500I0J-212500D01*
G01*
X95510000Y-71947500D01*
G75*
G02*
X95297500Y-72160000I-212500J0D01*
G01*
X94497500Y-72160000D01*
G75*
G02*
X94285000Y-71947500I0J212500D01*
G01*
G37*
G36*
G01*
X92660000Y-71947500D02*
X92660000Y-71522500D01*
G75*
G02*
X92872500Y-71310000I212500J0D01*
G01*
X93672500Y-71310000D01*
G75*
G02*
X93885000Y-71522500I0J-212500D01*
G01*
X93885000Y-71947500D01*
G75*
G02*
X93672500Y-72160000I-212500J0D01*
G01*
X92872500Y-72160000D01*
G75*
G02*
X92660000Y-71947500I0J212500D01*
G01*
G37*
%TD*%
%TO.C,C18*%
G36*
G01*
X175235000Y-88478750D02*
X175235000Y-88991250D01*
G75*
G02*
X175016250Y-89210000I-218750J0D01*
G01*
X174578750Y-89210000D01*
G75*
G02*
X174360000Y-88991250I0J218750D01*
G01*
X174360000Y-88478750D01*
G75*
G02*
X174578750Y-88260000I218750J0D01*
G01*
X175016250Y-88260000D01*
G75*
G02*
X175235000Y-88478750I0J-218750D01*
G01*
G37*
G36*
G01*
X176810000Y-88478750D02*
X176810000Y-88991250D01*
G75*
G02*
X176591250Y-89210000I-218750J0D01*
G01*
X176153750Y-89210000D01*
G75*
G02*
X175935000Y-88991250I0J218750D01*
G01*
X175935000Y-88478750D01*
G75*
G02*
X176153750Y-88260000I218750J0D01*
G01*
X176591250Y-88260000D01*
G75*
G02*
X176810000Y-88478750I0J-218750D01*
G01*
G37*
%TD*%
%TO.C,C17*%
G36*
G01*
X175235000Y-86978750D02*
X175235000Y-87491250D01*
G75*
G02*
X175016250Y-87710000I-218750J0D01*
G01*
X174578750Y-87710000D01*
G75*
G02*
X174360000Y-87491250I0J218750D01*
G01*
X174360000Y-86978750D01*
G75*
G02*
X174578750Y-86760000I218750J0D01*
G01*
X175016250Y-86760000D01*
G75*
G02*
X175235000Y-86978750I0J-218750D01*
G01*
G37*
G36*
G01*
X176810000Y-86978750D02*
X176810000Y-87491250D01*
G75*
G02*
X176591250Y-87710000I-218750J0D01*
G01*
X176153750Y-87710000D01*
G75*
G02*
X175935000Y-87491250I0J218750D01*
G01*
X175935000Y-86978750D01*
G75*
G02*
X176153750Y-86760000I218750J0D01*
G01*
X176591250Y-86760000D01*
G75*
G02*
X176810000Y-86978750I0J-218750D01*
G01*
G37*
%TD*%
%TO.C,C15*%
G36*
G01*
X170935000Y-74991250D02*
X170935000Y-74478750D01*
G75*
G02*
X171153750Y-74260000I218750J0D01*
G01*
X171591250Y-74260000D01*
G75*
G02*
X171810000Y-74478750I0J-218750D01*
G01*
X171810000Y-74991250D01*
G75*
G02*
X171591250Y-75210000I-218750J0D01*
G01*
X171153750Y-75210000D01*
G75*
G02*
X170935000Y-74991250I0J218750D01*
G01*
G37*
G36*
G01*
X169360000Y-74991250D02*
X169360000Y-74478750D01*
G75*
G02*
X169578750Y-74260000I218750J0D01*
G01*
X170016250Y-74260000D01*
G75*
G02*
X170235000Y-74478750I0J-218750D01*
G01*
X170235000Y-74991250D01*
G75*
G02*
X170016250Y-75210000I-218750J0D01*
G01*
X169578750Y-75210000D01*
G75*
G02*
X169360000Y-74991250I0J218750D01*
G01*
G37*
%TD*%
%TO.C,C14*%
G36*
G01*
X167091250Y-81635000D02*
X166578750Y-81635000D01*
G75*
G02*
X166360000Y-81416250I0J218750D01*
G01*
X166360000Y-80978750D01*
G75*
G02*
X166578750Y-80760000I218750J0D01*
G01*
X167091250Y-80760000D01*
G75*
G02*
X167310000Y-80978750I0J-218750D01*
G01*
X167310000Y-81416250D01*
G75*
G02*
X167091250Y-81635000I-218750J0D01*
G01*
G37*
G36*
G01*
X167091250Y-83210000D02*
X166578750Y-83210000D01*
G75*
G02*
X166360000Y-82991250I0J218750D01*
G01*
X166360000Y-82553750D01*
G75*
G02*
X166578750Y-82335000I218750J0D01*
G01*
X167091250Y-82335000D01*
G75*
G02*
X167310000Y-82553750I0J-218750D01*
G01*
X167310000Y-82991250D01*
G75*
G02*
X167091250Y-83210000I-218750J0D01*
G01*
G37*
%TD*%
%TO.C,C13*%
G36*
G01*
X162841250Y-78385000D02*
X162328750Y-78385000D01*
G75*
G02*
X162110000Y-78166250I0J218750D01*
G01*
X162110000Y-77728750D01*
G75*
G02*
X162328750Y-77510000I218750J0D01*
G01*
X162841250Y-77510000D01*
G75*
G02*
X163060000Y-77728750I0J-218750D01*
G01*
X163060000Y-78166250D01*
G75*
G02*
X162841250Y-78385000I-218750J0D01*
G01*
G37*
G36*
G01*
X162841250Y-79960000D02*
X162328750Y-79960000D01*
G75*
G02*
X162110000Y-79741250I0J218750D01*
G01*
X162110000Y-79303750D01*
G75*
G02*
X162328750Y-79085000I218750J0D01*
G01*
X162841250Y-79085000D01*
G75*
G02*
X163060000Y-79303750I0J-218750D01*
G01*
X163060000Y-79741250D01*
G75*
G02*
X162841250Y-79960000I-218750J0D01*
G01*
G37*
%TD*%
%TO.C,C12*%
G36*
G01*
X162328750Y-75585000D02*
X162841250Y-75585000D01*
G75*
G02*
X163060000Y-75803750I0J-218750D01*
G01*
X163060000Y-76241250D01*
G75*
G02*
X162841250Y-76460000I-218750J0D01*
G01*
X162328750Y-76460000D01*
G75*
G02*
X162110000Y-76241250I0J218750D01*
G01*
X162110000Y-75803750D01*
G75*
G02*
X162328750Y-75585000I218750J0D01*
G01*
G37*
G36*
G01*
X162328750Y-74010000D02*
X162841250Y-74010000D01*
G75*
G02*
X163060000Y-74228750I0J-218750D01*
G01*
X163060000Y-74666250D01*
G75*
G02*
X162841250Y-74885000I-218750J0D01*
G01*
X162328750Y-74885000D01*
G75*
G02*
X162110000Y-74666250I0J218750D01*
G01*
X162110000Y-74228750D01*
G75*
G02*
X162328750Y-74010000I218750J0D01*
G01*
G37*
%TD*%
%TO.C,C11*%
G36*
G01*
X167078750Y-89085000D02*
X167591250Y-89085000D01*
G75*
G02*
X167810000Y-89303750I0J-218750D01*
G01*
X167810000Y-89741250D01*
G75*
G02*
X167591250Y-89960000I-218750J0D01*
G01*
X167078750Y-89960000D01*
G75*
G02*
X166860000Y-89741250I0J218750D01*
G01*
X166860000Y-89303750D01*
G75*
G02*
X167078750Y-89085000I218750J0D01*
G01*
G37*
G36*
G01*
X167078750Y-87510000D02*
X167591250Y-87510000D01*
G75*
G02*
X167810000Y-87728750I0J-218750D01*
G01*
X167810000Y-88166250D01*
G75*
G02*
X167591250Y-88385000I-218750J0D01*
G01*
X167078750Y-88385000D01*
G75*
G02*
X166860000Y-88166250I0J218750D01*
G01*
X166860000Y-87728750D01*
G75*
G02*
X167078750Y-87510000I218750J0D01*
G01*
G37*
%TD*%
%TO.C,C2*%
G36*
G01*
X104435000Y-99829250D02*
X104435000Y-99316750D01*
G75*
G02*
X104653750Y-99098000I218750J0D01*
G01*
X105091250Y-99098000D01*
G75*
G02*
X105310000Y-99316750I0J-218750D01*
G01*
X105310000Y-99829250D01*
G75*
G02*
X105091250Y-100048000I-218750J0D01*
G01*
X104653750Y-100048000D01*
G75*
G02*
X104435000Y-99829250I0J218750D01*
G01*
G37*
G36*
G01*
X102860000Y-99829250D02*
X102860000Y-99316750D01*
G75*
G02*
X103078750Y-99098000I218750J0D01*
G01*
X103516250Y-99098000D01*
G75*
G02*
X103735000Y-99316750I0J-218750D01*
G01*
X103735000Y-99829250D01*
G75*
G02*
X103516250Y-100048000I-218750J0D01*
G01*
X103078750Y-100048000D01*
G75*
G02*
X102860000Y-99829250I0J218750D01*
G01*
G37*
%TD*%
%TO.C,C1*%
G36*
G01*
X100435000Y-99829250D02*
X100435000Y-99316750D01*
G75*
G02*
X100653750Y-99098000I218750J0D01*
G01*
X101091250Y-99098000D01*
G75*
G02*
X101310000Y-99316750I0J-218750D01*
G01*
X101310000Y-99829250D01*
G75*
G02*
X101091250Y-100048000I-218750J0D01*
G01*
X100653750Y-100048000D01*
G75*
G02*
X100435000Y-99829250I0J218750D01*
G01*
G37*
G36*
G01*
X98860000Y-99829250D02*
X98860000Y-99316750D01*
G75*
G02*
X99078750Y-99098000I218750J0D01*
G01*
X99516250Y-99098000D01*
G75*
G02*
X99735000Y-99316750I0J-218750D01*
G01*
X99735000Y-99829250D01*
G75*
G02*
X99516250Y-100048000I-218750J0D01*
G01*
X99078750Y-100048000D01*
G75*
G02*
X98860000Y-99829250I0J218750D01*
G01*
G37*
%TD*%
M02*
