%TF.GenerationSoftware,KiCad,Pcbnew,(5.1.6)-1*%
%TF.CreationDate,2020-09-28T21:59:18+02:00*%
%TF.ProjectId,BMP-Arduino,424d502d-4172-4647-9569-6e6f2e6b6963,0.1*%
%TF.SameCoordinates,Original*%
%TF.FileFunction,Copper,L1,Top*%
%TF.FilePolarity,Positive*%
%FSLAX46Y46*%
G04 Gerber Fmt 4.6, Leading zero omitted, Abs format (unit mm)*
G04 Created by KiCad (PCBNEW (5.1.6)-1) date 2020-09-28 21:59:18*
%MOMM*%
%LPD*%
G01*
G04 APERTURE LIST*
%TA.AperFunction,ComponentPad*%
%ADD10O,1.700000X1.700000*%
%TD*%
%TA.AperFunction,ComponentPad*%
%ADD11R,1.700000X1.700000*%
%TD*%
%TA.AperFunction,ComponentPad*%
%ADD12C,2.000000*%
%TD*%
%TA.AperFunction,SMDPad,CuDef*%
%ADD13R,2.400000X2.000000*%
%TD*%
%TA.AperFunction,SMDPad,CuDef*%
%ADD14R,1.450000X0.600000*%
%TD*%
%TA.AperFunction,SMDPad,CuDef*%
%ADD15R,1.450000X0.300000*%
%TD*%
%TA.AperFunction,ComponentPad*%
%ADD16O,2.100000X1.000000*%
%TD*%
%TA.AperFunction,ComponentPad*%
%ADD17O,1.600000X1.000000*%
%TD*%
%TA.AperFunction,SMDPad,CuDef*%
%ADD18C,0.500000*%
%TD*%
%TA.AperFunction,SMDPad,CuDef*%
%ADD19R,1.500000X2.000000*%
%TD*%
%TA.AperFunction,SMDPad,CuDef*%
%ADD20R,3.800000X2.000000*%
%TD*%
%TA.AperFunction,ComponentPad*%
%ADD21C,0.800000*%
%TD*%
%TA.AperFunction,ComponentPad*%
%ADD22C,5.400000*%
%TD*%
%TA.AperFunction,ViaPad*%
%ADD23C,0.800000*%
%TD*%
%TA.AperFunction,Conductor*%
%ADD24C,0.508000*%
%TD*%
%TA.AperFunction,Conductor*%
%ADD25C,0.254000*%
%TD*%
G04 APERTURE END LIST*
D10*
%TO.P,JP2,2*%
%TO.N,/BMP-RX*%
X143875000Y-108485000D03*
D11*
%TO.P,JP2,1*%
%TO.N,Net-(JP2-Pad1)*%
X141335000Y-108485000D03*
%TD*%
D10*
%TO.P,JP5,2*%
%TO.N,/CPU-TX*%
X143875000Y-96235000D03*
D11*
%TO.P,JP5,1*%
%TO.N,Net-(JP5-Pad1)*%
X141335000Y-96235000D03*
%TD*%
D10*
%TO.P,JP4,2*%
%TO.N,/CPU-RX*%
X143875000Y-99985000D03*
D11*
%TO.P,JP4,1*%
%TO.N,Net-(JP4-Pad1)*%
X141335000Y-99985000D03*
%TD*%
D10*
%TO.P,JP3,2*%
%TO.N,/BMP-TX*%
X143875000Y-104735000D03*
D11*
%TO.P,JP3,1*%
%TO.N,Net-(JP3-Pad1)*%
X141335000Y-104735000D03*
%TD*%
%TO.P,R9,2*%
%TO.N,Net-(JP5-Pad1)*%
%TA.AperFunction,SMDPad,CuDef*%
G36*
G01*
X133685000Y-98991250D02*
X133685000Y-98478750D01*
G75*
G02*
X133903750Y-98260000I218750J0D01*
G01*
X134341250Y-98260000D01*
G75*
G02*
X134560000Y-98478750I0J-218750D01*
G01*
X134560000Y-98991250D01*
G75*
G02*
X134341250Y-99210000I-218750J0D01*
G01*
X133903750Y-99210000D01*
G75*
G02*
X133685000Y-98991250I0J218750D01*
G01*
G37*
%TD.AperFunction*%
%TO.P,R9,1*%
%TO.N,Net-(D5-Pad2)*%
%TA.AperFunction,SMDPad,CuDef*%
G36*
G01*
X132110000Y-98991250D02*
X132110000Y-98478750D01*
G75*
G02*
X132328750Y-98260000I218750J0D01*
G01*
X132766250Y-98260000D01*
G75*
G02*
X132985000Y-98478750I0J-218750D01*
G01*
X132985000Y-98991250D01*
G75*
G02*
X132766250Y-99210000I-218750J0D01*
G01*
X132328750Y-99210000D01*
G75*
G02*
X132110000Y-98991250I0J218750D01*
G01*
G37*
%TD.AperFunction*%
%TD*%
%TO.P,R8,2*%
%TO.N,Net-(JP4-Pad1)*%
%TA.AperFunction,SMDPad,CuDef*%
G36*
G01*
X133685000Y-100741250D02*
X133685000Y-100228750D01*
G75*
G02*
X133903750Y-100010000I218750J0D01*
G01*
X134341250Y-100010000D01*
G75*
G02*
X134560000Y-100228750I0J-218750D01*
G01*
X134560000Y-100741250D01*
G75*
G02*
X134341250Y-100960000I-218750J0D01*
G01*
X133903750Y-100960000D01*
G75*
G02*
X133685000Y-100741250I0J218750D01*
G01*
G37*
%TD.AperFunction*%
%TO.P,R8,1*%
%TO.N,Net-(D4-Pad2)*%
%TA.AperFunction,SMDPad,CuDef*%
G36*
G01*
X132110000Y-100741250D02*
X132110000Y-100228750D01*
G75*
G02*
X132328750Y-100010000I218750J0D01*
G01*
X132766250Y-100010000D01*
G75*
G02*
X132985000Y-100228750I0J-218750D01*
G01*
X132985000Y-100741250D01*
G75*
G02*
X132766250Y-100960000I-218750J0D01*
G01*
X132328750Y-100960000D01*
G75*
G02*
X132110000Y-100741250I0J218750D01*
G01*
G37*
%TD.AperFunction*%
%TD*%
%TO.P,R7,2*%
%TO.N,Net-(JP3-Pad1)*%
%TA.AperFunction,SMDPad,CuDef*%
G36*
G01*
X133722500Y-104491250D02*
X133722500Y-103978750D01*
G75*
G02*
X133941250Y-103760000I218750J0D01*
G01*
X134378750Y-103760000D01*
G75*
G02*
X134597500Y-103978750I0J-218750D01*
G01*
X134597500Y-104491250D01*
G75*
G02*
X134378750Y-104710000I-218750J0D01*
G01*
X133941250Y-104710000D01*
G75*
G02*
X133722500Y-104491250I0J218750D01*
G01*
G37*
%TD.AperFunction*%
%TO.P,R7,1*%
%TO.N,Net-(D3-Pad2)*%
%TA.AperFunction,SMDPad,CuDef*%
G36*
G01*
X132147500Y-104491250D02*
X132147500Y-103978750D01*
G75*
G02*
X132366250Y-103760000I218750J0D01*
G01*
X132803750Y-103760000D01*
G75*
G02*
X133022500Y-103978750I0J-218750D01*
G01*
X133022500Y-104491250D01*
G75*
G02*
X132803750Y-104710000I-218750J0D01*
G01*
X132366250Y-104710000D01*
G75*
G02*
X132147500Y-104491250I0J218750D01*
G01*
G37*
%TD.AperFunction*%
%TD*%
%TO.P,R6,2*%
%TO.N,Net-(JP2-Pad1)*%
%TA.AperFunction,SMDPad,CuDef*%
G36*
G01*
X133685000Y-106241250D02*
X133685000Y-105728750D01*
G75*
G02*
X133903750Y-105510000I218750J0D01*
G01*
X134341250Y-105510000D01*
G75*
G02*
X134560000Y-105728750I0J-218750D01*
G01*
X134560000Y-106241250D01*
G75*
G02*
X134341250Y-106460000I-218750J0D01*
G01*
X133903750Y-106460000D01*
G75*
G02*
X133685000Y-106241250I0J218750D01*
G01*
G37*
%TD.AperFunction*%
%TO.P,R6,1*%
%TO.N,Net-(D2-Pad2)*%
%TA.AperFunction,SMDPad,CuDef*%
G36*
G01*
X132110000Y-106241250D02*
X132110000Y-105728750D01*
G75*
G02*
X132328750Y-105510000I218750J0D01*
G01*
X132766250Y-105510000D01*
G75*
G02*
X132985000Y-105728750I0J-218750D01*
G01*
X132985000Y-106241250D01*
G75*
G02*
X132766250Y-106460000I-218750J0D01*
G01*
X132328750Y-106460000D01*
G75*
G02*
X132110000Y-106241250I0J218750D01*
G01*
G37*
%TD.AperFunction*%
%TD*%
%TO.P,D5,2*%
%TO.N,Net-(D5-Pad2)*%
%TA.AperFunction,SMDPad,CuDef*%
G36*
G01*
X129785000Y-98947500D02*
X129785000Y-98522500D01*
G75*
G02*
X129997500Y-98310000I212500J0D01*
G01*
X130797500Y-98310000D01*
G75*
G02*
X131010000Y-98522500I0J-212500D01*
G01*
X131010000Y-98947500D01*
G75*
G02*
X130797500Y-99160000I-212500J0D01*
G01*
X129997500Y-99160000D01*
G75*
G02*
X129785000Y-98947500I0J212500D01*
G01*
G37*
%TD.AperFunction*%
%TO.P,D5,1*%
%TO.N,GND*%
%TA.AperFunction,SMDPad,CuDef*%
G36*
G01*
X128160000Y-98947500D02*
X128160000Y-98522500D01*
G75*
G02*
X128372500Y-98310000I212500J0D01*
G01*
X129172500Y-98310000D01*
G75*
G02*
X129385000Y-98522500I0J-212500D01*
G01*
X129385000Y-98947500D01*
G75*
G02*
X129172500Y-99160000I-212500J0D01*
G01*
X128372500Y-99160000D01*
G75*
G02*
X128160000Y-98947500I0J212500D01*
G01*
G37*
%TD.AperFunction*%
%TD*%
%TO.P,D4,2*%
%TO.N,Net-(D4-Pad2)*%
%TA.AperFunction,SMDPad,CuDef*%
G36*
G01*
X129785000Y-100697500D02*
X129785000Y-100272500D01*
G75*
G02*
X129997500Y-100060000I212500J0D01*
G01*
X130797500Y-100060000D01*
G75*
G02*
X131010000Y-100272500I0J-212500D01*
G01*
X131010000Y-100697500D01*
G75*
G02*
X130797500Y-100910000I-212500J0D01*
G01*
X129997500Y-100910000D01*
G75*
G02*
X129785000Y-100697500I0J212500D01*
G01*
G37*
%TD.AperFunction*%
%TO.P,D4,1*%
%TO.N,GND*%
%TA.AperFunction,SMDPad,CuDef*%
G36*
G01*
X128160000Y-100697500D02*
X128160000Y-100272500D01*
G75*
G02*
X128372500Y-100060000I212500J0D01*
G01*
X129172500Y-100060000D01*
G75*
G02*
X129385000Y-100272500I0J-212500D01*
G01*
X129385000Y-100697500D01*
G75*
G02*
X129172500Y-100910000I-212500J0D01*
G01*
X128372500Y-100910000D01*
G75*
G02*
X128160000Y-100697500I0J212500D01*
G01*
G37*
%TD.AperFunction*%
%TD*%
%TO.P,D3,2*%
%TO.N,Net-(D3-Pad2)*%
%TA.AperFunction,SMDPad,CuDef*%
G36*
G01*
X129785000Y-104447500D02*
X129785000Y-104022500D01*
G75*
G02*
X129997500Y-103810000I212500J0D01*
G01*
X130797500Y-103810000D01*
G75*
G02*
X131010000Y-104022500I0J-212500D01*
G01*
X131010000Y-104447500D01*
G75*
G02*
X130797500Y-104660000I-212500J0D01*
G01*
X129997500Y-104660000D01*
G75*
G02*
X129785000Y-104447500I0J212500D01*
G01*
G37*
%TD.AperFunction*%
%TO.P,D3,1*%
%TO.N,GND*%
%TA.AperFunction,SMDPad,CuDef*%
G36*
G01*
X128160000Y-104447500D02*
X128160000Y-104022500D01*
G75*
G02*
X128372500Y-103810000I212500J0D01*
G01*
X129172500Y-103810000D01*
G75*
G02*
X129385000Y-104022500I0J-212500D01*
G01*
X129385000Y-104447500D01*
G75*
G02*
X129172500Y-104660000I-212500J0D01*
G01*
X128372500Y-104660000D01*
G75*
G02*
X128160000Y-104447500I0J212500D01*
G01*
G37*
%TD.AperFunction*%
%TD*%
%TO.P,D2,2*%
%TO.N,Net-(D2-Pad2)*%
%TA.AperFunction,SMDPad,CuDef*%
G36*
G01*
X129785000Y-106197500D02*
X129785000Y-105772500D01*
G75*
G02*
X129997500Y-105560000I212500J0D01*
G01*
X130797500Y-105560000D01*
G75*
G02*
X131010000Y-105772500I0J-212500D01*
G01*
X131010000Y-106197500D01*
G75*
G02*
X130797500Y-106410000I-212500J0D01*
G01*
X129997500Y-106410000D01*
G75*
G02*
X129785000Y-106197500I0J212500D01*
G01*
G37*
%TD.AperFunction*%
%TO.P,D2,1*%
%TO.N,GND*%
%TA.AperFunction,SMDPad,CuDef*%
G36*
G01*
X128160000Y-106197500D02*
X128160000Y-105772500D01*
G75*
G02*
X128372500Y-105560000I212500J0D01*
G01*
X129172500Y-105560000D01*
G75*
G02*
X129385000Y-105772500I0J-212500D01*
G01*
X129385000Y-106197500D01*
G75*
G02*
X129172500Y-106410000I-212500J0D01*
G01*
X128372500Y-106410000D01*
G75*
G02*
X128160000Y-106197500I0J212500D01*
G01*
G37*
%TD.AperFunction*%
%TD*%
%TO.P,U2,48*%
%TO.N,+3V3*%
%TA.AperFunction,SMDPad,CuDef*%
G36*
G01*
X121985000Y-84485000D02*
X121985000Y-85810000D01*
G75*
G02*
X121910000Y-85885000I-75000J0D01*
G01*
X121760000Y-85885000D01*
G75*
G02*
X121685000Y-85810000I0J75000D01*
G01*
X121685000Y-84485000D01*
G75*
G02*
X121760000Y-84410000I75000J0D01*
G01*
X121910000Y-84410000D01*
G75*
G02*
X121985000Y-84485000I0J-75000D01*
G01*
G37*
%TD.AperFunction*%
%TO.P,U2,47*%
%TO.N,GND*%
%TA.AperFunction,SMDPad,CuDef*%
G36*
G01*
X121485000Y-84485000D02*
X121485000Y-85810000D01*
G75*
G02*
X121410000Y-85885000I-75000J0D01*
G01*
X121260000Y-85885000D01*
G75*
G02*
X121185000Y-85810000I0J75000D01*
G01*
X121185000Y-84485000D01*
G75*
G02*
X121260000Y-84410000I75000J0D01*
G01*
X121410000Y-84410000D01*
G75*
G02*
X121485000Y-84485000I0J-75000D01*
G01*
G37*
%TD.AperFunction*%
%TO.P,U2,46*%
%TO.N,Net-(U2-Pad46)*%
%TA.AperFunction,SMDPad,CuDef*%
G36*
G01*
X120985000Y-84485000D02*
X120985000Y-85810000D01*
G75*
G02*
X120910000Y-85885000I-75000J0D01*
G01*
X120760000Y-85885000D01*
G75*
G02*
X120685000Y-85810000I0J75000D01*
G01*
X120685000Y-84485000D01*
G75*
G02*
X120760000Y-84410000I75000J0D01*
G01*
X120910000Y-84410000D01*
G75*
G02*
X120985000Y-84485000I0J-75000D01*
G01*
G37*
%TD.AperFunction*%
%TO.P,U2,45*%
%TO.N,Net-(U2-Pad45)*%
%TA.AperFunction,SMDPad,CuDef*%
G36*
G01*
X120485000Y-84485000D02*
X120485000Y-85810000D01*
G75*
G02*
X120410000Y-85885000I-75000J0D01*
G01*
X120260000Y-85885000D01*
G75*
G02*
X120185000Y-85810000I0J75000D01*
G01*
X120185000Y-84485000D01*
G75*
G02*
X120260000Y-84410000I75000J0D01*
G01*
X120410000Y-84410000D01*
G75*
G02*
X120485000Y-84485000I0J-75000D01*
G01*
G37*
%TD.AperFunction*%
%TO.P,U2,44*%
%TO.N,/BMP/BOOT_0*%
%TA.AperFunction,SMDPad,CuDef*%
G36*
G01*
X119985000Y-84485000D02*
X119985000Y-85810000D01*
G75*
G02*
X119910000Y-85885000I-75000J0D01*
G01*
X119760000Y-85885000D01*
G75*
G02*
X119685000Y-85810000I0J75000D01*
G01*
X119685000Y-84485000D01*
G75*
G02*
X119760000Y-84410000I75000J0D01*
G01*
X119910000Y-84410000D01*
G75*
G02*
X119985000Y-84485000I0J-75000D01*
G01*
G37*
%TD.AperFunction*%
%TO.P,U2,43*%
%TO.N,Net-(U2-Pad43)*%
%TA.AperFunction,SMDPad,CuDef*%
G36*
G01*
X119485000Y-84485000D02*
X119485000Y-85810000D01*
G75*
G02*
X119410000Y-85885000I-75000J0D01*
G01*
X119260000Y-85885000D01*
G75*
G02*
X119185000Y-85810000I0J75000D01*
G01*
X119185000Y-84485000D01*
G75*
G02*
X119260000Y-84410000I75000J0D01*
G01*
X119410000Y-84410000D01*
G75*
G02*
X119485000Y-84485000I0J-75000D01*
G01*
G37*
%TD.AperFunction*%
%TO.P,U2,42*%
%TO.N,Net-(U2-Pad42)*%
%TA.AperFunction,SMDPad,CuDef*%
G36*
G01*
X118985000Y-84485000D02*
X118985000Y-85810000D01*
G75*
G02*
X118910000Y-85885000I-75000J0D01*
G01*
X118760000Y-85885000D01*
G75*
G02*
X118685000Y-85810000I0J75000D01*
G01*
X118685000Y-84485000D01*
G75*
G02*
X118760000Y-84410000I75000J0D01*
G01*
X118910000Y-84410000D01*
G75*
G02*
X118985000Y-84485000I0J-75000D01*
G01*
G37*
%TD.AperFunction*%
%TO.P,U2,41*%
%TO.N,Net-(U2-Pad41)*%
%TA.AperFunction,SMDPad,CuDef*%
G36*
G01*
X118485000Y-84485000D02*
X118485000Y-85810000D01*
G75*
G02*
X118410000Y-85885000I-75000J0D01*
G01*
X118260000Y-85885000D01*
G75*
G02*
X118185000Y-85810000I0J75000D01*
G01*
X118185000Y-84485000D01*
G75*
G02*
X118260000Y-84410000I75000J0D01*
G01*
X118410000Y-84410000D01*
G75*
G02*
X118485000Y-84485000I0J-75000D01*
G01*
G37*
%TD.AperFunction*%
%TO.P,U2,40*%
%TO.N,Net-(U2-Pad40)*%
%TA.AperFunction,SMDPad,CuDef*%
G36*
G01*
X117985000Y-84485000D02*
X117985000Y-85810000D01*
G75*
G02*
X117910000Y-85885000I-75000J0D01*
G01*
X117760000Y-85885000D01*
G75*
G02*
X117685000Y-85810000I0J75000D01*
G01*
X117685000Y-84485000D01*
G75*
G02*
X117760000Y-84410000I75000J0D01*
G01*
X117910000Y-84410000D01*
G75*
G02*
X117985000Y-84485000I0J-75000D01*
G01*
G37*
%TD.AperFunction*%
%TO.P,U2,39*%
%TO.N,Net-(U2-Pad39)*%
%TA.AperFunction,SMDPad,CuDef*%
G36*
G01*
X117485000Y-84485000D02*
X117485000Y-85810000D01*
G75*
G02*
X117410000Y-85885000I-75000J0D01*
G01*
X117260000Y-85885000D01*
G75*
G02*
X117185000Y-85810000I0J75000D01*
G01*
X117185000Y-84485000D01*
G75*
G02*
X117260000Y-84410000I75000J0D01*
G01*
X117410000Y-84410000D01*
G75*
G02*
X117485000Y-84485000I0J-75000D01*
G01*
G37*
%TD.AperFunction*%
%TO.P,U2,38*%
%TO.N,Net-(U2-Pad38)*%
%TA.AperFunction,SMDPad,CuDef*%
G36*
G01*
X116985000Y-84485000D02*
X116985000Y-85810000D01*
G75*
G02*
X116910000Y-85885000I-75000J0D01*
G01*
X116760000Y-85885000D01*
G75*
G02*
X116685000Y-85810000I0J75000D01*
G01*
X116685000Y-84485000D01*
G75*
G02*
X116760000Y-84410000I75000J0D01*
G01*
X116910000Y-84410000D01*
G75*
G02*
X116985000Y-84485000I0J-75000D01*
G01*
G37*
%TD.AperFunction*%
%TO.P,U2,37*%
%TO.N,/BMP/SWDCLK*%
%TA.AperFunction,SMDPad,CuDef*%
G36*
G01*
X116485000Y-84485000D02*
X116485000Y-85810000D01*
G75*
G02*
X116410000Y-85885000I-75000J0D01*
G01*
X116260000Y-85885000D01*
G75*
G02*
X116185000Y-85810000I0J75000D01*
G01*
X116185000Y-84485000D01*
G75*
G02*
X116260000Y-84410000I75000J0D01*
G01*
X116410000Y-84410000D01*
G75*
G02*
X116485000Y-84485000I0J-75000D01*
G01*
G37*
%TD.AperFunction*%
%TO.P,U2,36*%
%TO.N,+3V3*%
%TA.AperFunction,SMDPad,CuDef*%
G36*
G01*
X115660000Y-83660000D02*
X115660000Y-83810000D01*
G75*
G02*
X115585000Y-83885000I-75000J0D01*
G01*
X114260000Y-83885000D01*
G75*
G02*
X114185000Y-83810000I0J75000D01*
G01*
X114185000Y-83660000D01*
G75*
G02*
X114260000Y-83585000I75000J0D01*
G01*
X115585000Y-83585000D01*
G75*
G02*
X115660000Y-83660000I0J-75000D01*
G01*
G37*
%TD.AperFunction*%
%TO.P,U2,35*%
%TO.N,GND*%
%TA.AperFunction,SMDPad,CuDef*%
G36*
G01*
X115660000Y-83160000D02*
X115660000Y-83310000D01*
G75*
G02*
X115585000Y-83385000I-75000J0D01*
G01*
X114260000Y-83385000D01*
G75*
G02*
X114185000Y-83310000I0J75000D01*
G01*
X114185000Y-83160000D01*
G75*
G02*
X114260000Y-83085000I75000J0D01*
G01*
X115585000Y-83085000D01*
G75*
G02*
X115660000Y-83160000I0J-75000D01*
G01*
G37*
%TD.AperFunction*%
%TO.P,U2,34*%
%TO.N,/BMP/SWDIO*%
%TA.AperFunction,SMDPad,CuDef*%
G36*
G01*
X115660000Y-82660000D02*
X115660000Y-82810000D01*
G75*
G02*
X115585000Y-82885000I-75000J0D01*
G01*
X114260000Y-82885000D01*
G75*
G02*
X114185000Y-82810000I0J75000D01*
G01*
X114185000Y-82660000D01*
G75*
G02*
X114260000Y-82585000I75000J0D01*
G01*
X115585000Y-82585000D01*
G75*
G02*
X115660000Y-82660000I0J-75000D01*
G01*
G37*
%TD.AperFunction*%
%TO.P,U2,33*%
%TO.N,/BMP/D+*%
%TA.AperFunction,SMDPad,CuDef*%
G36*
G01*
X115660000Y-82160000D02*
X115660000Y-82310000D01*
G75*
G02*
X115585000Y-82385000I-75000J0D01*
G01*
X114260000Y-82385000D01*
G75*
G02*
X114185000Y-82310000I0J75000D01*
G01*
X114185000Y-82160000D01*
G75*
G02*
X114260000Y-82085000I75000J0D01*
G01*
X115585000Y-82085000D01*
G75*
G02*
X115660000Y-82160000I0J-75000D01*
G01*
G37*
%TD.AperFunction*%
%TO.P,U2,32*%
%TO.N,/BMP/D-*%
%TA.AperFunction,SMDPad,CuDef*%
G36*
G01*
X115660000Y-81660000D02*
X115660000Y-81810000D01*
G75*
G02*
X115585000Y-81885000I-75000J0D01*
G01*
X114260000Y-81885000D01*
G75*
G02*
X114185000Y-81810000I0J75000D01*
G01*
X114185000Y-81660000D01*
G75*
G02*
X114260000Y-81585000I75000J0D01*
G01*
X115585000Y-81585000D01*
G75*
G02*
X115660000Y-81660000I0J-75000D01*
G01*
G37*
%TD.AperFunction*%
%TO.P,U2,31*%
%TO.N,/BMP-RX*%
%TA.AperFunction,SMDPad,CuDef*%
G36*
G01*
X115660000Y-81160000D02*
X115660000Y-81310000D01*
G75*
G02*
X115585000Y-81385000I-75000J0D01*
G01*
X114260000Y-81385000D01*
G75*
G02*
X114185000Y-81310000I0J75000D01*
G01*
X114185000Y-81160000D01*
G75*
G02*
X114260000Y-81085000I75000J0D01*
G01*
X115585000Y-81085000D01*
G75*
G02*
X115660000Y-81160000I0J-75000D01*
G01*
G37*
%TD.AperFunction*%
%TO.P,U2,30*%
%TO.N,/BMP-TX*%
%TA.AperFunction,SMDPad,CuDef*%
G36*
G01*
X115660000Y-80660000D02*
X115660000Y-80810000D01*
G75*
G02*
X115585000Y-80885000I-75000J0D01*
G01*
X114260000Y-80885000D01*
G75*
G02*
X114185000Y-80810000I0J75000D01*
G01*
X114185000Y-80660000D01*
G75*
G02*
X114260000Y-80585000I75000J0D01*
G01*
X115585000Y-80585000D01*
G75*
G02*
X115660000Y-80660000I0J-75000D01*
G01*
G37*
%TD.AperFunction*%
%TO.P,U2,29*%
%TO.N,Net-(R15-Pad2)*%
%TA.AperFunction,SMDPad,CuDef*%
G36*
G01*
X115660000Y-80160000D02*
X115660000Y-80310000D01*
G75*
G02*
X115585000Y-80385000I-75000J0D01*
G01*
X114260000Y-80385000D01*
G75*
G02*
X114185000Y-80310000I0J75000D01*
G01*
X114185000Y-80160000D01*
G75*
G02*
X114260000Y-80085000I75000J0D01*
G01*
X115585000Y-80085000D01*
G75*
G02*
X115660000Y-80160000I0J-75000D01*
G01*
G37*
%TD.AperFunction*%
%TO.P,U2,28*%
%TO.N,Net-(U2-Pad28)*%
%TA.AperFunction,SMDPad,CuDef*%
G36*
G01*
X115660000Y-79660000D02*
X115660000Y-79810000D01*
G75*
G02*
X115585000Y-79885000I-75000J0D01*
G01*
X114260000Y-79885000D01*
G75*
G02*
X114185000Y-79810000I0J75000D01*
G01*
X114185000Y-79660000D01*
G75*
G02*
X114260000Y-79585000I75000J0D01*
G01*
X115585000Y-79585000D01*
G75*
G02*
X115660000Y-79660000I0J-75000D01*
G01*
G37*
%TD.AperFunction*%
%TO.P,U2,27*%
%TO.N,Net-(U2-Pad27)*%
%TA.AperFunction,SMDPad,CuDef*%
G36*
G01*
X115660000Y-79160000D02*
X115660000Y-79310000D01*
G75*
G02*
X115585000Y-79385000I-75000J0D01*
G01*
X114260000Y-79385000D01*
G75*
G02*
X114185000Y-79310000I0J75000D01*
G01*
X114185000Y-79160000D01*
G75*
G02*
X114260000Y-79085000I75000J0D01*
G01*
X115585000Y-79085000D01*
G75*
G02*
X115660000Y-79160000I0J-75000D01*
G01*
G37*
%TD.AperFunction*%
%TO.P,U2,26*%
%TO.N,Net-(JP10-Pad1)*%
%TA.AperFunction,SMDPad,CuDef*%
G36*
G01*
X115660000Y-78660000D02*
X115660000Y-78810000D01*
G75*
G02*
X115585000Y-78885000I-75000J0D01*
G01*
X114260000Y-78885000D01*
G75*
G02*
X114185000Y-78810000I0J75000D01*
G01*
X114185000Y-78660000D01*
G75*
G02*
X114260000Y-78585000I75000J0D01*
G01*
X115585000Y-78585000D01*
G75*
G02*
X115660000Y-78660000I0J-75000D01*
G01*
G37*
%TD.AperFunction*%
%TO.P,U2,25*%
%TO.N,Net-(R14-Pad2)*%
%TA.AperFunction,SMDPad,CuDef*%
G36*
G01*
X115660000Y-78160000D02*
X115660000Y-78310000D01*
G75*
G02*
X115585000Y-78385000I-75000J0D01*
G01*
X114260000Y-78385000D01*
G75*
G02*
X114185000Y-78310000I0J75000D01*
G01*
X114185000Y-78160000D01*
G75*
G02*
X114260000Y-78085000I75000J0D01*
G01*
X115585000Y-78085000D01*
G75*
G02*
X115660000Y-78160000I0J-75000D01*
G01*
G37*
%TD.AperFunction*%
%TO.P,U2,24*%
%TO.N,+3V3*%
%TA.AperFunction,SMDPad,CuDef*%
G36*
G01*
X116485000Y-76160000D02*
X116485000Y-77485000D01*
G75*
G02*
X116410000Y-77560000I-75000J0D01*
G01*
X116260000Y-77560000D01*
G75*
G02*
X116185000Y-77485000I0J75000D01*
G01*
X116185000Y-76160000D01*
G75*
G02*
X116260000Y-76085000I75000J0D01*
G01*
X116410000Y-76085000D01*
G75*
G02*
X116485000Y-76160000I0J-75000D01*
G01*
G37*
%TD.AperFunction*%
%TO.P,U2,23*%
%TO.N,GND*%
%TA.AperFunction,SMDPad,CuDef*%
G36*
G01*
X116985000Y-76160000D02*
X116985000Y-77485000D01*
G75*
G02*
X116910000Y-77560000I-75000J0D01*
G01*
X116760000Y-77560000D01*
G75*
G02*
X116685000Y-77485000I0J75000D01*
G01*
X116685000Y-76160000D01*
G75*
G02*
X116760000Y-76085000I75000J0D01*
G01*
X116910000Y-76085000D01*
G75*
G02*
X116985000Y-76160000I0J-75000D01*
G01*
G37*
%TD.AperFunction*%
%TO.P,U2,22*%
%TO.N,/BMP/LED2*%
%TA.AperFunction,SMDPad,CuDef*%
G36*
G01*
X117485000Y-76160000D02*
X117485000Y-77485000D01*
G75*
G02*
X117410000Y-77560000I-75000J0D01*
G01*
X117260000Y-77560000D01*
G75*
G02*
X117185000Y-77485000I0J75000D01*
G01*
X117185000Y-76160000D01*
G75*
G02*
X117260000Y-76085000I75000J0D01*
G01*
X117410000Y-76085000D01*
G75*
G02*
X117485000Y-76160000I0J-75000D01*
G01*
G37*
%TD.AperFunction*%
%TO.P,U2,21*%
%TO.N,/BMP/LED1*%
%TA.AperFunction,SMDPad,CuDef*%
G36*
G01*
X117985000Y-76160000D02*
X117985000Y-77485000D01*
G75*
G02*
X117910000Y-77560000I-75000J0D01*
G01*
X117760000Y-77560000D01*
G75*
G02*
X117685000Y-77485000I0J75000D01*
G01*
X117685000Y-76160000D01*
G75*
G02*
X117760000Y-76085000I75000J0D01*
G01*
X117910000Y-76085000D01*
G75*
G02*
X117985000Y-76160000I0J-75000D01*
G01*
G37*
%TD.AperFunction*%
%TO.P,U2,20*%
%TO.N,/BMP/LED0*%
%TA.AperFunction,SMDPad,CuDef*%
G36*
G01*
X118485000Y-76160000D02*
X118485000Y-77485000D01*
G75*
G02*
X118410000Y-77560000I-75000J0D01*
G01*
X118260000Y-77560000D01*
G75*
G02*
X118185000Y-77485000I0J75000D01*
G01*
X118185000Y-76160000D01*
G75*
G02*
X118260000Y-76085000I75000J0D01*
G01*
X118410000Y-76085000D01*
G75*
G02*
X118485000Y-76160000I0J-75000D01*
G01*
G37*
%TD.AperFunction*%
%TO.P,U2,19*%
%TO.N,Net-(U2-Pad19)*%
%TA.AperFunction,SMDPad,CuDef*%
G36*
G01*
X118985000Y-76160000D02*
X118985000Y-77485000D01*
G75*
G02*
X118910000Y-77560000I-75000J0D01*
G01*
X118760000Y-77560000D01*
G75*
G02*
X118685000Y-77485000I0J75000D01*
G01*
X118685000Y-76160000D01*
G75*
G02*
X118760000Y-76085000I75000J0D01*
G01*
X118910000Y-76085000D01*
G75*
G02*
X118985000Y-76160000I0J-75000D01*
G01*
G37*
%TD.AperFunction*%
%TO.P,U2,18*%
%TO.N,Net-(U2-Pad18)*%
%TA.AperFunction,SMDPad,CuDef*%
G36*
G01*
X119485000Y-76160000D02*
X119485000Y-77485000D01*
G75*
G02*
X119410000Y-77560000I-75000J0D01*
G01*
X119260000Y-77560000D01*
G75*
G02*
X119185000Y-77485000I0J75000D01*
G01*
X119185000Y-76160000D01*
G75*
G02*
X119260000Y-76085000I75000J0D01*
G01*
X119410000Y-76085000D01*
G75*
G02*
X119485000Y-76160000I0J-75000D01*
G01*
G37*
%TD.AperFunction*%
%TO.P,U2,17*%
%TO.N,Net-(U2-Pad17)*%
%TA.AperFunction,SMDPad,CuDef*%
G36*
G01*
X119985000Y-76160000D02*
X119985000Y-77485000D01*
G75*
G02*
X119910000Y-77560000I-75000J0D01*
G01*
X119760000Y-77560000D01*
G75*
G02*
X119685000Y-77485000I0J75000D01*
G01*
X119685000Y-76160000D01*
G75*
G02*
X119760000Y-76085000I75000J0D01*
G01*
X119910000Y-76085000D01*
G75*
G02*
X119985000Y-76160000I0J-75000D01*
G01*
G37*
%TD.AperFunction*%
%TO.P,U2,16*%
%TO.N,Net-(U2-Pad16)*%
%TA.AperFunction,SMDPad,CuDef*%
G36*
G01*
X120485000Y-76160000D02*
X120485000Y-77485000D01*
G75*
G02*
X120410000Y-77560000I-75000J0D01*
G01*
X120260000Y-77560000D01*
G75*
G02*
X120185000Y-77485000I0J75000D01*
G01*
X120185000Y-76160000D01*
G75*
G02*
X120260000Y-76085000I75000J0D01*
G01*
X120410000Y-76085000D01*
G75*
G02*
X120485000Y-76160000I0J-75000D01*
G01*
G37*
%TD.AperFunction*%
%TO.P,U2,15*%
%TO.N,/BMP/SWDCLK_Target*%
%TA.AperFunction,SMDPad,CuDef*%
G36*
G01*
X120985000Y-76160000D02*
X120985000Y-77485000D01*
G75*
G02*
X120910000Y-77560000I-75000J0D01*
G01*
X120760000Y-77560000D01*
G75*
G02*
X120685000Y-77485000I0J75000D01*
G01*
X120685000Y-76160000D01*
G75*
G02*
X120760000Y-76085000I75000J0D01*
G01*
X120910000Y-76085000D01*
G75*
G02*
X120985000Y-76160000I0J-75000D01*
G01*
G37*
%TD.AperFunction*%
%TO.P,U2,14*%
%TO.N,/BMP/SWDIO_Target*%
%TA.AperFunction,SMDPad,CuDef*%
G36*
G01*
X121485000Y-76160000D02*
X121485000Y-77485000D01*
G75*
G02*
X121410000Y-77560000I-75000J0D01*
G01*
X121260000Y-77560000D01*
G75*
G02*
X121185000Y-77485000I0J75000D01*
G01*
X121185000Y-76160000D01*
G75*
G02*
X121260000Y-76085000I75000J0D01*
G01*
X121410000Y-76085000D01*
G75*
G02*
X121485000Y-76160000I0J-75000D01*
G01*
G37*
%TD.AperFunction*%
%TO.P,U2,13*%
%TO.N,Net-(U2-Pad13)*%
%TA.AperFunction,SMDPad,CuDef*%
G36*
G01*
X121985000Y-76160000D02*
X121985000Y-77485000D01*
G75*
G02*
X121910000Y-77560000I-75000J0D01*
G01*
X121760000Y-77560000D01*
G75*
G02*
X121685000Y-77485000I0J75000D01*
G01*
X121685000Y-76160000D01*
G75*
G02*
X121760000Y-76085000I75000J0D01*
G01*
X121910000Y-76085000D01*
G75*
G02*
X121985000Y-76160000I0J-75000D01*
G01*
G37*
%TD.AperFunction*%
%TO.P,U2,12*%
%TO.N,Net-(U2-Pad12)*%
%TA.AperFunction,SMDPad,CuDef*%
G36*
G01*
X123985000Y-78160000D02*
X123985000Y-78310000D01*
G75*
G02*
X123910000Y-78385000I-75000J0D01*
G01*
X122585000Y-78385000D01*
G75*
G02*
X122510000Y-78310000I0J75000D01*
G01*
X122510000Y-78160000D01*
G75*
G02*
X122585000Y-78085000I75000J0D01*
G01*
X123910000Y-78085000D01*
G75*
G02*
X123985000Y-78160000I0J-75000D01*
G01*
G37*
%TD.AperFunction*%
%TO.P,U2,11*%
%TO.N,Net-(U2-Pad11)*%
%TA.AperFunction,SMDPad,CuDef*%
G36*
G01*
X123985000Y-78660000D02*
X123985000Y-78810000D01*
G75*
G02*
X123910000Y-78885000I-75000J0D01*
G01*
X122585000Y-78885000D01*
G75*
G02*
X122510000Y-78810000I0J75000D01*
G01*
X122510000Y-78660000D01*
G75*
G02*
X122585000Y-78585000I75000J0D01*
G01*
X123910000Y-78585000D01*
G75*
G02*
X123985000Y-78660000I0J-75000D01*
G01*
G37*
%TD.AperFunction*%
%TO.P,U2,10*%
%TO.N,Net-(U2-Pad10)*%
%TA.AperFunction,SMDPad,CuDef*%
G36*
G01*
X123985000Y-79160000D02*
X123985000Y-79310000D01*
G75*
G02*
X123910000Y-79385000I-75000J0D01*
G01*
X122585000Y-79385000D01*
G75*
G02*
X122510000Y-79310000I0J75000D01*
G01*
X122510000Y-79160000D01*
G75*
G02*
X122585000Y-79085000I75000J0D01*
G01*
X123910000Y-79085000D01*
G75*
G02*
X123985000Y-79160000I0J-75000D01*
G01*
G37*
%TD.AperFunction*%
%TO.P,U2,9*%
%TO.N,+3V3*%
%TA.AperFunction,SMDPad,CuDef*%
G36*
G01*
X123985000Y-79660000D02*
X123985000Y-79810000D01*
G75*
G02*
X123910000Y-79885000I-75000J0D01*
G01*
X122585000Y-79885000D01*
G75*
G02*
X122510000Y-79810000I0J75000D01*
G01*
X122510000Y-79660000D01*
G75*
G02*
X122585000Y-79585000I75000J0D01*
G01*
X123910000Y-79585000D01*
G75*
G02*
X123985000Y-79660000I0J-75000D01*
G01*
G37*
%TD.AperFunction*%
%TO.P,U2,8*%
%TO.N,GND*%
%TA.AperFunction,SMDPad,CuDef*%
G36*
G01*
X123985000Y-80160000D02*
X123985000Y-80310000D01*
G75*
G02*
X123910000Y-80385000I-75000J0D01*
G01*
X122585000Y-80385000D01*
G75*
G02*
X122510000Y-80310000I0J75000D01*
G01*
X122510000Y-80160000D01*
G75*
G02*
X122585000Y-80085000I75000J0D01*
G01*
X123910000Y-80085000D01*
G75*
G02*
X123985000Y-80160000I0J-75000D01*
G01*
G37*
%TD.AperFunction*%
%TO.P,U2,7*%
%TO.N,Net-(C3-Pad1)*%
%TA.AperFunction,SMDPad,CuDef*%
G36*
G01*
X123985000Y-80660000D02*
X123985000Y-80810000D01*
G75*
G02*
X123910000Y-80885000I-75000J0D01*
G01*
X122585000Y-80885000D01*
G75*
G02*
X122510000Y-80810000I0J75000D01*
G01*
X122510000Y-80660000D01*
G75*
G02*
X122585000Y-80585000I75000J0D01*
G01*
X123910000Y-80585000D01*
G75*
G02*
X123985000Y-80660000I0J-75000D01*
G01*
G37*
%TD.AperFunction*%
%TO.P,U2,6*%
%TO.N,Net-(C5-Pad1)*%
%TA.AperFunction,SMDPad,CuDef*%
G36*
G01*
X123985000Y-81160000D02*
X123985000Y-81310000D01*
G75*
G02*
X123910000Y-81385000I-75000J0D01*
G01*
X122585000Y-81385000D01*
G75*
G02*
X122510000Y-81310000I0J75000D01*
G01*
X122510000Y-81160000D01*
G75*
G02*
X122585000Y-81085000I75000J0D01*
G01*
X123910000Y-81085000D01*
G75*
G02*
X123985000Y-81160000I0J-75000D01*
G01*
G37*
%TD.AperFunction*%
%TO.P,U2,5*%
%TO.N,Net-(C4-Pad1)*%
%TA.AperFunction,SMDPad,CuDef*%
G36*
G01*
X123985000Y-81660000D02*
X123985000Y-81810000D01*
G75*
G02*
X123910000Y-81885000I-75000J0D01*
G01*
X122585000Y-81885000D01*
G75*
G02*
X122510000Y-81810000I0J75000D01*
G01*
X122510000Y-81660000D01*
G75*
G02*
X122585000Y-81585000I75000J0D01*
G01*
X123910000Y-81585000D01*
G75*
G02*
X123985000Y-81660000I0J-75000D01*
G01*
G37*
%TD.AperFunction*%
%TO.P,U2,4*%
%TO.N,Net-(U2-Pad4)*%
%TA.AperFunction,SMDPad,CuDef*%
G36*
G01*
X123985000Y-82160000D02*
X123985000Y-82310000D01*
G75*
G02*
X123910000Y-82385000I-75000J0D01*
G01*
X122585000Y-82385000D01*
G75*
G02*
X122510000Y-82310000I0J75000D01*
G01*
X122510000Y-82160000D01*
G75*
G02*
X122585000Y-82085000I75000J0D01*
G01*
X123910000Y-82085000D01*
G75*
G02*
X123985000Y-82160000I0J-75000D01*
G01*
G37*
%TD.AperFunction*%
%TO.P,U2,3*%
%TO.N,Net-(U2-Pad3)*%
%TA.AperFunction,SMDPad,CuDef*%
G36*
G01*
X123985000Y-82660000D02*
X123985000Y-82810000D01*
G75*
G02*
X123910000Y-82885000I-75000J0D01*
G01*
X122585000Y-82885000D01*
G75*
G02*
X122510000Y-82810000I0J75000D01*
G01*
X122510000Y-82660000D01*
G75*
G02*
X122585000Y-82585000I75000J0D01*
G01*
X123910000Y-82585000D01*
G75*
G02*
X123985000Y-82660000I0J-75000D01*
G01*
G37*
%TD.AperFunction*%
%TO.P,U2,2*%
%TO.N,Net-(U2-Pad2)*%
%TA.AperFunction,SMDPad,CuDef*%
G36*
G01*
X123985000Y-83160000D02*
X123985000Y-83310000D01*
G75*
G02*
X123910000Y-83385000I-75000J0D01*
G01*
X122585000Y-83385000D01*
G75*
G02*
X122510000Y-83310000I0J75000D01*
G01*
X122510000Y-83160000D01*
G75*
G02*
X122585000Y-83085000I75000J0D01*
G01*
X123910000Y-83085000D01*
G75*
G02*
X123985000Y-83160000I0J-75000D01*
G01*
G37*
%TD.AperFunction*%
%TO.P,U2,1*%
%TO.N,+3V3*%
%TA.AperFunction,SMDPad,CuDef*%
G36*
G01*
X123985000Y-83660000D02*
X123985000Y-83810000D01*
G75*
G02*
X123910000Y-83885000I-75000J0D01*
G01*
X122585000Y-83885000D01*
G75*
G02*
X122510000Y-83810000I0J75000D01*
G01*
X122510000Y-83660000D01*
G75*
G02*
X122585000Y-83585000I75000J0D01*
G01*
X123910000Y-83585000D01*
G75*
G02*
X123985000Y-83660000I0J-75000D01*
G01*
G37*
%TD.AperFunction*%
%TD*%
%TO.P,R13,2*%
%TO.N,Net-(C3-Pad1)*%
%TA.AperFunction,SMDPad,CuDef*%
G36*
G01*
X124078750Y-72835000D02*
X124591250Y-72835000D01*
G75*
G02*
X124810000Y-73053750I0J-218750D01*
G01*
X124810000Y-73491250D01*
G75*
G02*
X124591250Y-73710000I-218750J0D01*
G01*
X124078750Y-73710000D01*
G75*
G02*
X123860000Y-73491250I0J218750D01*
G01*
X123860000Y-73053750D01*
G75*
G02*
X124078750Y-72835000I218750J0D01*
G01*
G37*
%TD.AperFunction*%
%TO.P,R13,1*%
%TO.N,+3V3*%
%TA.AperFunction,SMDPad,CuDef*%
G36*
G01*
X124078750Y-71260000D02*
X124591250Y-71260000D01*
G75*
G02*
X124810000Y-71478750I0J-218750D01*
G01*
X124810000Y-71916250D01*
G75*
G02*
X124591250Y-72135000I-218750J0D01*
G01*
X124078750Y-72135000D01*
G75*
G02*
X123860000Y-71916250I0J218750D01*
G01*
X123860000Y-71478750D01*
G75*
G02*
X124078750Y-71260000I218750J0D01*
G01*
G37*
%TD.AperFunction*%
%TD*%
%TO.P,JP11,1*%
%TO.N,+3V3*%
X129085000Y-92735000D03*
D10*
%TO.P,JP11,2*%
%TO.N,Net-(JP11-Pad2)*%
X126545000Y-92735000D03*
%TO.P,JP11,3*%
%TO.N,GND*%
X124005000Y-92735000D03*
%TD*%
%TO.P,C10,1*%
%TO.N,+3V3*%
%TA.AperFunction,SMDPad,CuDef*%
G36*
G01*
X115360000Y-73491250D02*
X115360000Y-72978750D01*
G75*
G02*
X115578750Y-72760000I218750J0D01*
G01*
X116016250Y-72760000D01*
G75*
G02*
X116235000Y-72978750I0J-218750D01*
G01*
X116235000Y-73491250D01*
G75*
G02*
X116016250Y-73710000I-218750J0D01*
G01*
X115578750Y-73710000D01*
G75*
G02*
X115360000Y-73491250I0J218750D01*
G01*
G37*
%TD.AperFunction*%
%TO.P,C10,2*%
%TO.N,GND*%
%TA.AperFunction,SMDPad,CuDef*%
G36*
G01*
X116935000Y-73491250D02*
X116935000Y-72978750D01*
G75*
G02*
X117153750Y-72760000I218750J0D01*
G01*
X117591250Y-72760000D01*
G75*
G02*
X117810000Y-72978750I0J-218750D01*
G01*
X117810000Y-73491250D01*
G75*
G02*
X117591250Y-73710000I-218750J0D01*
G01*
X117153750Y-73710000D01*
G75*
G02*
X116935000Y-73491250I0J218750D01*
G01*
G37*
%TD.AperFunction*%
%TD*%
%TO.P,C8,1*%
%TO.N,+3V3*%
%TA.AperFunction,SMDPad,CuDef*%
G36*
G01*
X122810000Y-86978750D02*
X122810000Y-87491250D01*
G75*
G02*
X122591250Y-87710000I-218750J0D01*
G01*
X122153750Y-87710000D01*
G75*
G02*
X121935000Y-87491250I0J218750D01*
G01*
X121935000Y-86978750D01*
G75*
G02*
X122153750Y-86760000I218750J0D01*
G01*
X122591250Y-86760000D01*
G75*
G02*
X122810000Y-86978750I0J-218750D01*
G01*
G37*
%TD.AperFunction*%
%TO.P,C8,2*%
%TO.N,GND*%
%TA.AperFunction,SMDPad,CuDef*%
G36*
G01*
X121235000Y-86978750D02*
X121235000Y-87491250D01*
G75*
G02*
X121016250Y-87710000I-218750J0D01*
G01*
X120578750Y-87710000D01*
G75*
G02*
X120360000Y-87491250I0J218750D01*
G01*
X120360000Y-86978750D01*
G75*
G02*
X120578750Y-86760000I218750J0D01*
G01*
X121016250Y-86760000D01*
G75*
G02*
X121235000Y-86978750I0J-218750D01*
G01*
G37*
%TD.AperFunction*%
%TD*%
%TO.P,C9,1*%
%TO.N,+3V3*%
%TA.AperFunction,SMDPad,CuDef*%
G36*
G01*
X125078750Y-78760000D02*
X125591250Y-78760000D01*
G75*
G02*
X125810000Y-78978750I0J-218750D01*
G01*
X125810000Y-79416250D01*
G75*
G02*
X125591250Y-79635000I-218750J0D01*
G01*
X125078750Y-79635000D01*
G75*
G02*
X124860000Y-79416250I0J218750D01*
G01*
X124860000Y-78978750D01*
G75*
G02*
X125078750Y-78760000I218750J0D01*
G01*
G37*
%TD.AperFunction*%
%TO.P,C9,2*%
%TO.N,GND*%
%TA.AperFunction,SMDPad,CuDef*%
G36*
G01*
X125078750Y-80335000D02*
X125591250Y-80335000D01*
G75*
G02*
X125810000Y-80553750I0J-218750D01*
G01*
X125810000Y-80991250D01*
G75*
G02*
X125591250Y-81210000I-218750J0D01*
G01*
X125078750Y-81210000D01*
G75*
G02*
X124860000Y-80991250I0J218750D01*
G01*
X124860000Y-80553750D01*
G75*
G02*
X125078750Y-80335000I218750J0D01*
G01*
G37*
%TD.AperFunction*%
%TD*%
%TO.P,C4,1*%
%TO.N,Net-(C4-Pad1)*%
%TA.AperFunction,SMDPad,CuDef*%
G36*
G01*
X129841250Y-87960000D02*
X129328750Y-87960000D01*
G75*
G02*
X129110000Y-87741250I0J218750D01*
G01*
X129110000Y-87303750D01*
G75*
G02*
X129328750Y-87085000I218750J0D01*
G01*
X129841250Y-87085000D01*
G75*
G02*
X130060000Y-87303750I0J-218750D01*
G01*
X130060000Y-87741250D01*
G75*
G02*
X129841250Y-87960000I-218750J0D01*
G01*
G37*
%TD.AperFunction*%
%TO.P,C4,2*%
%TO.N,GND*%
%TA.AperFunction,SMDPad,CuDef*%
G36*
G01*
X129841250Y-86385000D02*
X129328750Y-86385000D01*
G75*
G02*
X129110000Y-86166250I0J218750D01*
G01*
X129110000Y-85728750D01*
G75*
G02*
X129328750Y-85510000I218750J0D01*
G01*
X129841250Y-85510000D01*
G75*
G02*
X130060000Y-85728750I0J-218750D01*
G01*
X130060000Y-86166250D01*
G75*
G02*
X129841250Y-86385000I-218750J0D01*
G01*
G37*
%TD.AperFunction*%
%TD*%
%TO.P,C7,1*%
%TO.N,+3V3*%
%TA.AperFunction,SMDPad,CuDef*%
G36*
G01*
X115360000Y-74991250D02*
X115360000Y-74478750D01*
G75*
G02*
X115578750Y-74260000I218750J0D01*
G01*
X116016250Y-74260000D01*
G75*
G02*
X116235000Y-74478750I0J-218750D01*
G01*
X116235000Y-74991250D01*
G75*
G02*
X116016250Y-75210000I-218750J0D01*
G01*
X115578750Y-75210000D01*
G75*
G02*
X115360000Y-74991250I0J218750D01*
G01*
G37*
%TD.AperFunction*%
%TO.P,C7,2*%
%TO.N,GND*%
%TA.AperFunction,SMDPad,CuDef*%
G36*
G01*
X116935000Y-74991250D02*
X116935000Y-74478750D01*
G75*
G02*
X117153750Y-74260000I218750J0D01*
G01*
X117591250Y-74260000D01*
G75*
G02*
X117810000Y-74478750I0J-218750D01*
G01*
X117810000Y-74991250D01*
G75*
G02*
X117591250Y-75210000I-218750J0D01*
G01*
X117153750Y-75210000D01*
G75*
G02*
X116935000Y-74991250I0J218750D01*
G01*
G37*
%TD.AperFunction*%
%TD*%
%TO.P,C5,1*%
%TO.N,Net-(C5-Pad1)*%
%TA.AperFunction,SMDPad,CuDef*%
G36*
G01*
X129328750Y-82010000D02*
X129841250Y-82010000D01*
G75*
G02*
X130060000Y-82228750I0J-218750D01*
G01*
X130060000Y-82666250D01*
G75*
G02*
X129841250Y-82885000I-218750J0D01*
G01*
X129328750Y-82885000D01*
G75*
G02*
X129110000Y-82666250I0J218750D01*
G01*
X129110000Y-82228750D01*
G75*
G02*
X129328750Y-82010000I218750J0D01*
G01*
G37*
%TD.AperFunction*%
%TO.P,C5,2*%
%TO.N,GND*%
%TA.AperFunction,SMDPad,CuDef*%
G36*
G01*
X129328750Y-83585000D02*
X129841250Y-83585000D01*
G75*
G02*
X130060000Y-83803750I0J-218750D01*
G01*
X130060000Y-84241250D01*
G75*
G02*
X129841250Y-84460000I-218750J0D01*
G01*
X129328750Y-84460000D01*
G75*
G02*
X129110000Y-84241250I0J218750D01*
G01*
X129110000Y-83803750D01*
G75*
G02*
X129328750Y-83585000I218750J0D01*
G01*
G37*
%TD.AperFunction*%
%TD*%
%TO.P,C3,2*%
%TO.N,GND*%
%TA.AperFunction,SMDPad,CuDef*%
G36*
G01*
X126091250Y-72135000D02*
X125578750Y-72135000D01*
G75*
G02*
X125360000Y-71916250I0J218750D01*
G01*
X125360000Y-71478750D01*
G75*
G02*
X125578750Y-71260000I218750J0D01*
G01*
X126091250Y-71260000D01*
G75*
G02*
X126310000Y-71478750I0J-218750D01*
G01*
X126310000Y-71916250D01*
G75*
G02*
X126091250Y-72135000I-218750J0D01*
G01*
G37*
%TD.AperFunction*%
%TO.P,C3,1*%
%TO.N,Net-(C3-Pad1)*%
%TA.AperFunction,SMDPad,CuDef*%
G36*
G01*
X126091250Y-73710000D02*
X125578750Y-73710000D01*
G75*
G02*
X125360000Y-73491250I0J218750D01*
G01*
X125360000Y-73053750D01*
G75*
G02*
X125578750Y-72835000I218750J0D01*
G01*
X126091250Y-72835000D01*
G75*
G02*
X126310000Y-73053750I0J-218750D01*
G01*
X126310000Y-73491250D01*
G75*
G02*
X126091250Y-73710000I-218750J0D01*
G01*
G37*
%TD.AperFunction*%
%TD*%
%TO.P,R16,1*%
%TO.N,Net-(JP11-Pad2)*%
%TA.AperFunction,SMDPad,CuDef*%
G36*
G01*
X118841250Y-91497500D02*
X118328750Y-91497500D01*
G75*
G02*
X118110000Y-91278750I0J218750D01*
G01*
X118110000Y-90841250D01*
G75*
G02*
X118328750Y-90622500I218750J0D01*
G01*
X118841250Y-90622500D01*
G75*
G02*
X119060000Y-90841250I0J-218750D01*
G01*
X119060000Y-91278750D01*
G75*
G02*
X118841250Y-91497500I-218750J0D01*
G01*
G37*
%TD.AperFunction*%
%TO.P,R16,2*%
%TO.N,/BMP/BOOT_0*%
%TA.AperFunction,SMDPad,CuDef*%
G36*
G01*
X118841250Y-89922500D02*
X118328750Y-89922500D01*
G75*
G02*
X118110000Y-89703750I0J218750D01*
G01*
X118110000Y-89266250D01*
G75*
G02*
X118328750Y-89047500I218750J0D01*
G01*
X118841250Y-89047500D01*
G75*
G02*
X119060000Y-89266250I0J-218750D01*
G01*
X119060000Y-89703750D01*
G75*
G02*
X118841250Y-89922500I-218750J0D01*
G01*
G37*
%TD.AperFunction*%
%TD*%
D12*
%TO.P,SW1,2*%
%TO.N,Net-(C3-Pad1)*%
X127335000Y-68485000D03*
%TO.P,SW1,1*%
%TO.N,GND*%
X127335000Y-63985000D03*
%TO.P,SW1,2*%
%TO.N,Net-(C3-Pad1)*%
X133835000Y-68485000D03*
%TO.P,SW1,1*%
%TO.N,GND*%
X133835000Y-63985000D03*
%TD*%
D13*
%TO.P,Y1,1*%
%TO.N,Net-(C4-Pad1)*%
X126585000Y-86835000D03*
%TO.P,Y1,2*%
%TO.N,Net-(C5-Pad1)*%
X126585000Y-83135000D03*
%TD*%
%TO.P,C6,1*%
%TO.N,+3V3*%
%TA.AperFunction,SMDPad,CuDef*%
G36*
G01*
X113091250Y-85460000D02*
X112578750Y-85460000D01*
G75*
G02*
X112360000Y-85241250I0J218750D01*
G01*
X112360000Y-84803750D01*
G75*
G02*
X112578750Y-84585000I218750J0D01*
G01*
X113091250Y-84585000D01*
G75*
G02*
X113310000Y-84803750I0J-218750D01*
G01*
X113310000Y-85241250D01*
G75*
G02*
X113091250Y-85460000I-218750J0D01*
G01*
G37*
%TD.AperFunction*%
%TO.P,C6,2*%
%TO.N,GND*%
%TA.AperFunction,SMDPad,CuDef*%
G36*
G01*
X113091250Y-83885000D02*
X112578750Y-83885000D01*
G75*
G02*
X112360000Y-83666250I0J218750D01*
G01*
X112360000Y-83228750D01*
G75*
G02*
X112578750Y-83010000I218750J0D01*
G01*
X113091250Y-83010000D01*
G75*
G02*
X113310000Y-83228750I0J-218750D01*
G01*
X113310000Y-83666250D01*
G75*
G02*
X113091250Y-83885000I-218750J0D01*
G01*
G37*
%TD.AperFunction*%
%TD*%
%TO.P,FB1,2*%
%TO.N,VBUS*%
%TA.AperFunction,SMDPad,CuDef*%
G36*
G01*
X95635000Y-101278750D02*
X95635000Y-102191250D01*
G75*
G02*
X95391250Y-102435000I-243750J0D01*
G01*
X94903750Y-102435000D01*
G75*
G02*
X94660000Y-102191250I0J243750D01*
G01*
X94660000Y-101278750D01*
G75*
G02*
X94903750Y-101035000I243750J0D01*
G01*
X95391250Y-101035000D01*
G75*
G02*
X95635000Y-101278750I0J-243750D01*
G01*
G37*
%TD.AperFunction*%
%TO.P,FB1,1*%
%TO.N,Net-(C1-Pad1)*%
%TA.AperFunction,SMDPad,CuDef*%
G36*
G01*
X97510000Y-101278750D02*
X97510000Y-102191250D01*
G75*
G02*
X97266250Y-102435000I-243750J0D01*
G01*
X96778750Y-102435000D01*
G75*
G02*
X96535000Y-102191250I0J243750D01*
G01*
X96535000Y-101278750D01*
G75*
G02*
X96778750Y-101035000I243750J0D01*
G01*
X97266250Y-101035000D01*
G75*
G02*
X97510000Y-101278750I0J-243750D01*
G01*
G37*
%TD.AperFunction*%
%TD*%
%TO.P,U4,1*%
%TO.N,+3V3*%
%TA.AperFunction,SMDPad,CuDef*%
G36*
G01*
X168185000Y-78310000D02*
X168185000Y-78160000D01*
G75*
G02*
X168260000Y-78085000I75000J0D01*
G01*
X169585000Y-78085000D01*
G75*
G02*
X169660000Y-78160000I0J-75000D01*
G01*
X169660000Y-78310000D01*
G75*
G02*
X169585000Y-78385000I-75000J0D01*
G01*
X168260000Y-78385000D01*
G75*
G02*
X168185000Y-78310000I0J75000D01*
G01*
G37*
%TD.AperFunction*%
%TO.P,U4,2*%
%TO.N,Net-(R18-Pad1)*%
%TA.AperFunction,SMDPad,CuDef*%
G36*
G01*
X168185000Y-78810000D02*
X168185000Y-78660000D01*
G75*
G02*
X168260000Y-78585000I75000J0D01*
G01*
X169585000Y-78585000D01*
G75*
G02*
X169660000Y-78660000I0J-75000D01*
G01*
X169660000Y-78810000D01*
G75*
G02*
X169585000Y-78885000I-75000J0D01*
G01*
X168260000Y-78885000D01*
G75*
G02*
X168185000Y-78810000I0J75000D01*
G01*
G37*
%TD.AperFunction*%
%TO.P,U4,3*%
%TO.N,Net-(U4-Pad3)*%
%TA.AperFunction,SMDPad,CuDef*%
G36*
G01*
X168185000Y-79310000D02*
X168185000Y-79160000D01*
G75*
G02*
X168260000Y-79085000I75000J0D01*
G01*
X169585000Y-79085000D01*
G75*
G02*
X169660000Y-79160000I0J-75000D01*
G01*
X169660000Y-79310000D01*
G75*
G02*
X169585000Y-79385000I-75000J0D01*
G01*
X168260000Y-79385000D01*
G75*
G02*
X168185000Y-79310000I0J75000D01*
G01*
G37*
%TD.AperFunction*%
%TO.P,U4,4*%
%TO.N,Net-(U4-Pad4)*%
%TA.AperFunction,SMDPad,CuDef*%
G36*
G01*
X168185000Y-79810000D02*
X168185000Y-79660000D01*
G75*
G02*
X168260000Y-79585000I75000J0D01*
G01*
X169585000Y-79585000D01*
G75*
G02*
X169660000Y-79660000I0J-75000D01*
G01*
X169660000Y-79810000D01*
G75*
G02*
X169585000Y-79885000I-75000J0D01*
G01*
X168260000Y-79885000D01*
G75*
G02*
X168185000Y-79810000I0J75000D01*
G01*
G37*
%TD.AperFunction*%
%TO.P,U4,5*%
%TO.N,Net-(C12-Pad1)*%
%TA.AperFunction,SMDPad,CuDef*%
G36*
G01*
X168185000Y-80310000D02*
X168185000Y-80160000D01*
G75*
G02*
X168260000Y-80085000I75000J0D01*
G01*
X169585000Y-80085000D01*
G75*
G02*
X169660000Y-80160000I0J-75000D01*
G01*
X169660000Y-80310000D01*
G75*
G02*
X169585000Y-80385000I-75000J0D01*
G01*
X168260000Y-80385000D01*
G75*
G02*
X168185000Y-80310000I0J75000D01*
G01*
G37*
%TD.AperFunction*%
%TO.P,U4,6*%
%TO.N,Net-(C13-Pad1)*%
%TA.AperFunction,SMDPad,CuDef*%
G36*
G01*
X168185000Y-80810000D02*
X168185000Y-80660000D01*
G75*
G02*
X168260000Y-80585000I75000J0D01*
G01*
X169585000Y-80585000D01*
G75*
G02*
X169660000Y-80660000I0J-75000D01*
G01*
X169660000Y-80810000D01*
G75*
G02*
X169585000Y-80885000I-75000J0D01*
G01*
X168260000Y-80885000D01*
G75*
G02*
X168185000Y-80810000I0J75000D01*
G01*
G37*
%TD.AperFunction*%
%TO.P,U4,7*%
%TO.N,Net-(C11-Pad1)*%
%TA.AperFunction,SMDPad,CuDef*%
G36*
G01*
X168185000Y-81310000D02*
X168185000Y-81160000D01*
G75*
G02*
X168260000Y-81085000I75000J0D01*
G01*
X169585000Y-81085000D01*
G75*
G02*
X169660000Y-81160000I0J-75000D01*
G01*
X169660000Y-81310000D01*
G75*
G02*
X169585000Y-81385000I-75000J0D01*
G01*
X168260000Y-81385000D01*
G75*
G02*
X168185000Y-81310000I0J75000D01*
G01*
G37*
%TD.AperFunction*%
%TO.P,U4,8*%
%TO.N,GND*%
%TA.AperFunction,SMDPad,CuDef*%
G36*
G01*
X168185000Y-81810000D02*
X168185000Y-81660000D01*
G75*
G02*
X168260000Y-81585000I75000J0D01*
G01*
X169585000Y-81585000D01*
G75*
G02*
X169660000Y-81660000I0J-75000D01*
G01*
X169660000Y-81810000D01*
G75*
G02*
X169585000Y-81885000I-75000J0D01*
G01*
X168260000Y-81885000D01*
G75*
G02*
X168185000Y-81810000I0J75000D01*
G01*
G37*
%TD.AperFunction*%
%TO.P,U4,9*%
%TO.N,+3V3*%
%TA.AperFunction,SMDPad,CuDef*%
G36*
G01*
X168185000Y-82310000D02*
X168185000Y-82160000D01*
G75*
G02*
X168260000Y-82085000I75000J0D01*
G01*
X169585000Y-82085000D01*
G75*
G02*
X169660000Y-82160000I0J-75000D01*
G01*
X169660000Y-82310000D01*
G75*
G02*
X169585000Y-82385000I-75000J0D01*
G01*
X168260000Y-82385000D01*
G75*
G02*
X168185000Y-82310000I0J75000D01*
G01*
G37*
%TD.AperFunction*%
%TO.P,U4,10*%
%TO.N,Net-(U4-Pad10)*%
%TA.AperFunction,SMDPad,CuDef*%
G36*
G01*
X168185000Y-82810000D02*
X168185000Y-82660000D01*
G75*
G02*
X168260000Y-82585000I75000J0D01*
G01*
X169585000Y-82585000D01*
G75*
G02*
X169660000Y-82660000I0J-75000D01*
G01*
X169660000Y-82810000D01*
G75*
G02*
X169585000Y-82885000I-75000J0D01*
G01*
X168260000Y-82885000D01*
G75*
G02*
X168185000Y-82810000I0J75000D01*
G01*
G37*
%TD.AperFunction*%
%TO.P,U4,11*%
%TO.N,Net-(U4-Pad11)*%
%TA.AperFunction,SMDPad,CuDef*%
G36*
G01*
X168185000Y-83310000D02*
X168185000Y-83160000D01*
G75*
G02*
X168260000Y-83085000I75000J0D01*
G01*
X169585000Y-83085000D01*
G75*
G02*
X169660000Y-83160000I0J-75000D01*
G01*
X169660000Y-83310000D01*
G75*
G02*
X169585000Y-83385000I-75000J0D01*
G01*
X168260000Y-83385000D01*
G75*
G02*
X168185000Y-83310000I0J75000D01*
G01*
G37*
%TD.AperFunction*%
%TO.P,U4,12*%
%TO.N,Net-(U4-Pad12)*%
%TA.AperFunction,SMDPad,CuDef*%
G36*
G01*
X168185000Y-83810000D02*
X168185000Y-83660000D01*
G75*
G02*
X168260000Y-83585000I75000J0D01*
G01*
X169585000Y-83585000D01*
G75*
G02*
X169660000Y-83660000I0J-75000D01*
G01*
X169660000Y-83810000D01*
G75*
G02*
X169585000Y-83885000I-75000J0D01*
G01*
X168260000Y-83885000D01*
G75*
G02*
X168185000Y-83810000I0J75000D01*
G01*
G37*
%TD.AperFunction*%
%TO.P,U4,13*%
%TO.N,/MCU/PB2*%
%TA.AperFunction,SMDPad,CuDef*%
G36*
G01*
X170185000Y-85810000D02*
X170185000Y-84485000D01*
G75*
G02*
X170260000Y-84410000I75000J0D01*
G01*
X170410000Y-84410000D01*
G75*
G02*
X170485000Y-84485000I0J-75000D01*
G01*
X170485000Y-85810000D01*
G75*
G02*
X170410000Y-85885000I-75000J0D01*
G01*
X170260000Y-85885000D01*
G75*
G02*
X170185000Y-85810000I0J75000D01*
G01*
G37*
%TD.AperFunction*%
%TO.P,U4,14*%
%TO.N,/MCU/PB1*%
%TA.AperFunction,SMDPad,CuDef*%
G36*
G01*
X170685000Y-85810000D02*
X170685000Y-84485000D01*
G75*
G02*
X170760000Y-84410000I75000J0D01*
G01*
X170910000Y-84410000D01*
G75*
G02*
X170985000Y-84485000I0J-75000D01*
G01*
X170985000Y-85810000D01*
G75*
G02*
X170910000Y-85885000I-75000J0D01*
G01*
X170760000Y-85885000D01*
G75*
G02*
X170685000Y-85810000I0J75000D01*
G01*
G37*
%TD.AperFunction*%
%TO.P,U4,15*%
%TO.N,/MCU/PB0*%
%TA.AperFunction,SMDPad,CuDef*%
G36*
G01*
X171185000Y-85810000D02*
X171185000Y-84485000D01*
G75*
G02*
X171260000Y-84410000I75000J0D01*
G01*
X171410000Y-84410000D01*
G75*
G02*
X171485000Y-84485000I0J-75000D01*
G01*
X171485000Y-85810000D01*
G75*
G02*
X171410000Y-85885000I-75000J0D01*
G01*
X171260000Y-85885000D01*
G75*
G02*
X171185000Y-85810000I0J75000D01*
G01*
G37*
%TD.AperFunction*%
%TO.P,U4,16*%
%TO.N,/MCU/PB4*%
%TA.AperFunction,SMDPad,CuDef*%
G36*
G01*
X171685000Y-85810000D02*
X171685000Y-84485000D01*
G75*
G02*
X171760000Y-84410000I75000J0D01*
G01*
X171910000Y-84410000D01*
G75*
G02*
X171985000Y-84485000I0J-75000D01*
G01*
X171985000Y-85810000D01*
G75*
G02*
X171910000Y-85885000I-75000J0D01*
G01*
X171760000Y-85885000D01*
G75*
G02*
X171685000Y-85810000I0J75000D01*
G01*
G37*
%TD.AperFunction*%
%TO.P,U4,17*%
%TO.N,/MCU/PB3*%
%TA.AperFunction,SMDPad,CuDef*%
G36*
G01*
X172185000Y-85810000D02*
X172185000Y-84485000D01*
G75*
G02*
X172260000Y-84410000I75000J0D01*
G01*
X172410000Y-84410000D01*
G75*
G02*
X172485000Y-84485000I0J-75000D01*
G01*
X172485000Y-85810000D01*
G75*
G02*
X172410000Y-85885000I-75000J0D01*
G01*
X172260000Y-85885000D01*
G75*
G02*
X172185000Y-85810000I0J75000D01*
G01*
G37*
%TD.AperFunction*%
%TO.P,U4,18*%
%TO.N,Net-(U4-Pad18)*%
%TA.AperFunction,SMDPad,CuDef*%
G36*
G01*
X172685000Y-85810000D02*
X172685000Y-84485000D01*
G75*
G02*
X172760000Y-84410000I75000J0D01*
G01*
X172910000Y-84410000D01*
G75*
G02*
X172985000Y-84485000I0J-75000D01*
G01*
X172985000Y-85810000D01*
G75*
G02*
X172910000Y-85885000I-75000J0D01*
G01*
X172760000Y-85885000D01*
G75*
G02*
X172685000Y-85810000I0J75000D01*
G01*
G37*
%TD.AperFunction*%
%TO.P,U4,19*%
%TO.N,Net-(U4-Pad19)*%
%TA.AperFunction,SMDPad,CuDef*%
G36*
G01*
X173185000Y-85810000D02*
X173185000Y-84485000D01*
G75*
G02*
X173260000Y-84410000I75000J0D01*
G01*
X173410000Y-84410000D01*
G75*
G02*
X173485000Y-84485000I0J-75000D01*
G01*
X173485000Y-85810000D01*
G75*
G02*
X173410000Y-85885000I-75000J0D01*
G01*
X173260000Y-85885000D01*
G75*
G02*
X173185000Y-85810000I0J75000D01*
G01*
G37*
%TD.AperFunction*%
%TO.P,U4,20*%
%TO.N,Net-(U4-Pad20)*%
%TA.AperFunction,SMDPad,CuDef*%
G36*
G01*
X173685000Y-85810000D02*
X173685000Y-84485000D01*
G75*
G02*
X173760000Y-84410000I75000J0D01*
G01*
X173910000Y-84410000D01*
G75*
G02*
X173985000Y-84485000I0J-75000D01*
G01*
X173985000Y-85810000D01*
G75*
G02*
X173910000Y-85885000I-75000J0D01*
G01*
X173760000Y-85885000D01*
G75*
G02*
X173685000Y-85810000I0J75000D01*
G01*
G37*
%TD.AperFunction*%
%TO.P,U4,21*%
%TO.N,Net-(U4-Pad21)*%
%TA.AperFunction,SMDPad,CuDef*%
G36*
G01*
X174185000Y-85810000D02*
X174185000Y-84485000D01*
G75*
G02*
X174260000Y-84410000I75000J0D01*
G01*
X174410000Y-84410000D01*
G75*
G02*
X174485000Y-84485000I0J-75000D01*
G01*
X174485000Y-85810000D01*
G75*
G02*
X174410000Y-85885000I-75000J0D01*
G01*
X174260000Y-85885000D01*
G75*
G02*
X174185000Y-85810000I0J75000D01*
G01*
G37*
%TD.AperFunction*%
%TO.P,U4,22*%
%TO.N,Net-(U4-Pad22)*%
%TA.AperFunction,SMDPad,CuDef*%
G36*
G01*
X174685000Y-85810000D02*
X174685000Y-84485000D01*
G75*
G02*
X174760000Y-84410000I75000J0D01*
G01*
X174910000Y-84410000D01*
G75*
G02*
X174985000Y-84485000I0J-75000D01*
G01*
X174985000Y-85810000D01*
G75*
G02*
X174910000Y-85885000I-75000J0D01*
G01*
X174760000Y-85885000D01*
G75*
G02*
X174685000Y-85810000I0J75000D01*
G01*
G37*
%TD.AperFunction*%
%TO.P,U4,23*%
%TO.N,GND*%
%TA.AperFunction,SMDPad,CuDef*%
G36*
G01*
X175185000Y-85810000D02*
X175185000Y-84485000D01*
G75*
G02*
X175260000Y-84410000I75000J0D01*
G01*
X175410000Y-84410000D01*
G75*
G02*
X175485000Y-84485000I0J-75000D01*
G01*
X175485000Y-85810000D01*
G75*
G02*
X175410000Y-85885000I-75000J0D01*
G01*
X175260000Y-85885000D01*
G75*
G02*
X175185000Y-85810000I0J75000D01*
G01*
G37*
%TD.AperFunction*%
%TO.P,U4,24*%
%TO.N,+3V3*%
%TA.AperFunction,SMDPad,CuDef*%
G36*
G01*
X175685000Y-85810000D02*
X175685000Y-84485000D01*
G75*
G02*
X175760000Y-84410000I75000J0D01*
G01*
X175910000Y-84410000D01*
G75*
G02*
X175985000Y-84485000I0J-75000D01*
G01*
X175985000Y-85810000D01*
G75*
G02*
X175910000Y-85885000I-75000J0D01*
G01*
X175760000Y-85885000D01*
G75*
G02*
X175685000Y-85810000I0J75000D01*
G01*
G37*
%TD.AperFunction*%
%TO.P,U4,25*%
%TO.N,Net-(U4-Pad25)*%
%TA.AperFunction,SMDPad,CuDef*%
G36*
G01*
X176510000Y-83810000D02*
X176510000Y-83660000D01*
G75*
G02*
X176585000Y-83585000I75000J0D01*
G01*
X177910000Y-83585000D01*
G75*
G02*
X177985000Y-83660000I0J-75000D01*
G01*
X177985000Y-83810000D01*
G75*
G02*
X177910000Y-83885000I-75000J0D01*
G01*
X176585000Y-83885000D01*
G75*
G02*
X176510000Y-83810000I0J75000D01*
G01*
G37*
%TD.AperFunction*%
%TO.P,U4,26*%
%TO.N,Net-(U4-Pad26)*%
%TA.AperFunction,SMDPad,CuDef*%
G36*
G01*
X176510000Y-83310000D02*
X176510000Y-83160000D01*
G75*
G02*
X176585000Y-83085000I75000J0D01*
G01*
X177910000Y-83085000D01*
G75*
G02*
X177985000Y-83160000I0J-75000D01*
G01*
X177985000Y-83310000D01*
G75*
G02*
X177910000Y-83385000I-75000J0D01*
G01*
X176585000Y-83385000D01*
G75*
G02*
X176510000Y-83310000I0J75000D01*
G01*
G37*
%TD.AperFunction*%
%TO.P,U4,27*%
%TO.N,Net-(U4-Pad27)*%
%TA.AperFunction,SMDPad,CuDef*%
G36*
G01*
X176510000Y-82810000D02*
X176510000Y-82660000D01*
G75*
G02*
X176585000Y-82585000I75000J0D01*
G01*
X177910000Y-82585000D01*
G75*
G02*
X177985000Y-82660000I0J-75000D01*
G01*
X177985000Y-82810000D01*
G75*
G02*
X177910000Y-82885000I-75000J0D01*
G01*
X176585000Y-82885000D01*
G75*
G02*
X176510000Y-82810000I0J75000D01*
G01*
G37*
%TD.AperFunction*%
%TO.P,U4,28*%
%TO.N,Net-(U4-Pad28)*%
%TA.AperFunction,SMDPad,CuDef*%
G36*
G01*
X176510000Y-82310000D02*
X176510000Y-82160000D01*
G75*
G02*
X176585000Y-82085000I75000J0D01*
G01*
X177910000Y-82085000D01*
G75*
G02*
X177985000Y-82160000I0J-75000D01*
G01*
X177985000Y-82310000D01*
G75*
G02*
X177910000Y-82385000I-75000J0D01*
G01*
X176585000Y-82385000D01*
G75*
G02*
X176510000Y-82310000I0J75000D01*
G01*
G37*
%TD.AperFunction*%
%TO.P,U4,29*%
%TO.N,Net-(U4-Pad29)*%
%TA.AperFunction,SMDPad,CuDef*%
G36*
G01*
X176510000Y-81810000D02*
X176510000Y-81660000D01*
G75*
G02*
X176585000Y-81585000I75000J0D01*
G01*
X177910000Y-81585000D01*
G75*
G02*
X177985000Y-81660000I0J-75000D01*
G01*
X177985000Y-81810000D01*
G75*
G02*
X177910000Y-81885000I-75000J0D01*
G01*
X176585000Y-81885000D01*
G75*
G02*
X176510000Y-81810000I0J75000D01*
G01*
G37*
%TD.AperFunction*%
%TO.P,U4,30*%
%TO.N,/CPU-TX*%
%TA.AperFunction,SMDPad,CuDef*%
G36*
G01*
X176510000Y-81310000D02*
X176510000Y-81160000D01*
G75*
G02*
X176585000Y-81085000I75000J0D01*
G01*
X177910000Y-81085000D01*
G75*
G02*
X177985000Y-81160000I0J-75000D01*
G01*
X177985000Y-81310000D01*
G75*
G02*
X177910000Y-81385000I-75000J0D01*
G01*
X176585000Y-81385000D01*
G75*
G02*
X176510000Y-81310000I0J75000D01*
G01*
G37*
%TD.AperFunction*%
%TO.P,U4,31*%
%TO.N,/CPU-RX*%
%TA.AperFunction,SMDPad,CuDef*%
G36*
G01*
X176510000Y-80810000D02*
X176510000Y-80660000D01*
G75*
G02*
X176585000Y-80585000I75000J0D01*
G01*
X177910000Y-80585000D01*
G75*
G02*
X177985000Y-80660000I0J-75000D01*
G01*
X177985000Y-80810000D01*
G75*
G02*
X177910000Y-80885000I-75000J0D01*
G01*
X176585000Y-80885000D01*
G75*
G02*
X176510000Y-80810000I0J75000D01*
G01*
G37*
%TD.AperFunction*%
%TO.P,U4,32*%
%TO.N,Net-(U4-Pad32)*%
%TA.AperFunction,SMDPad,CuDef*%
G36*
G01*
X176510000Y-80310000D02*
X176510000Y-80160000D01*
G75*
G02*
X176585000Y-80085000I75000J0D01*
G01*
X177910000Y-80085000D01*
G75*
G02*
X177985000Y-80160000I0J-75000D01*
G01*
X177985000Y-80310000D01*
G75*
G02*
X177910000Y-80385000I-75000J0D01*
G01*
X176585000Y-80385000D01*
G75*
G02*
X176510000Y-80310000I0J75000D01*
G01*
G37*
%TD.AperFunction*%
%TO.P,U4,33*%
%TO.N,Net-(U4-Pad33)*%
%TA.AperFunction,SMDPad,CuDef*%
G36*
G01*
X176510000Y-79810000D02*
X176510000Y-79660000D01*
G75*
G02*
X176585000Y-79585000I75000J0D01*
G01*
X177910000Y-79585000D01*
G75*
G02*
X177985000Y-79660000I0J-75000D01*
G01*
X177985000Y-79810000D01*
G75*
G02*
X177910000Y-79885000I-75000J0D01*
G01*
X176585000Y-79885000D01*
G75*
G02*
X176510000Y-79810000I0J75000D01*
G01*
G37*
%TD.AperFunction*%
%TO.P,U4,34*%
%TO.N,/MCU/SWDIO*%
%TA.AperFunction,SMDPad,CuDef*%
G36*
G01*
X176510000Y-79310000D02*
X176510000Y-79160000D01*
G75*
G02*
X176585000Y-79085000I75000J0D01*
G01*
X177910000Y-79085000D01*
G75*
G02*
X177985000Y-79160000I0J-75000D01*
G01*
X177985000Y-79310000D01*
G75*
G02*
X177910000Y-79385000I-75000J0D01*
G01*
X176585000Y-79385000D01*
G75*
G02*
X176510000Y-79310000I0J75000D01*
G01*
G37*
%TD.AperFunction*%
%TO.P,U4,35*%
%TO.N,GND*%
%TA.AperFunction,SMDPad,CuDef*%
G36*
G01*
X176510000Y-78810000D02*
X176510000Y-78660000D01*
G75*
G02*
X176585000Y-78585000I75000J0D01*
G01*
X177910000Y-78585000D01*
G75*
G02*
X177985000Y-78660000I0J-75000D01*
G01*
X177985000Y-78810000D01*
G75*
G02*
X177910000Y-78885000I-75000J0D01*
G01*
X176585000Y-78885000D01*
G75*
G02*
X176510000Y-78810000I0J75000D01*
G01*
G37*
%TD.AperFunction*%
%TO.P,U4,36*%
%TO.N,+3V3*%
%TA.AperFunction,SMDPad,CuDef*%
G36*
G01*
X176510000Y-78310000D02*
X176510000Y-78160000D01*
G75*
G02*
X176585000Y-78085000I75000J0D01*
G01*
X177910000Y-78085000D01*
G75*
G02*
X177985000Y-78160000I0J-75000D01*
G01*
X177985000Y-78310000D01*
G75*
G02*
X177910000Y-78385000I-75000J0D01*
G01*
X176585000Y-78385000D01*
G75*
G02*
X176510000Y-78310000I0J75000D01*
G01*
G37*
%TD.AperFunction*%
%TO.P,U4,37*%
%TO.N,/MCU/SWDCLK*%
%TA.AperFunction,SMDPad,CuDef*%
G36*
G01*
X175685000Y-77485000D02*
X175685000Y-76160000D01*
G75*
G02*
X175760000Y-76085000I75000J0D01*
G01*
X175910000Y-76085000D01*
G75*
G02*
X175985000Y-76160000I0J-75000D01*
G01*
X175985000Y-77485000D01*
G75*
G02*
X175910000Y-77560000I-75000J0D01*
G01*
X175760000Y-77560000D01*
G75*
G02*
X175685000Y-77485000I0J75000D01*
G01*
G37*
%TD.AperFunction*%
%TO.P,U4,38*%
%TO.N,Net-(U4-Pad38)*%
%TA.AperFunction,SMDPad,CuDef*%
G36*
G01*
X175185000Y-77485000D02*
X175185000Y-76160000D01*
G75*
G02*
X175260000Y-76085000I75000J0D01*
G01*
X175410000Y-76085000D01*
G75*
G02*
X175485000Y-76160000I0J-75000D01*
G01*
X175485000Y-77485000D01*
G75*
G02*
X175410000Y-77560000I-75000J0D01*
G01*
X175260000Y-77560000D01*
G75*
G02*
X175185000Y-77485000I0J75000D01*
G01*
G37*
%TD.AperFunction*%
%TO.P,U4,39*%
%TO.N,Net-(U4-Pad39)*%
%TA.AperFunction,SMDPad,CuDef*%
G36*
G01*
X174685000Y-77485000D02*
X174685000Y-76160000D01*
G75*
G02*
X174760000Y-76085000I75000J0D01*
G01*
X174910000Y-76085000D01*
G75*
G02*
X174985000Y-76160000I0J-75000D01*
G01*
X174985000Y-77485000D01*
G75*
G02*
X174910000Y-77560000I-75000J0D01*
G01*
X174760000Y-77560000D01*
G75*
G02*
X174685000Y-77485000I0J75000D01*
G01*
G37*
%TD.AperFunction*%
%TO.P,U4,40*%
%TO.N,Net-(U4-Pad40)*%
%TA.AperFunction,SMDPad,CuDef*%
G36*
G01*
X174185000Y-77485000D02*
X174185000Y-76160000D01*
G75*
G02*
X174260000Y-76085000I75000J0D01*
G01*
X174410000Y-76085000D01*
G75*
G02*
X174485000Y-76160000I0J-75000D01*
G01*
X174485000Y-77485000D01*
G75*
G02*
X174410000Y-77560000I-75000J0D01*
G01*
X174260000Y-77560000D01*
G75*
G02*
X174185000Y-77485000I0J75000D01*
G01*
G37*
%TD.AperFunction*%
%TO.P,U4,41*%
%TO.N,Net-(U4-Pad41)*%
%TA.AperFunction,SMDPad,CuDef*%
G36*
G01*
X173685000Y-77485000D02*
X173685000Y-76160000D01*
G75*
G02*
X173760000Y-76085000I75000J0D01*
G01*
X173910000Y-76085000D01*
G75*
G02*
X173985000Y-76160000I0J-75000D01*
G01*
X173985000Y-77485000D01*
G75*
G02*
X173910000Y-77560000I-75000J0D01*
G01*
X173760000Y-77560000D01*
G75*
G02*
X173685000Y-77485000I0J75000D01*
G01*
G37*
%TD.AperFunction*%
%TO.P,U4,42*%
%TO.N,/MCU/SCK*%
%TA.AperFunction,SMDPad,CuDef*%
G36*
G01*
X173185000Y-77485000D02*
X173185000Y-76160000D01*
G75*
G02*
X173260000Y-76085000I75000J0D01*
G01*
X173410000Y-76085000D01*
G75*
G02*
X173485000Y-76160000I0J-75000D01*
G01*
X173485000Y-77485000D01*
G75*
G02*
X173410000Y-77560000I-75000J0D01*
G01*
X173260000Y-77560000D01*
G75*
G02*
X173185000Y-77485000I0J75000D01*
G01*
G37*
%TD.AperFunction*%
%TO.P,U4,43*%
%TO.N,/MCU/SDA*%
%TA.AperFunction,SMDPad,CuDef*%
G36*
G01*
X172685000Y-77485000D02*
X172685000Y-76160000D01*
G75*
G02*
X172760000Y-76085000I75000J0D01*
G01*
X172910000Y-76085000D01*
G75*
G02*
X172985000Y-76160000I0J-75000D01*
G01*
X172985000Y-77485000D01*
G75*
G02*
X172910000Y-77560000I-75000J0D01*
G01*
X172760000Y-77560000D01*
G75*
G02*
X172685000Y-77485000I0J75000D01*
G01*
G37*
%TD.AperFunction*%
%TO.P,U4,44*%
%TO.N,/MCU/BOOT_0*%
%TA.AperFunction,SMDPad,CuDef*%
G36*
G01*
X172185000Y-77485000D02*
X172185000Y-76160000D01*
G75*
G02*
X172260000Y-76085000I75000J0D01*
G01*
X172410000Y-76085000D01*
G75*
G02*
X172485000Y-76160000I0J-75000D01*
G01*
X172485000Y-77485000D01*
G75*
G02*
X172410000Y-77560000I-75000J0D01*
G01*
X172260000Y-77560000D01*
G75*
G02*
X172185000Y-77485000I0J75000D01*
G01*
G37*
%TD.AperFunction*%
%TO.P,U4,45*%
%TO.N,Net-(U4-Pad45)*%
%TA.AperFunction,SMDPad,CuDef*%
G36*
G01*
X171685000Y-77485000D02*
X171685000Y-76160000D01*
G75*
G02*
X171760000Y-76085000I75000J0D01*
G01*
X171910000Y-76085000D01*
G75*
G02*
X171985000Y-76160000I0J-75000D01*
G01*
X171985000Y-77485000D01*
G75*
G02*
X171910000Y-77560000I-75000J0D01*
G01*
X171760000Y-77560000D01*
G75*
G02*
X171685000Y-77485000I0J75000D01*
G01*
G37*
%TD.AperFunction*%
%TO.P,U4,46*%
%TO.N,Net-(U4-Pad46)*%
%TA.AperFunction,SMDPad,CuDef*%
G36*
G01*
X171185000Y-77485000D02*
X171185000Y-76160000D01*
G75*
G02*
X171260000Y-76085000I75000J0D01*
G01*
X171410000Y-76085000D01*
G75*
G02*
X171485000Y-76160000I0J-75000D01*
G01*
X171485000Y-77485000D01*
G75*
G02*
X171410000Y-77560000I-75000J0D01*
G01*
X171260000Y-77560000D01*
G75*
G02*
X171185000Y-77485000I0J75000D01*
G01*
G37*
%TD.AperFunction*%
%TO.P,U4,47*%
%TO.N,GND*%
%TA.AperFunction,SMDPad,CuDef*%
G36*
G01*
X170685000Y-77485000D02*
X170685000Y-76160000D01*
G75*
G02*
X170760000Y-76085000I75000J0D01*
G01*
X170910000Y-76085000D01*
G75*
G02*
X170985000Y-76160000I0J-75000D01*
G01*
X170985000Y-77485000D01*
G75*
G02*
X170910000Y-77560000I-75000J0D01*
G01*
X170760000Y-77560000D01*
G75*
G02*
X170685000Y-77485000I0J75000D01*
G01*
G37*
%TD.AperFunction*%
%TO.P,U4,48*%
%TO.N,+3V3*%
%TA.AperFunction,SMDPad,CuDef*%
G36*
G01*
X170185000Y-77485000D02*
X170185000Y-76160000D01*
G75*
G02*
X170260000Y-76085000I75000J0D01*
G01*
X170410000Y-76085000D01*
G75*
G02*
X170485000Y-76160000I0J-75000D01*
G01*
X170485000Y-77485000D01*
G75*
G02*
X170410000Y-77560000I-75000J0D01*
G01*
X170260000Y-77560000D01*
G75*
G02*
X170185000Y-77485000I0J75000D01*
G01*
G37*
%TD.AperFunction*%
%TD*%
D14*
%TO.P,J1,B1*%
%TO.N,GND*%
X96801000Y-85263000D03*
%TO.P,J1,A9*%
%TO.N,Net-(J1-PadA4)*%
X96801000Y-84463000D03*
%TO.P,J1,B9*%
X96801000Y-79563000D03*
%TO.P,J1,B12*%
%TO.N,GND*%
X96801000Y-78763000D03*
%TO.P,J1,A1*%
X96801000Y-78763000D03*
%TO.P,J1,A4*%
%TO.N,Net-(J1-PadA4)*%
X96801000Y-79563000D03*
%TO.P,J1,B4*%
X96801000Y-84463000D03*
%TO.P,J1,A12*%
%TO.N,GND*%
X96801000Y-85263000D03*
D15*
%TO.P,J1,B8*%
%TO.N,Net-(J1-PadB8)*%
X96801000Y-80263000D03*
%TO.P,J1,A5*%
%TO.N,Net-(J1-PadA5)*%
X96801000Y-80763000D03*
%TO.P,J1,B7*%
%TO.N,/D-*%
X96801000Y-81263000D03*
%TO.P,J1,A7*%
X96801000Y-82263000D03*
%TO.P,J1,B6*%
%TO.N,/D+*%
X96801000Y-82763000D03*
%TO.P,J1,A8*%
%TO.N,Net-(J1-PadA8)*%
X96801000Y-83263000D03*
%TO.P,J1,B5*%
%TO.N,Net-(J1-PadB5)*%
X96801000Y-83763000D03*
%TO.P,J1,A6*%
%TO.N,/D+*%
X96801000Y-81763000D03*
D16*
%TO.P,J1,S1*%
%TO.N,Net-(J1-PadS1)*%
X95886000Y-86333000D03*
X95886000Y-77693000D03*
D17*
X91706000Y-77693000D03*
X91706000Y-86333000D03*
%TD*%
%TO.P,R15,2*%
%TO.N,Net-(R15-Pad2)*%
%TA.AperFunction,SMDPad,CuDef*%
G36*
G01*
X110591250Y-81422500D02*
X110078750Y-81422500D01*
G75*
G02*
X109860000Y-81203750I0J218750D01*
G01*
X109860000Y-80766250D01*
G75*
G02*
X110078750Y-80547500I218750J0D01*
G01*
X110591250Y-80547500D01*
G75*
G02*
X110810000Y-80766250I0J-218750D01*
G01*
X110810000Y-81203750D01*
G75*
G02*
X110591250Y-81422500I-218750J0D01*
G01*
G37*
%TD.AperFunction*%
%TO.P,R15,1*%
%TO.N,/BMP/D+*%
%TA.AperFunction,SMDPad,CuDef*%
G36*
G01*
X110591250Y-82997500D02*
X110078750Y-82997500D01*
G75*
G02*
X109860000Y-82778750I0J218750D01*
G01*
X109860000Y-82341250D01*
G75*
G02*
X110078750Y-82122500I218750J0D01*
G01*
X110591250Y-82122500D01*
G75*
G02*
X110810000Y-82341250I0J-218750D01*
G01*
X110810000Y-82778750D01*
G75*
G02*
X110591250Y-82997500I-218750J0D01*
G01*
G37*
%TD.AperFunction*%
%TD*%
%TO.P,C16,2*%
%TO.N,GND*%
%TA.AperFunction,SMDPad,CuDef*%
G36*
G01*
X179078750Y-78835000D02*
X179591250Y-78835000D01*
G75*
G02*
X179810000Y-79053750I0J-218750D01*
G01*
X179810000Y-79491250D01*
G75*
G02*
X179591250Y-79710000I-218750J0D01*
G01*
X179078750Y-79710000D01*
G75*
G02*
X178860000Y-79491250I0J218750D01*
G01*
X178860000Y-79053750D01*
G75*
G02*
X179078750Y-78835000I218750J0D01*
G01*
G37*
%TD.AperFunction*%
%TO.P,C16,1*%
%TO.N,+3V3*%
%TA.AperFunction,SMDPad,CuDef*%
G36*
G01*
X179078750Y-77260000D02*
X179591250Y-77260000D01*
G75*
G02*
X179810000Y-77478750I0J-218750D01*
G01*
X179810000Y-77916250D01*
G75*
G02*
X179591250Y-78135000I-218750J0D01*
G01*
X179078750Y-78135000D01*
G75*
G02*
X178860000Y-77916250I0J218750D01*
G01*
X178860000Y-77478750D01*
G75*
G02*
X179078750Y-77260000I218750J0D01*
G01*
G37*
%TD.AperFunction*%
%TD*%
D12*
%TO.P,SW7,1*%
%TO.N,GND*%
X162660000Y-113625000D03*
%TO.P,SW7,2*%
%TO.N,/MCU/PB1*%
X162660000Y-118125000D03*
%TO.P,SW7,1*%
%TO.N,GND*%
X156160000Y-113625000D03*
%TO.P,SW7,2*%
%TO.N,/MCU/PB1*%
X156160000Y-118125000D03*
%TD*%
%TO.P,SW6,1*%
%TO.N,GND*%
X151660000Y-124625000D03*
%TO.P,SW6,2*%
%TO.N,/MCU/PB2*%
X151660000Y-129125000D03*
%TO.P,SW6,1*%
%TO.N,GND*%
X145160000Y-124625000D03*
%TO.P,SW6,2*%
%TO.N,/MCU/PB2*%
X145160000Y-129125000D03*
%TD*%
%TO.P,SW4,1*%
%TO.N,GND*%
X173660000Y-124625000D03*
%TO.P,SW4,2*%
%TO.N,/MCU/PB3*%
X173660000Y-129125000D03*
%TO.P,SW4,1*%
%TO.N,GND*%
X167160000Y-124625000D03*
%TO.P,SW4,2*%
%TO.N,/MCU/PB3*%
X167160000Y-129125000D03*
%TD*%
%TO.P,SW3,1*%
%TO.N,GND*%
X162660000Y-135625000D03*
%TO.P,SW3,2*%
%TO.N,/MCU/PB4*%
X162660000Y-140125000D03*
%TO.P,SW3,1*%
%TO.N,GND*%
X156160000Y-135625000D03*
%TO.P,SW3,2*%
%TO.N,/MCU/PB4*%
X156160000Y-140125000D03*
%TD*%
D18*
%TO.P,FID3,*%
%TO.N,*%
X180835000Y-136235000D03*
%TD*%
%TO.P,FID2,*%
%TO.N,*%
X180835000Y-54235000D03*
%TD*%
%TO.P,FID1,*%
%TO.N,*%
X98835000Y-54235000D03*
%TD*%
D19*
%TO.P,U1,1*%
%TO.N,GND*%
X104385000Y-101757000D03*
%TO.P,U1,3*%
%TO.N,Net-(C1-Pad1)*%
X99785000Y-101757000D03*
%TO.P,U1,2*%
%TO.N,+3V3*%
X102085000Y-101757000D03*
D20*
X102085000Y-108057000D03*
%TD*%
D13*
%TO.P,Y2,2*%
%TO.N,Net-(C13-Pad1)*%
X165585000Y-78835000D03*
%TO.P,Y2,1*%
%TO.N,Net-(C12-Pad1)*%
X165585000Y-75135000D03*
%TD*%
D10*
%TO.P,U3,2*%
%TO.N,+3V3*%
X118565000Y-114195000D03*
D11*
%TO.P,U3,1*%
%TO.N,GND*%
X116025000Y-114195000D03*
D10*
%TO.P,U3,3*%
%TO.N,/MCU/SCK*%
X121105000Y-114195000D03*
%TO.P,U3,4*%
%TO.N,/MCU/SDA*%
X123645000Y-114195000D03*
%TD*%
D12*
%TO.P,SW5,1*%
%TO.N,GND*%
X158335000Y-97985000D03*
%TO.P,SW5,2*%
%TO.N,Net-(C11-Pad1)*%
X158335000Y-93485000D03*
%TO.P,SW5,1*%
%TO.N,GND*%
X164835000Y-97985000D03*
%TO.P,SW5,2*%
%TO.N,Net-(C11-Pad1)*%
X164835000Y-93485000D03*
%TD*%
%TO.P,SW8,1*%
%TO.N,GND*%
X162660000Y-124625000D03*
%TO.P,SW8,2*%
%TO.N,/MCU/PB0*%
X162660000Y-129125000D03*
%TO.P,SW8,1*%
%TO.N,GND*%
X156160000Y-124625000D03*
%TO.P,SW8,2*%
%TO.N,/MCU/PB0*%
X156160000Y-129125000D03*
%TD*%
%TO.P,SW2,1*%
%TO.N,GND*%
X110335000Y-63985000D03*
%TO.P,SW2,2*%
%TO.N,Net-(R14-Pad2)*%
X110335000Y-68485000D03*
%TO.P,SW2,1*%
%TO.N,GND*%
X103835000Y-63985000D03*
%TO.P,SW2,2*%
%TO.N,Net-(R14-Pad2)*%
X103835000Y-68485000D03*
%TD*%
%TO.P,R19,2*%
%TO.N,/MCU/BOOT_0*%
%TA.AperFunction,SMDPad,CuDef*%
G36*
G01*
X173328750Y-72047500D02*
X173841250Y-72047500D01*
G75*
G02*
X174060000Y-72266250I0J-218750D01*
G01*
X174060000Y-72703750D01*
G75*
G02*
X173841250Y-72922500I-218750J0D01*
G01*
X173328750Y-72922500D01*
G75*
G02*
X173110000Y-72703750I0J218750D01*
G01*
X173110000Y-72266250D01*
G75*
G02*
X173328750Y-72047500I218750J0D01*
G01*
G37*
%TD.AperFunction*%
%TO.P,R19,1*%
%TO.N,Net-(JP12-Pad2)*%
%TA.AperFunction,SMDPad,CuDef*%
G36*
G01*
X173328750Y-70472500D02*
X173841250Y-70472500D01*
G75*
G02*
X174060000Y-70691250I0J-218750D01*
G01*
X174060000Y-71128750D01*
G75*
G02*
X173841250Y-71347500I-218750J0D01*
G01*
X173328750Y-71347500D01*
G75*
G02*
X173110000Y-71128750I0J218750D01*
G01*
X173110000Y-70691250D01*
G75*
G02*
X173328750Y-70472500I218750J0D01*
G01*
G37*
%TD.AperFunction*%
%TD*%
%TO.P,R18,2*%
%TO.N,Net-(D9-Pad2)*%
%TA.AperFunction,SMDPad,CuDef*%
G36*
G01*
X165735000Y-70978750D02*
X165735000Y-71491250D01*
G75*
G02*
X165516250Y-71710000I-218750J0D01*
G01*
X165078750Y-71710000D01*
G75*
G02*
X164860000Y-71491250I0J218750D01*
G01*
X164860000Y-70978750D01*
G75*
G02*
X165078750Y-70760000I218750J0D01*
G01*
X165516250Y-70760000D01*
G75*
G02*
X165735000Y-70978750I0J-218750D01*
G01*
G37*
%TD.AperFunction*%
%TO.P,R18,1*%
%TO.N,Net-(R18-Pad1)*%
%TA.AperFunction,SMDPad,CuDef*%
G36*
G01*
X167310000Y-70978750D02*
X167310000Y-71491250D01*
G75*
G02*
X167091250Y-71710000I-218750J0D01*
G01*
X166653750Y-71710000D01*
G75*
G02*
X166435000Y-71491250I0J218750D01*
G01*
X166435000Y-70978750D01*
G75*
G02*
X166653750Y-70760000I218750J0D01*
G01*
X167091250Y-70760000D01*
G75*
G02*
X167310000Y-70978750I0J-218750D01*
G01*
G37*
%TD.AperFunction*%
%TD*%
%TO.P,R17,2*%
%TO.N,Net-(C11-Pad1)*%
%TA.AperFunction,SMDPad,CuDef*%
G36*
G01*
X169091250Y-88385000D02*
X168578750Y-88385000D01*
G75*
G02*
X168360000Y-88166250I0J218750D01*
G01*
X168360000Y-87728750D01*
G75*
G02*
X168578750Y-87510000I218750J0D01*
G01*
X169091250Y-87510000D01*
G75*
G02*
X169310000Y-87728750I0J-218750D01*
G01*
X169310000Y-88166250D01*
G75*
G02*
X169091250Y-88385000I-218750J0D01*
G01*
G37*
%TD.AperFunction*%
%TO.P,R17,1*%
%TO.N,+3V3*%
%TA.AperFunction,SMDPad,CuDef*%
G36*
G01*
X169091250Y-89960000D02*
X168578750Y-89960000D01*
G75*
G02*
X168360000Y-89741250I0J218750D01*
G01*
X168360000Y-89303750D01*
G75*
G02*
X168578750Y-89085000I218750J0D01*
G01*
X169091250Y-89085000D01*
G75*
G02*
X169310000Y-89303750I0J-218750D01*
G01*
X169310000Y-89741250D01*
G75*
G02*
X169091250Y-89960000I-218750J0D01*
G01*
G37*
%TD.AperFunction*%
%TD*%
%TO.P,R14,2*%
%TO.N,Net-(R14-Pad2)*%
%TA.AperFunction,SMDPad,CuDef*%
G36*
G01*
X109972500Y-77741250D02*
X109972500Y-77228750D01*
G75*
G02*
X110191250Y-77010000I218750J0D01*
G01*
X110628750Y-77010000D01*
G75*
G02*
X110847500Y-77228750I0J-218750D01*
G01*
X110847500Y-77741250D01*
G75*
G02*
X110628750Y-77960000I-218750J0D01*
G01*
X110191250Y-77960000D01*
G75*
G02*
X109972500Y-77741250I0J218750D01*
G01*
G37*
%TD.AperFunction*%
%TO.P,R14,1*%
%TO.N,+3V3*%
%TA.AperFunction,SMDPad,CuDef*%
G36*
G01*
X108397500Y-77741250D02*
X108397500Y-77228750D01*
G75*
G02*
X108616250Y-77010000I218750J0D01*
G01*
X109053750Y-77010000D01*
G75*
G02*
X109272500Y-77228750I0J-218750D01*
G01*
X109272500Y-77741250D01*
G75*
G02*
X109053750Y-77960000I-218750J0D01*
G01*
X108616250Y-77960000D01*
G75*
G02*
X108397500Y-77741250I0J218750D01*
G01*
G37*
%TD.AperFunction*%
%TD*%
%TO.P,R12,2*%
%TO.N,Net-(D8-Pad2)*%
%TA.AperFunction,SMDPad,CuDef*%
G36*
G01*
X118841250Y-65135000D02*
X118328750Y-65135000D01*
G75*
G02*
X118110000Y-64916250I0J218750D01*
G01*
X118110000Y-64478750D01*
G75*
G02*
X118328750Y-64260000I218750J0D01*
G01*
X118841250Y-64260000D01*
G75*
G02*
X119060000Y-64478750I0J-218750D01*
G01*
X119060000Y-64916250D01*
G75*
G02*
X118841250Y-65135000I-218750J0D01*
G01*
G37*
%TD.AperFunction*%
%TO.P,R12,1*%
%TO.N,/BMP/LED2*%
%TA.AperFunction,SMDPad,CuDef*%
G36*
G01*
X118841250Y-66710000D02*
X118328750Y-66710000D01*
G75*
G02*
X118110000Y-66491250I0J218750D01*
G01*
X118110000Y-66053750D01*
G75*
G02*
X118328750Y-65835000I218750J0D01*
G01*
X118841250Y-65835000D01*
G75*
G02*
X119060000Y-66053750I0J-218750D01*
G01*
X119060000Y-66491250D01*
G75*
G02*
X118841250Y-66710000I-218750J0D01*
G01*
G37*
%TD.AperFunction*%
%TD*%
%TO.P,R11,2*%
%TO.N,Net-(D7-Pad2)*%
%TA.AperFunction,SMDPad,CuDef*%
G36*
G01*
X120591250Y-65135000D02*
X120078750Y-65135000D01*
G75*
G02*
X119860000Y-64916250I0J218750D01*
G01*
X119860000Y-64478750D01*
G75*
G02*
X120078750Y-64260000I218750J0D01*
G01*
X120591250Y-64260000D01*
G75*
G02*
X120810000Y-64478750I0J-218750D01*
G01*
X120810000Y-64916250D01*
G75*
G02*
X120591250Y-65135000I-218750J0D01*
G01*
G37*
%TD.AperFunction*%
%TO.P,R11,1*%
%TO.N,/BMP/LED1*%
%TA.AperFunction,SMDPad,CuDef*%
G36*
G01*
X120591250Y-66710000D02*
X120078750Y-66710000D01*
G75*
G02*
X119860000Y-66491250I0J218750D01*
G01*
X119860000Y-66053750D01*
G75*
G02*
X120078750Y-65835000I218750J0D01*
G01*
X120591250Y-65835000D01*
G75*
G02*
X120810000Y-66053750I0J-218750D01*
G01*
X120810000Y-66491250D01*
G75*
G02*
X120591250Y-66710000I-218750J0D01*
G01*
G37*
%TD.AperFunction*%
%TD*%
%TO.P,R10,2*%
%TO.N,Net-(D6-Pad2)*%
%TA.AperFunction,SMDPad,CuDef*%
G36*
G01*
X122341250Y-65135000D02*
X121828750Y-65135000D01*
G75*
G02*
X121610000Y-64916250I0J218750D01*
G01*
X121610000Y-64478750D01*
G75*
G02*
X121828750Y-64260000I218750J0D01*
G01*
X122341250Y-64260000D01*
G75*
G02*
X122560000Y-64478750I0J-218750D01*
G01*
X122560000Y-64916250D01*
G75*
G02*
X122341250Y-65135000I-218750J0D01*
G01*
G37*
%TD.AperFunction*%
%TO.P,R10,1*%
%TO.N,/BMP/LED0*%
%TA.AperFunction,SMDPad,CuDef*%
G36*
G01*
X122341250Y-66710000D02*
X121828750Y-66710000D01*
G75*
G02*
X121610000Y-66491250I0J218750D01*
G01*
X121610000Y-66053750D01*
G75*
G02*
X121828750Y-65835000I218750J0D01*
G01*
X122341250Y-65835000D01*
G75*
G02*
X122560000Y-66053750I0J-218750D01*
G01*
X122560000Y-66491250D01*
G75*
G02*
X122341250Y-66710000I-218750J0D01*
G01*
G37*
%TD.AperFunction*%
%TD*%
%TO.P,R3,2*%
%TO.N,+3V3*%
%TA.AperFunction,SMDPad,CuDef*%
G36*
G01*
X97685000Y-71991250D02*
X97685000Y-71478750D01*
G75*
G02*
X97903750Y-71260000I218750J0D01*
G01*
X98341250Y-71260000D01*
G75*
G02*
X98560000Y-71478750I0J-218750D01*
G01*
X98560000Y-71991250D01*
G75*
G02*
X98341250Y-72210000I-218750J0D01*
G01*
X97903750Y-72210000D01*
G75*
G02*
X97685000Y-71991250I0J218750D01*
G01*
G37*
%TD.AperFunction*%
%TO.P,R3,1*%
%TO.N,Net-(D1-Pad2)*%
%TA.AperFunction,SMDPad,CuDef*%
G36*
G01*
X96110000Y-71991250D02*
X96110000Y-71478750D01*
G75*
G02*
X96328750Y-71260000I218750J0D01*
G01*
X96766250Y-71260000D01*
G75*
G02*
X96985000Y-71478750I0J-218750D01*
G01*
X96985000Y-71991250D01*
G75*
G02*
X96766250Y-72210000I-218750J0D01*
G01*
X96328750Y-72210000D01*
G75*
G02*
X96110000Y-71991250I0J218750D01*
G01*
G37*
%TD.AperFunction*%
%TD*%
%TO.P,R5,2*%
%TO.N,/BMP/D+*%
%TA.AperFunction,SMDPad,CuDef*%
G36*
G01*
X103185000Y-83241250D02*
X103185000Y-82728750D01*
G75*
G02*
X103403750Y-82510000I218750J0D01*
G01*
X103841250Y-82510000D01*
G75*
G02*
X104060000Y-82728750I0J-218750D01*
G01*
X104060000Y-83241250D01*
G75*
G02*
X103841250Y-83460000I-218750J0D01*
G01*
X103403750Y-83460000D01*
G75*
G02*
X103185000Y-83241250I0J218750D01*
G01*
G37*
%TD.AperFunction*%
%TO.P,R5,1*%
%TO.N,/D+*%
%TA.AperFunction,SMDPad,CuDef*%
G36*
G01*
X101610000Y-83241250D02*
X101610000Y-82728750D01*
G75*
G02*
X101828750Y-82510000I218750J0D01*
G01*
X102266250Y-82510000D01*
G75*
G02*
X102485000Y-82728750I0J-218750D01*
G01*
X102485000Y-83241250D01*
G75*
G02*
X102266250Y-83460000I-218750J0D01*
G01*
X101828750Y-83460000D01*
G75*
G02*
X101610000Y-83241250I0J218750D01*
G01*
G37*
%TD.AperFunction*%
%TD*%
%TO.P,R4,2*%
%TO.N,/D-*%
%TA.AperFunction,SMDPad,CuDef*%
G36*
G01*
X102485000Y-80978750D02*
X102485000Y-81491250D01*
G75*
G02*
X102266250Y-81710000I-218750J0D01*
G01*
X101828750Y-81710000D01*
G75*
G02*
X101610000Y-81491250I0J218750D01*
G01*
X101610000Y-80978750D01*
G75*
G02*
X101828750Y-80760000I218750J0D01*
G01*
X102266250Y-80760000D01*
G75*
G02*
X102485000Y-80978750I0J-218750D01*
G01*
G37*
%TD.AperFunction*%
%TO.P,R4,1*%
%TO.N,/BMP/D-*%
%TA.AperFunction,SMDPad,CuDef*%
G36*
G01*
X104060000Y-80978750D02*
X104060000Y-81491250D01*
G75*
G02*
X103841250Y-81710000I-218750J0D01*
G01*
X103403750Y-81710000D01*
G75*
G02*
X103185000Y-81491250I0J218750D01*
G01*
X103185000Y-80978750D01*
G75*
G02*
X103403750Y-80760000I218750J0D01*
G01*
X103841250Y-80760000D01*
G75*
G02*
X104060000Y-80978750I0J-218750D01*
G01*
G37*
%TD.AperFunction*%
%TD*%
%TO.P,R2,2*%
%TO.N,GND*%
%TA.AperFunction,SMDPad,CuDef*%
G36*
G01*
X103185000Y-84991250D02*
X103185000Y-84478750D01*
G75*
G02*
X103403750Y-84260000I218750J0D01*
G01*
X103841250Y-84260000D01*
G75*
G02*
X104060000Y-84478750I0J-218750D01*
G01*
X104060000Y-84991250D01*
G75*
G02*
X103841250Y-85210000I-218750J0D01*
G01*
X103403750Y-85210000D01*
G75*
G02*
X103185000Y-84991250I0J218750D01*
G01*
G37*
%TD.AperFunction*%
%TO.P,R2,1*%
%TO.N,Net-(J1-PadB5)*%
%TA.AperFunction,SMDPad,CuDef*%
G36*
G01*
X101610000Y-84991250D02*
X101610000Y-84478750D01*
G75*
G02*
X101828750Y-84260000I218750J0D01*
G01*
X102266250Y-84260000D01*
G75*
G02*
X102485000Y-84478750I0J-218750D01*
G01*
X102485000Y-84991250D01*
G75*
G02*
X102266250Y-85210000I-218750J0D01*
G01*
X101828750Y-85210000D01*
G75*
G02*
X101610000Y-84991250I0J218750D01*
G01*
G37*
%TD.AperFunction*%
%TD*%
%TO.P,R1,2*%
%TO.N,Net-(J1-PadA5)*%
%TA.AperFunction,SMDPad,CuDef*%
G36*
G01*
X102485000Y-79228750D02*
X102485000Y-79741250D01*
G75*
G02*
X102266250Y-79960000I-218750J0D01*
G01*
X101828750Y-79960000D01*
G75*
G02*
X101610000Y-79741250I0J218750D01*
G01*
X101610000Y-79228750D01*
G75*
G02*
X101828750Y-79010000I218750J0D01*
G01*
X102266250Y-79010000D01*
G75*
G02*
X102485000Y-79228750I0J-218750D01*
G01*
G37*
%TD.AperFunction*%
%TO.P,R1,1*%
%TO.N,GND*%
%TA.AperFunction,SMDPad,CuDef*%
G36*
G01*
X104060000Y-79228750D02*
X104060000Y-79741250D01*
G75*
G02*
X103841250Y-79960000I-218750J0D01*
G01*
X103403750Y-79960000D01*
G75*
G02*
X103185000Y-79741250I0J218750D01*
G01*
X103185000Y-79228750D01*
G75*
G02*
X103403750Y-79010000I218750J0D01*
G01*
X103841250Y-79010000D01*
G75*
G02*
X104060000Y-79228750I0J-218750D01*
G01*
G37*
%TD.AperFunction*%
%TD*%
D10*
%TO.P,JP12,3*%
%TO.N,GND*%
X176125000Y-66735000D03*
%TO.P,JP12,2*%
%TO.N,Net-(JP12-Pad2)*%
X173585000Y-66735000D03*
D11*
%TO.P,JP12,1*%
%TO.N,+3V3*%
X171045000Y-66735000D03*
%TD*%
D10*
%TO.P,JP10,2*%
%TO.N,VBUS*%
X100085000Y-93775000D03*
D11*
%TO.P,JP10,1*%
%TO.N,Net-(JP10-Pad1)*%
X100085000Y-91235000D03*
%TD*%
D10*
%TO.P,JP9,2*%
%TO.N,/MCU/SWDCLK*%
X147625000Y-73735000D03*
D11*
%TO.P,JP9,1*%
%TO.N,/BMP/SWDCLK_Target*%
X145085000Y-73735000D03*
%TD*%
D10*
%TO.P,JP8,2*%
%TO.N,/MCU/SWDIO*%
X147625000Y-77485000D03*
D11*
%TO.P,JP8,1*%
%TO.N,/BMP/SWDIO_Target*%
X145085000Y-77485000D03*
%TD*%
D10*
%TO.P,JP7,2*%
%TO.N,/CPU-RX*%
X147625000Y-82235000D03*
D11*
%TO.P,JP7,1*%
%TO.N,/BMP-TX*%
X145085000Y-82235000D03*
%TD*%
D10*
%TO.P,JP6,2*%
%TO.N,/CPU-TX*%
X147625000Y-85985000D03*
D11*
%TO.P,JP6,1*%
%TO.N,/BMP-RX*%
X145085000Y-85985000D03*
%TD*%
D10*
%TO.P,JP1,2*%
%TO.N,VBUS*%
X93085000Y-93775000D03*
D11*
%TO.P,JP1,1*%
%TO.N,Net-(J1-PadA4)*%
X93085000Y-91235000D03*
%TD*%
D10*
%TO.P,J3,4*%
%TO.N,GND*%
X145045000Y-68985000D03*
%TO.P,J3,3*%
%TO.N,/MCU/SWDIO*%
X147585000Y-68985000D03*
%TO.P,J3,2*%
%TO.N,/MCU/SWDCLK*%
X150125000Y-68985000D03*
D11*
%TO.P,J3,1*%
%TO.N,+3V3*%
X152665000Y-68985000D03*
%TD*%
D10*
%TO.P,J2,4*%
%TO.N,GND*%
X111085000Y-88695000D03*
%TO.P,J2,3*%
%TO.N,/BMP/SWDCLK*%
X111085000Y-91235000D03*
%TO.P,J2,2*%
%TO.N,/BMP/SWDIO*%
X111085000Y-93775000D03*
D11*
%TO.P,J2,1*%
%TO.N,+3V3*%
X111085000Y-96315000D03*
%TD*%
%TO.P,D9,2*%
%TO.N,Net-(D9-Pad2)*%
%TA.AperFunction,SMDPad,CuDef*%
G36*
G01*
X163035000Y-71447500D02*
X163035000Y-71022500D01*
G75*
G02*
X163247500Y-70810000I212500J0D01*
G01*
X164047500Y-70810000D01*
G75*
G02*
X164260000Y-71022500I0J-212500D01*
G01*
X164260000Y-71447500D01*
G75*
G02*
X164047500Y-71660000I-212500J0D01*
G01*
X163247500Y-71660000D01*
G75*
G02*
X163035000Y-71447500I0J212500D01*
G01*
G37*
%TD.AperFunction*%
%TO.P,D9,1*%
%TO.N,GND*%
%TA.AperFunction,SMDPad,CuDef*%
G36*
G01*
X161410000Y-71447500D02*
X161410000Y-71022500D01*
G75*
G02*
X161622500Y-70810000I212500J0D01*
G01*
X162422500Y-70810000D01*
G75*
G02*
X162635000Y-71022500I0J-212500D01*
G01*
X162635000Y-71447500D01*
G75*
G02*
X162422500Y-71660000I-212500J0D01*
G01*
X161622500Y-71660000D01*
G75*
G02*
X161410000Y-71447500I0J212500D01*
G01*
G37*
%TD.AperFunction*%
%TD*%
%TO.P,D8,2*%
%TO.N,Net-(D8-Pad2)*%
%TA.AperFunction,SMDPad,CuDef*%
G36*
G01*
X118372500Y-62185000D02*
X118797500Y-62185000D01*
G75*
G02*
X119010000Y-62397500I0J-212500D01*
G01*
X119010000Y-63197500D01*
G75*
G02*
X118797500Y-63410000I-212500J0D01*
G01*
X118372500Y-63410000D01*
G75*
G02*
X118160000Y-63197500I0J212500D01*
G01*
X118160000Y-62397500D01*
G75*
G02*
X118372500Y-62185000I212500J0D01*
G01*
G37*
%TD.AperFunction*%
%TO.P,D8,1*%
%TO.N,GND*%
%TA.AperFunction,SMDPad,CuDef*%
G36*
G01*
X118372500Y-60560000D02*
X118797500Y-60560000D01*
G75*
G02*
X119010000Y-60772500I0J-212500D01*
G01*
X119010000Y-61572500D01*
G75*
G02*
X118797500Y-61785000I-212500J0D01*
G01*
X118372500Y-61785000D01*
G75*
G02*
X118160000Y-61572500I0J212500D01*
G01*
X118160000Y-60772500D01*
G75*
G02*
X118372500Y-60560000I212500J0D01*
G01*
G37*
%TD.AperFunction*%
%TD*%
%TO.P,D7,2*%
%TO.N,Net-(D7-Pad2)*%
%TA.AperFunction,SMDPad,CuDef*%
G36*
G01*
X120122500Y-62185000D02*
X120547500Y-62185000D01*
G75*
G02*
X120760000Y-62397500I0J-212500D01*
G01*
X120760000Y-63197500D01*
G75*
G02*
X120547500Y-63410000I-212500J0D01*
G01*
X120122500Y-63410000D01*
G75*
G02*
X119910000Y-63197500I0J212500D01*
G01*
X119910000Y-62397500D01*
G75*
G02*
X120122500Y-62185000I212500J0D01*
G01*
G37*
%TD.AperFunction*%
%TO.P,D7,1*%
%TO.N,GND*%
%TA.AperFunction,SMDPad,CuDef*%
G36*
G01*
X120122500Y-60560000D02*
X120547500Y-60560000D01*
G75*
G02*
X120760000Y-60772500I0J-212500D01*
G01*
X120760000Y-61572500D01*
G75*
G02*
X120547500Y-61785000I-212500J0D01*
G01*
X120122500Y-61785000D01*
G75*
G02*
X119910000Y-61572500I0J212500D01*
G01*
X119910000Y-60772500D01*
G75*
G02*
X120122500Y-60560000I212500J0D01*
G01*
G37*
%TD.AperFunction*%
%TD*%
%TO.P,D6,2*%
%TO.N,Net-(D6-Pad2)*%
%TA.AperFunction,SMDPad,CuDef*%
G36*
G01*
X121872500Y-62185000D02*
X122297500Y-62185000D01*
G75*
G02*
X122510000Y-62397500I0J-212500D01*
G01*
X122510000Y-63197500D01*
G75*
G02*
X122297500Y-63410000I-212500J0D01*
G01*
X121872500Y-63410000D01*
G75*
G02*
X121660000Y-63197500I0J212500D01*
G01*
X121660000Y-62397500D01*
G75*
G02*
X121872500Y-62185000I212500J0D01*
G01*
G37*
%TD.AperFunction*%
%TO.P,D6,1*%
%TO.N,GND*%
%TA.AperFunction,SMDPad,CuDef*%
G36*
G01*
X121872500Y-60560000D02*
X122297500Y-60560000D01*
G75*
G02*
X122510000Y-60772500I0J-212500D01*
G01*
X122510000Y-61572500D01*
G75*
G02*
X122297500Y-61785000I-212500J0D01*
G01*
X121872500Y-61785000D01*
G75*
G02*
X121660000Y-61572500I0J212500D01*
G01*
X121660000Y-60772500D01*
G75*
G02*
X121872500Y-60560000I212500J0D01*
G01*
G37*
%TD.AperFunction*%
%TD*%
%TO.P,D1,2*%
%TO.N,Net-(D1-Pad2)*%
%TA.AperFunction,SMDPad,CuDef*%
G36*
G01*
X94285000Y-71947500D02*
X94285000Y-71522500D01*
G75*
G02*
X94497500Y-71310000I212500J0D01*
G01*
X95297500Y-71310000D01*
G75*
G02*
X95510000Y-71522500I0J-212500D01*
G01*
X95510000Y-71947500D01*
G75*
G02*
X95297500Y-72160000I-212500J0D01*
G01*
X94497500Y-72160000D01*
G75*
G02*
X94285000Y-71947500I0J212500D01*
G01*
G37*
%TD.AperFunction*%
%TO.P,D1,1*%
%TO.N,GND*%
%TA.AperFunction,SMDPad,CuDef*%
G36*
G01*
X92660000Y-71947500D02*
X92660000Y-71522500D01*
G75*
G02*
X92872500Y-71310000I212500J0D01*
G01*
X93672500Y-71310000D01*
G75*
G02*
X93885000Y-71522500I0J-212500D01*
G01*
X93885000Y-71947500D01*
G75*
G02*
X93672500Y-72160000I-212500J0D01*
G01*
X92872500Y-72160000D01*
G75*
G02*
X92660000Y-71947500I0J212500D01*
G01*
G37*
%TD.AperFunction*%
%TD*%
%TO.P,C18,2*%
%TO.N,GND*%
%TA.AperFunction,SMDPad,CuDef*%
G36*
G01*
X175235000Y-88478750D02*
X175235000Y-88991250D01*
G75*
G02*
X175016250Y-89210000I-218750J0D01*
G01*
X174578750Y-89210000D01*
G75*
G02*
X174360000Y-88991250I0J218750D01*
G01*
X174360000Y-88478750D01*
G75*
G02*
X174578750Y-88260000I218750J0D01*
G01*
X175016250Y-88260000D01*
G75*
G02*
X175235000Y-88478750I0J-218750D01*
G01*
G37*
%TD.AperFunction*%
%TO.P,C18,1*%
%TO.N,+3V3*%
%TA.AperFunction,SMDPad,CuDef*%
G36*
G01*
X176810000Y-88478750D02*
X176810000Y-88991250D01*
G75*
G02*
X176591250Y-89210000I-218750J0D01*
G01*
X176153750Y-89210000D01*
G75*
G02*
X175935000Y-88991250I0J218750D01*
G01*
X175935000Y-88478750D01*
G75*
G02*
X176153750Y-88260000I218750J0D01*
G01*
X176591250Y-88260000D01*
G75*
G02*
X176810000Y-88478750I0J-218750D01*
G01*
G37*
%TD.AperFunction*%
%TD*%
%TO.P,C17,2*%
%TO.N,GND*%
%TA.AperFunction,SMDPad,CuDef*%
G36*
G01*
X175235000Y-86978750D02*
X175235000Y-87491250D01*
G75*
G02*
X175016250Y-87710000I-218750J0D01*
G01*
X174578750Y-87710000D01*
G75*
G02*
X174360000Y-87491250I0J218750D01*
G01*
X174360000Y-86978750D01*
G75*
G02*
X174578750Y-86760000I218750J0D01*
G01*
X175016250Y-86760000D01*
G75*
G02*
X175235000Y-86978750I0J-218750D01*
G01*
G37*
%TD.AperFunction*%
%TO.P,C17,1*%
%TO.N,+3V3*%
%TA.AperFunction,SMDPad,CuDef*%
G36*
G01*
X176810000Y-86978750D02*
X176810000Y-87491250D01*
G75*
G02*
X176591250Y-87710000I-218750J0D01*
G01*
X176153750Y-87710000D01*
G75*
G02*
X175935000Y-87491250I0J218750D01*
G01*
X175935000Y-86978750D01*
G75*
G02*
X176153750Y-86760000I218750J0D01*
G01*
X176591250Y-86760000D01*
G75*
G02*
X176810000Y-86978750I0J-218750D01*
G01*
G37*
%TD.AperFunction*%
%TD*%
%TO.P,C15,2*%
%TO.N,GND*%
%TA.AperFunction,SMDPad,CuDef*%
G36*
G01*
X170935000Y-74991250D02*
X170935000Y-74478750D01*
G75*
G02*
X171153750Y-74260000I218750J0D01*
G01*
X171591250Y-74260000D01*
G75*
G02*
X171810000Y-74478750I0J-218750D01*
G01*
X171810000Y-74991250D01*
G75*
G02*
X171591250Y-75210000I-218750J0D01*
G01*
X171153750Y-75210000D01*
G75*
G02*
X170935000Y-74991250I0J218750D01*
G01*
G37*
%TD.AperFunction*%
%TO.P,C15,1*%
%TO.N,+3V3*%
%TA.AperFunction,SMDPad,CuDef*%
G36*
G01*
X169360000Y-74991250D02*
X169360000Y-74478750D01*
G75*
G02*
X169578750Y-74260000I218750J0D01*
G01*
X170016250Y-74260000D01*
G75*
G02*
X170235000Y-74478750I0J-218750D01*
G01*
X170235000Y-74991250D01*
G75*
G02*
X170016250Y-75210000I-218750J0D01*
G01*
X169578750Y-75210000D01*
G75*
G02*
X169360000Y-74991250I0J218750D01*
G01*
G37*
%TD.AperFunction*%
%TD*%
%TO.P,C14,2*%
%TO.N,GND*%
%TA.AperFunction,SMDPad,CuDef*%
G36*
G01*
X167091250Y-81635000D02*
X166578750Y-81635000D01*
G75*
G02*
X166360000Y-81416250I0J218750D01*
G01*
X166360000Y-80978750D01*
G75*
G02*
X166578750Y-80760000I218750J0D01*
G01*
X167091250Y-80760000D01*
G75*
G02*
X167310000Y-80978750I0J-218750D01*
G01*
X167310000Y-81416250D01*
G75*
G02*
X167091250Y-81635000I-218750J0D01*
G01*
G37*
%TD.AperFunction*%
%TO.P,C14,1*%
%TO.N,+3V3*%
%TA.AperFunction,SMDPad,CuDef*%
G36*
G01*
X167091250Y-83210000D02*
X166578750Y-83210000D01*
G75*
G02*
X166360000Y-82991250I0J218750D01*
G01*
X166360000Y-82553750D01*
G75*
G02*
X166578750Y-82335000I218750J0D01*
G01*
X167091250Y-82335000D01*
G75*
G02*
X167310000Y-82553750I0J-218750D01*
G01*
X167310000Y-82991250D01*
G75*
G02*
X167091250Y-83210000I-218750J0D01*
G01*
G37*
%TD.AperFunction*%
%TD*%
%TO.P,C13,2*%
%TO.N,GND*%
%TA.AperFunction,SMDPad,CuDef*%
G36*
G01*
X162841250Y-78385000D02*
X162328750Y-78385000D01*
G75*
G02*
X162110000Y-78166250I0J218750D01*
G01*
X162110000Y-77728750D01*
G75*
G02*
X162328750Y-77510000I218750J0D01*
G01*
X162841250Y-77510000D01*
G75*
G02*
X163060000Y-77728750I0J-218750D01*
G01*
X163060000Y-78166250D01*
G75*
G02*
X162841250Y-78385000I-218750J0D01*
G01*
G37*
%TD.AperFunction*%
%TO.P,C13,1*%
%TO.N,Net-(C13-Pad1)*%
%TA.AperFunction,SMDPad,CuDef*%
G36*
G01*
X162841250Y-79960000D02*
X162328750Y-79960000D01*
G75*
G02*
X162110000Y-79741250I0J218750D01*
G01*
X162110000Y-79303750D01*
G75*
G02*
X162328750Y-79085000I218750J0D01*
G01*
X162841250Y-79085000D01*
G75*
G02*
X163060000Y-79303750I0J-218750D01*
G01*
X163060000Y-79741250D01*
G75*
G02*
X162841250Y-79960000I-218750J0D01*
G01*
G37*
%TD.AperFunction*%
%TD*%
%TO.P,C12,2*%
%TO.N,GND*%
%TA.AperFunction,SMDPad,CuDef*%
G36*
G01*
X162328750Y-75585000D02*
X162841250Y-75585000D01*
G75*
G02*
X163060000Y-75803750I0J-218750D01*
G01*
X163060000Y-76241250D01*
G75*
G02*
X162841250Y-76460000I-218750J0D01*
G01*
X162328750Y-76460000D01*
G75*
G02*
X162110000Y-76241250I0J218750D01*
G01*
X162110000Y-75803750D01*
G75*
G02*
X162328750Y-75585000I218750J0D01*
G01*
G37*
%TD.AperFunction*%
%TO.P,C12,1*%
%TO.N,Net-(C12-Pad1)*%
%TA.AperFunction,SMDPad,CuDef*%
G36*
G01*
X162328750Y-74010000D02*
X162841250Y-74010000D01*
G75*
G02*
X163060000Y-74228750I0J-218750D01*
G01*
X163060000Y-74666250D01*
G75*
G02*
X162841250Y-74885000I-218750J0D01*
G01*
X162328750Y-74885000D01*
G75*
G02*
X162110000Y-74666250I0J218750D01*
G01*
X162110000Y-74228750D01*
G75*
G02*
X162328750Y-74010000I218750J0D01*
G01*
G37*
%TD.AperFunction*%
%TD*%
%TO.P,C11,2*%
%TO.N,GND*%
%TA.AperFunction,SMDPad,CuDef*%
G36*
G01*
X167078750Y-89085000D02*
X167591250Y-89085000D01*
G75*
G02*
X167810000Y-89303750I0J-218750D01*
G01*
X167810000Y-89741250D01*
G75*
G02*
X167591250Y-89960000I-218750J0D01*
G01*
X167078750Y-89960000D01*
G75*
G02*
X166860000Y-89741250I0J218750D01*
G01*
X166860000Y-89303750D01*
G75*
G02*
X167078750Y-89085000I218750J0D01*
G01*
G37*
%TD.AperFunction*%
%TO.P,C11,1*%
%TO.N,Net-(C11-Pad1)*%
%TA.AperFunction,SMDPad,CuDef*%
G36*
G01*
X167078750Y-87510000D02*
X167591250Y-87510000D01*
G75*
G02*
X167810000Y-87728750I0J-218750D01*
G01*
X167810000Y-88166250D01*
G75*
G02*
X167591250Y-88385000I-218750J0D01*
G01*
X167078750Y-88385000D01*
G75*
G02*
X166860000Y-88166250I0J218750D01*
G01*
X166860000Y-87728750D01*
G75*
G02*
X167078750Y-87510000I218750J0D01*
G01*
G37*
%TD.AperFunction*%
%TD*%
%TO.P,C2,2*%
%TO.N,GND*%
%TA.AperFunction,SMDPad,CuDef*%
G36*
G01*
X104435000Y-99829250D02*
X104435000Y-99316750D01*
G75*
G02*
X104653750Y-99098000I218750J0D01*
G01*
X105091250Y-99098000D01*
G75*
G02*
X105310000Y-99316750I0J-218750D01*
G01*
X105310000Y-99829250D01*
G75*
G02*
X105091250Y-100048000I-218750J0D01*
G01*
X104653750Y-100048000D01*
G75*
G02*
X104435000Y-99829250I0J218750D01*
G01*
G37*
%TD.AperFunction*%
%TO.P,C2,1*%
%TO.N,+3V3*%
%TA.AperFunction,SMDPad,CuDef*%
G36*
G01*
X102860000Y-99829250D02*
X102860000Y-99316750D01*
G75*
G02*
X103078750Y-99098000I218750J0D01*
G01*
X103516250Y-99098000D01*
G75*
G02*
X103735000Y-99316750I0J-218750D01*
G01*
X103735000Y-99829250D01*
G75*
G02*
X103516250Y-100048000I-218750J0D01*
G01*
X103078750Y-100048000D01*
G75*
G02*
X102860000Y-99829250I0J218750D01*
G01*
G37*
%TD.AperFunction*%
%TD*%
%TO.P,C1,2*%
%TO.N,GND*%
%TA.AperFunction,SMDPad,CuDef*%
G36*
G01*
X100435000Y-99829250D02*
X100435000Y-99316750D01*
G75*
G02*
X100653750Y-99098000I218750J0D01*
G01*
X101091250Y-99098000D01*
G75*
G02*
X101310000Y-99316750I0J-218750D01*
G01*
X101310000Y-99829250D01*
G75*
G02*
X101091250Y-100048000I-218750J0D01*
G01*
X100653750Y-100048000D01*
G75*
G02*
X100435000Y-99829250I0J218750D01*
G01*
G37*
%TD.AperFunction*%
%TO.P,C1,1*%
%TO.N,Net-(C1-Pad1)*%
%TA.AperFunction,SMDPad,CuDef*%
G36*
G01*
X98860000Y-99829250D02*
X98860000Y-99316750D01*
G75*
G02*
X99078750Y-99098000I218750J0D01*
G01*
X99516250Y-99098000D01*
G75*
G02*
X99735000Y-99316750I0J-218750D01*
G01*
X99735000Y-99829250D01*
G75*
G02*
X99516250Y-100048000I-218750J0D01*
G01*
X99078750Y-100048000D01*
G75*
G02*
X98860000Y-99829250I0J218750D01*
G01*
G37*
%TD.AperFunction*%
%TD*%
D21*
%TO.P,H4,1*%
%TO.N,GND*%
X186266891Y-138803109D03*
X184835000Y-138210000D03*
X183403109Y-138803109D03*
X182810000Y-140235000D03*
X183403109Y-141666891D03*
X184835000Y-142260000D03*
X186266891Y-141666891D03*
X186860000Y-140235000D03*
D22*
X184835000Y-140235000D03*
%TD*%
D21*
%TO.P,H3,1*%
%TO.N,GND*%
X186266891Y-48803109D03*
X184835000Y-48210000D03*
X183403109Y-48803109D03*
X182810000Y-50235000D03*
X183403109Y-51666891D03*
X184835000Y-52260000D03*
X186266891Y-51666891D03*
X186860000Y-50235000D03*
D22*
X184835000Y-50235000D03*
%TD*%
D21*
%TO.P,H2,1*%
%TO.N,GND*%
X96266891Y-138803109D03*
X94835000Y-138210000D03*
X93403109Y-138803109D03*
X92810000Y-140235000D03*
X93403109Y-141666891D03*
X94835000Y-142260000D03*
X96266891Y-141666891D03*
X96860000Y-140235000D03*
D22*
X94835000Y-140235000D03*
%TD*%
D21*
%TO.P,H1,1*%
%TO.N,GND*%
X96266891Y-48803109D03*
X94835000Y-48210000D03*
X93403109Y-48803109D03*
X92810000Y-50235000D03*
X93403109Y-51666891D03*
X94835000Y-52260000D03*
X96266891Y-51666891D03*
X96860000Y-50235000D03*
D22*
X94835000Y-50235000D03*
%TD*%
D23*
%TO.N,GND*%
X105835000Y-98485000D03*
X104835000Y-98485000D03*
X105835000Y-99485000D03*
X129585000Y-84985000D03*
X126335000Y-80735000D03*
X119835000Y-87235000D03*
X125835000Y-70735000D03*
X118335000Y-73235000D03*
%TO.N,+3V3*%
X114835000Y-73235000D03*
X114835000Y-74735000D03*
X124335000Y-70735000D03*
X123335000Y-87235000D03*
X125335000Y-78235000D03*
%TO.N,GND*%
X173835000Y-87235000D03*
X173835000Y-88735000D03*
X167335000Y-90485000D03*
X162585000Y-76985000D03*
X160585000Y-71235000D03*
X165835000Y-81235000D03*
X179335000Y-80235000D03*
X172335000Y-74735000D03*
X98585000Y-85235000D03*
X98585000Y-78735000D03*
X111835000Y-83485000D03*
X103585000Y-78485000D03*
X103585000Y-85735000D03*
X123085000Y-61235000D03*
X118335000Y-74735000D03*
X91585000Y-71735000D03*
X101835000Y-99485000D03*
X100835000Y-98485000D03*
X101835000Y-98485000D03*
X128835000Y-102485000D03*
%TO.N,+3V3*%
X177335000Y-87235000D03*
X177335000Y-88735000D03*
X168835000Y-90485000D03*
X179335000Y-76735000D03*
X168835000Y-74735000D03*
X166835000Y-83735000D03*
X112835000Y-85985000D03*
X107835000Y-77485000D03*
X99085000Y-71735000D03*
X102085000Y-103485000D03*
X102085000Y-104485000D03*
X102085000Y-105485000D03*
X102085000Y-106485000D03*
%TO.N,/BMP-RX*%
X117085000Y-81235000D03*
%TO.N,/BMP-TX*%
X116835000Y-79735000D03*
%TO.N,/BMP/LED2*%
X117085000Y-78235000D03*
X118585000Y-71485000D03*
%TO.N,/BMP/LED1*%
X118085000Y-78235000D03*
X120335000Y-71485000D03*
%TO.N,Net-(C3-Pad1)*%
X121585000Y-78485000D03*
X124335000Y-74235000D03*
%TO.N,/CPU-RX*%
X171585000Y-82235000D03*
%TO.N,/CPU-TX*%
X171585000Y-83235003D03*
%TO.N,/MCU/SWDIO*%
X171585000Y-79235000D03*
%TO.N,/MCU/SWDCLK*%
X175835000Y-73985000D03*
%TO.N,/MCU/SDA*%
X172585000Y-78235000D03*
%TO.N,/MCU/SCK*%
X173585000Y-78235000D03*
%TO.N,Net-(J1-PadA4)*%
X99335000Y-84485000D03*
X99335000Y-79485000D03*
%TO.N,Net-(JP10-Pad1)*%
X112585000Y-78735000D03*
%TD*%
D24*
%TO.N,GND*%
X104872500Y-99573000D02*
X104872500Y-98522500D01*
X104872500Y-98522500D02*
X104835000Y-98485000D01*
X105835000Y-99485000D02*
X105835000Y-98485000D01*
X104835000Y-98485000D02*
X105835000Y-98485000D01*
X104872500Y-99573000D02*
X105747000Y-99573000D01*
X105747000Y-99573000D02*
X105835000Y-99485000D01*
D25*
X125835000Y-71697500D02*
X125835000Y-70735000D01*
X129585000Y-84022500D02*
X129585000Y-84985000D01*
X125335000Y-80772500D02*
X126297500Y-80772500D01*
X126297500Y-80772500D02*
X126335000Y-80735000D01*
X120797500Y-87235000D02*
X119835000Y-87235000D01*
X124797500Y-80235000D02*
X125335000Y-80772500D01*
X123247500Y-80235000D02*
X124797500Y-80235000D01*
X116835000Y-76822500D02*
X116835000Y-75272500D01*
X116835000Y-75272500D02*
X117372500Y-74735000D01*
X117372500Y-73235000D02*
X118335000Y-73235000D01*
X121335000Y-86697500D02*
X120797500Y-87235000D01*
X121335000Y-85147500D02*
X121335000Y-86697500D01*
X117372500Y-74735000D02*
X117372500Y-73235000D01*
X129585000Y-85947500D02*
X129585000Y-84985000D01*
%TO.N,+3V3*%
X115797500Y-74735000D02*
X115797500Y-73235000D01*
X116335000Y-75272500D02*
X115797500Y-74735000D01*
X116335000Y-76822500D02*
X116335000Y-75272500D01*
X124335000Y-71697500D02*
X124335000Y-70735000D01*
X121835000Y-85147500D02*
X121835000Y-84235000D01*
X121835000Y-85147500D02*
X121835000Y-86697500D01*
X121835000Y-86697500D02*
X122372500Y-87235000D01*
X122372500Y-87235000D02*
X123335000Y-87235000D01*
X115797500Y-74735000D02*
X114835000Y-74735000D01*
X115797500Y-73235000D02*
X114835000Y-73235000D01*
X125335000Y-79197500D02*
X124797500Y-79735000D01*
X125335000Y-79197500D02*
X125335000Y-78235000D01*
X124797500Y-79735000D02*
X123247500Y-79735000D01*
X122335000Y-83735000D02*
X123247500Y-83735000D01*
X121835000Y-84235000D02*
X122335000Y-83735000D01*
%TO.N,Net-(C3-Pad1)*%
X125835000Y-73272500D02*
X124335000Y-73272500D01*
X133835000Y-68485000D02*
X127335000Y-68485000D01*
%TO.N,Net-(C4-Pad1)*%
X127272500Y-87522500D02*
X126585000Y-86835000D01*
X129585000Y-87522500D02*
X127272500Y-87522500D01*
X124835000Y-85085000D02*
X124835000Y-82516472D01*
X124053528Y-81735000D02*
X123247500Y-81735000D01*
X124835000Y-82516472D02*
X124053528Y-81735000D01*
X126585000Y-86835000D02*
X124835000Y-85085000D01*
%TO.N,Net-(C5-Pad1)*%
X127272500Y-82447500D02*
X126585000Y-83135000D01*
X129585000Y-82447500D02*
X127272500Y-82447500D01*
X126385000Y-83135000D02*
X124485000Y-81235000D01*
X124485000Y-81235000D02*
X123247500Y-81235000D01*
X126585000Y-83135000D02*
X126385000Y-83135000D01*
%TO.N,Net-(JP11-Pad2)*%
X118470000Y-91060000D02*
X118585000Y-91060000D01*
%TO.N,/BMP/BOOT_0*%
X118585000Y-89485000D02*
X118585000Y-87409038D01*
X119835000Y-86159038D02*
X119835000Y-85147500D01*
X118585000Y-87409038D02*
X119835000Y-86159038D01*
%TO.N,Net-(U2-Pad17)*%
X119835000Y-76822500D02*
X119837001Y-76820499D01*
%TO.N,GND*%
X175335000Y-86697500D02*
X174797500Y-87235000D01*
X175335000Y-85147500D02*
X175335000Y-86697500D01*
X174797500Y-87235000D02*
X174797500Y-88735000D01*
X174797500Y-87235000D02*
X173835000Y-87235000D01*
X174797500Y-88735000D02*
X173835000Y-88735000D01*
X167335000Y-89522500D02*
X167335000Y-90485000D01*
X162585000Y-77947500D02*
X162585000Y-76985000D01*
X162585000Y-76022500D02*
X162585000Y-76985000D01*
X162022500Y-71235000D02*
X160585000Y-71235000D01*
X167372500Y-81735000D02*
X166835000Y-81197500D01*
X168922500Y-81735000D02*
X167372500Y-81735000D01*
X166835000Y-81197500D02*
X165872500Y-81197500D01*
X165872500Y-81197500D02*
X165835000Y-81235000D01*
X178797500Y-78735000D02*
X179335000Y-79272500D01*
X177247500Y-78735000D02*
X178797500Y-78735000D01*
X179335000Y-79272500D02*
X179335000Y-80235000D01*
X170835000Y-75272500D02*
X171372500Y-74735000D01*
X170835000Y-76822500D02*
X170835000Y-75272500D01*
X171372500Y-74735000D02*
X172335000Y-74735000D01*
D24*
X96801000Y-78763000D02*
X98557000Y-78763000D01*
X98557000Y-78763000D02*
X98585000Y-78735000D01*
X98557000Y-85263000D02*
X98585000Y-85235000D01*
X96801000Y-85263000D02*
X98557000Y-85263000D01*
D25*
X113047500Y-83235000D02*
X112835000Y-83447500D01*
X114922500Y-83235000D02*
X113047500Y-83235000D01*
X112835000Y-83447500D02*
X111872500Y-83447500D01*
X111872500Y-83447500D02*
X111835000Y-83485000D01*
X103622500Y-79485000D02*
X103622500Y-78522500D01*
X103622500Y-78522500D02*
X103585000Y-78485000D01*
X103622500Y-84735000D02*
X103622500Y-85697500D01*
X103622500Y-85697500D02*
X103585000Y-85735000D01*
X118585000Y-61172500D02*
X122085000Y-61172500D01*
X122085000Y-61172500D02*
X123022500Y-61172500D01*
X123022500Y-61172500D02*
X123085000Y-61235000D01*
X117372500Y-74735000D02*
X118335000Y-74735000D01*
X93272500Y-71735000D02*
X91585000Y-71735000D01*
D24*
X104385000Y-100060500D02*
X104872500Y-99573000D01*
X104385000Y-101757000D02*
X104385000Y-100060500D01*
X100872500Y-99573000D02*
X101747000Y-99573000D01*
X101747000Y-99573000D02*
X101835000Y-99485000D01*
X100872500Y-99573000D02*
X100872500Y-98522500D01*
X100872500Y-98522500D02*
X100835000Y-98485000D01*
X101835000Y-99485000D02*
X101835000Y-98485000D01*
X100835000Y-98485000D02*
X101835000Y-98485000D01*
D25*
X128772500Y-102547500D02*
X128835000Y-102485000D01*
X128772500Y-102547500D02*
X128772500Y-105985000D01*
X128772500Y-98735000D02*
X128772500Y-102547500D01*
%TO.N,Net-(J1-PadA5)*%
X100769500Y-80763000D02*
X96801000Y-80763000D01*
X102047500Y-79485000D02*
X100769500Y-80763000D01*
%TO.N,/BMP/D+*%
X110660000Y-82235000D02*
X110335000Y-82560000D01*
X114922500Y-82235000D02*
X110660000Y-82235000D01*
X104047500Y-82560000D02*
X103622500Y-82985000D01*
X110335000Y-82560000D02*
X104047500Y-82560000D01*
%TO.N,/BMP/D-*%
X104124510Y-81749510D02*
X114907990Y-81749510D01*
X103622500Y-81235000D02*
X103622500Y-81247500D01*
X114907990Y-81749510D02*
X114922500Y-81735000D01*
X103622500Y-81247500D02*
X104124510Y-81749510D01*
%TO.N,Net-(J1-PadB5)*%
X96806001Y-83757999D02*
X96801000Y-83763000D01*
X101070499Y-83757999D02*
X96806001Y-83757999D01*
X102047500Y-84735000D02*
X101070499Y-83757999D01*
%TO.N,Net-(J1-PadS1)*%
X95886000Y-77693000D02*
X91706000Y-77693000D01*
X91706000Y-77693000D02*
X91706000Y-86333000D01*
X91706000Y-86333000D02*
X95886000Y-86333000D01*
%TO.N,+3V3*%
X175835000Y-86697500D02*
X176372500Y-87235000D01*
X175835000Y-85147500D02*
X175835000Y-86697500D01*
X176372500Y-87235000D02*
X176372500Y-88735000D01*
X176372500Y-87235000D02*
X177335000Y-87235000D01*
X176372500Y-88735000D02*
X177335000Y-88735000D01*
X168835000Y-89522500D02*
X168835000Y-90485000D01*
X167372500Y-82235000D02*
X168922500Y-82235000D01*
X166835000Y-82772500D02*
X167372500Y-82235000D01*
X178797500Y-78235000D02*
X179335000Y-77697500D01*
X177247500Y-78235000D02*
X178797500Y-78235000D01*
X179335000Y-77697500D02*
X179335000Y-76735000D01*
X170335000Y-75272500D02*
X169797500Y-74735000D01*
X170335000Y-76822500D02*
X170335000Y-75272500D01*
X169797500Y-74735000D02*
X168835000Y-74735000D01*
X170335000Y-76822500D02*
X170335000Y-77735000D01*
X169835000Y-78235000D02*
X168922500Y-78235000D01*
X170335000Y-77735000D02*
X169835000Y-78235000D01*
X166835000Y-82772500D02*
X166835000Y-83735000D01*
X114122500Y-83735000D02*
X112835000Y-85022500D01*
X114922500Y-83735000D02*
X114122500Y-83735000D01*
X112835000Y-85022500D02*
X112835000Y-85985000D01*
X108835000Y-77485000D02*
X107835000Y-77485000D01*
X98122500Y-71735000D02*
X99085000Y-71735000D01*
D24*
X102085000Y-100785500D02*
X103297500Y-99573000D01*
X102085000Y-101757000D02*
X102085000Y-100785500D01*
X102085000Y-103485000D02*
X102085000Y-101757000D01*
X102085000Y-104485000D02*
X102085000Y-103485000D01*
X102085000Y-105235000D02*
X102085000Y-105485000D01*
X102085000Y-105235000D02*
X102085000Y-104485000D01*
X102085000Y-106235000D02*
X102085000Y-106485000D01*
X102085000Y-106235000D02*
X102085000Y-105235000D01*
X102085000Y-108057000D02*
X102085000Y-106235000D01*
D25*
%TO.N,/BMP/SWDCLK*%
X116335000Y-85985000D02*
X116335000Y-85147500D01*
X111085000Y-91235000D02*
X116335000Y-85985000D01*
%TO.N,/BMP/SWDIO*%
X114945490Y-82757990D02*
X114922500Y-82735000D01*
X115751518Y-82757990D02*
X114945490Y-82757990D01*
X115987010Y-82993482D02*
X115751518Y-82757990D01*
X113228528Y-86735000D02*
X115987010Y-83976518D01*
X111085000Y-93775000D02*
X111085000Y-92976962D01*
X115987010Y-83976518D02*
X115987010Y-82993482D01*
X109907999Y-91799961D02*
X109907999Y-88130039D01*
X111085000Y-92976962D02*
X109907999Y-91799961D01*
X109907999Y-88130039D02*
X111303038Y-86735000D01*
X111303038Y-86735000D02*
X113228528Y-86735000D01*
%TO.N,/BMP-RX*%
X114922500Y-81235000D02*
X117085000Y-81235000D01*
%TO.N,/BMP-TX*%
X114922500Y-80735000D02*
X115835000Y-80735000D01*
X115835000Y-80735000D02*
X116835000Y-79735000D01*
%TO.N,/BMP/LED2*%
X117335000Y-76822500D02*
X117335000Y-77985000D01*
X117335000Y-77985000D02*
X117085000Y-78235000D01*
X118585000Y-69485000D02*
X118585000Y-66272500D01*
X118585000Y-69485000D02*
X118585000Y-71485000D01*
%TO.N,/BMP/LED1*%
X117835000Y-76822500D02*
X117835000Y-77985000D01*
X117835000Y-77985000D02*
X118085000Y-78235000D01*
X120335000Y-69485000D02*
X120335000Y-66272500D01*
X120335000Y-71485000D02*
X120335000Y-69485000D01*
%TO.N,/BMP/LED0*%
X122085000Y-70266472D02*
X122085000Y-66272500D01*
X122085000Y-72266472D02*
X122085000Y-70266472D01*
X118335000Y-76822500D02*
X118335000Y-76016472D01*
X118335000Y-76016472D02*
X122085000Y-72266472D01*
%TO.N,/BMP/SWDCLK_Target*%
X143857999Y-74962001D02*
X145085000Y-73735000D01*
X121715932Y-74962001D02*
X143857999Y-74962001D01*
X120835000Y-75842933D02*
X121715932Y-74962001D01*
X120835000Y-76822500D02*
X120835000Y-75842933D01*
%TO.N,/BMP/SWDIO_Target*%
X121562010Y-75757990D02*
X121312010Y-76007990D01*
X145085000Y-77485000D02*
X143357990Y-75757990D01*
X143357990Y-75757990D02*
X121562010Y-75757990D01*
X121335000Y-76485000D02*
X121335000Y-76822500D01*
X121312010Y-76462010D02*
X121335000Y-76485000D01*
X121312010Y-76007990D02*
X121312010Y-76462010D01*
%TO.N,Net-(C3-Pad1)*%
X121585000Y-79878528D02*
X121585000Y-78485000D01*
X123247500Y-80735000D02*
X122441472Y-80735000D01*
X122441472Y-80735000D02*
X121585000Y-79878528D01*
X124335000Y-73272500D02*
X124335000Y-74235000D01*
X127335000Y-71772500D02*
X125835000Y-73272500D01*
X127335000Y-68485000D02*
X127335000Y-71772500D01*
D24*
%TO.N,VBUS*%
X93085000Y-99672500D02*
X95147500Y-101735000D01*
X93085000Y-93775000D02*
X93085000Y-99672500D01*
D25*
X100085000Y-93775000D02*
X93085000Y-93775000D01*
%TO.N,Net-(C11-Pad1)*%
X158335000Y-93485000D02*
X164835000Y-93485000D01*
X164835000Y-90447500D02*
X167335000Y-87947500D01*
X164835000Y-93485000D02*
X164835000Y-90447500D01*
X167335000Y-87947500D02*
X168835000Y-87947500D01*
X169978528Y-81985000D02*
X169987010Y-81976518D01*
X169987010Y-81993482D02*
X169978528Y-81985000D01*
X169987010Y-81976518D02*
X169987010Y-81493482D01*
X169987010Y-82476518D02*
X169987010Y-81993482D01*
X169978528Y-82485000D02*
X169987010Y-82476518D01*
X169987010Y-82976518D02*
X169987010Y-82493482D01*
X169987010Y-82493482D02*
X169978528Y-82485000D01*
X169987010Y-82993482D02*
X169978528Y-82985000D01*
X169978528Y-83485000D02*
X169987010Y-83476518D01*
X169987010Y-83976518D02*
X169987010Y-83493482D01*
X169987010Y-83493482D02*
X169978528Y-83485000D01*
X169987010Y-83476518D02*
X169987010Y-82993482D01*
X169978528Y-82985000D02*
X169987010Y-82976518D01*
X169728528Y-81235000D02*
X169987010Y-81493482D01*
X168922500Y-81235000D02*
X169728528Y-81235000D01*
X168835000Y-85128528D02*
X169987010Y-83976518D01*
X168835000Y-87947500D02*
X168835000Y-85128528D01*
%TO.N,Net-(C12-Pad1)*%
X164897500Y-74447500D02*
X165585000Y-75135000D01*
X162585000Y-74447500D02*
X164897500Y-74447500D01*
X168116472Y-80235000D02*
X168922500Y-80235000D01*
X167335000Y-79453528D02*
X168116472Y-80235000D01*
X165585000Y-75135000D02*
X167335000Y-76885000D01*
X167335000Y-76885000D02*
X167335000Y-79453528D01*
%TO.N,Net-(C13-Pad1)*%
X164897500Y-79522500D02*
X165585000Y-78835000D01*
X162585000Y-79522500D02*
X164897500Y-79522500D01*
X167685000Y-80735000D02*
X168922500Y-80735000D01*
X165785000Y-78835000D02*
X167685000Y-80735000D01*
X165585000Y-78835000D02*
X165785000Y-78835000D01*
%TO.N,Net-(D1-Pad2)*%
X94897500Y-71735000D02*
X96835000Y-71735000D01*
X96835000Y-71735000D02*
X96547500Y-71735000D01*
%TO.N,Net-(D6-Pad2)*%
X122085000Y-62797500D02*
X122085000Y-64697500D01*
%TO.N,Net-(D7-Pad2)*%
X120335000Y-62797500D02*
X120335000Y-64697500D01*
%TO.N,Net-(D8-Pad2)*%
X118585000Y-62797500D02*
X118585000Y-64697500D01*
%TO.N,Net-(D9-Pad2)*%
X163647500Y-71235000D02*
X165297500Y-71235000D01*
%TO.N,/CPU-RX*%
X171585000Y-82235000D02*
X173585000Y-82235000D01*
X175085000Y-80735000D02*
X177247500Y-80735000D01*
X173585000Y-82235000D02*
X175085000Y-80735000D01*
%TO.N,/CPU-TX*%
X173227063Y-83235003D02*
X171585000Y-83235003D01*
X177247500Y-81235000D02*
X175227066Y-81235000D01*
X175227066Y-81235000D02*
X173227063Y-83235003D01*
%TO.N,/MCU/SWDIO*%
X177247500Y-79235000D02*
X171585000Y-79235000D01*
%TO.N,/MCU/SWDCLK*%
X175835000Y-76822500D02*
X175835000Y-73985000D01*
%TO.N,Net-(JP11-Pad2)*%
X124870000Y-91060000D02*
X126545000Y-92735000D01*
X118585000Y-91060000D02*
X124870000Y-91060000D01*
%TO.N,Net-(JP12-Pad2)*%
X173700000Y-70910000D02*
X173585000Y-70910000D01*
X173585000Y-66735000D02*
X173585000Y-70910000D01*
%TO.N,Net-(R15-Pad2)*%
X111085000Y-80235000D02*
X114922500Y-80235000D01*
X110335000Y-80985000D02*
X111085000Y-80235000D01*
%TO.N,/MCU/BOOT_0*%
X172335000Y-75810962D02*
X172335000Y-76822500D01*
X173585000Y-74560962D02*
X172335000Y-75810962D01*
X173585000Y-72485000D02*
X173585000Y-74560962D01*
%TO.N,/MCU/SDA*%
X172835000Y-77985000D02*
X172585000Y-78235000D01*
X172835000Y-76822500D02*
X172835000Y-77985000D01*
%TO.N,/MCU/SCK*%
X173335000Y-76822500D02*
X173335000Y-77985000D01*
X173335000Y-77985000D02*
X173585000Y-78235000D01*
D24*
%TO.N,Net-(J1-PadA4)*%
X99230999Y-84380999D02*
X99335000Y-84485000D01*
X96801000Y-84463000D02*
X96883001Y-84380999D01*
X96883001Y-84380999D02*
X99230999Y-84380999D01*
X99230999Y-79589001D02*
X96827001Y-79589001D01*
X96827001Y-79589001D02*
X96801000Y-79563000D01*
X99335000Y-79485000D02*
X99230999Y-79589001D01*
X96194999Y-88125001D02*
X93085000Y-91235000D01*
X99734999Y-86085001D02*
X97694999Y-88125001D01*
X99335000Y-84485000D02*
X99734999Y-84884999D01*
X97694999Y-88125001D02*
X96194999Y-88125001D01*
X99734999Y-84884999D02*
X99734999Y-86085001D01*
D25*
%TO.N,/MCU/PB0*%
X156160000Y-129125000D02*
X162660000Y-129125000D01*
X162660000Y-126588962D02*
X162660000Y-129125000D01*
X171335000Y-117913962D02*
X162660000Y-126588962D01*
X171335000Y-88147500D02*
X171335000Y-117913962D01*
X171335000Y-88147500D02*
X171335000Y-85147500D01*
%TO.N,/MCU/PB4*%
X156160000Y-140125000D02*
X162660000Y-140125000D01*
X163987001Y-138797999D02*
X162660000Y-140125000D01*
X163987001Y-130083518D02*
X163987001Y-138797999D01*
X171835000Y-85147500D02*
X171835000Y-122235519D01*
X171835000Y-122235519D02*
X163987001Y-130083518D01*
%TO.N,/MCU/PB3*%
X172332999Y-88149501D02*
X172332999Y-127797999D01*
X172332999Y-127797999D02*
X173660000Y-129125000D01*
X172335000Y-85147500D02*
X172332999Y-85149501D01*
X167160000Y-129125000D02*
X172445000Y-129125000D01*
X172445000Y-129125000D02*
X173660000Y-129125000D01*
X172335000Y-88147500D02*
X172332999Y-88149501D01*
X172335000Y-85147500D02*
X172335000Y-88147500D01*
%TO.N,/MCU/PB2*%
X145160000Y-129125000D02*
X151660000Y-129125000D01*
X153835000Y-126950000D02*
X151660000Y-129125000D01*
X170335000Y-107913962D02*
X162763962Y-115485000D01*
X153835000Y-116985000D02*
X153835000Y-126950000D01*
X170335000Y-85147500D02*
X170335000Y-104913962D01*
X155335000Y-115485000D02*
X153835000Y-116985000D01*
X162763962Y-115485000D02*
X155335000Y-115485000D01*
X170335000Y-107913962D02*
X170335000Y-104913962D01*
%TO.N,/MCU/PB1*%
X156160000Y-118125000D02*
X162660000Y-118125000D01*
X170835000Y-109950000D02*
X162660000Y-118125000D01*
X170835000Y-85147500D02*
X170835000Y-109950000D01*
%TO.N,/D-*%
X97853001Y-82189999D02*
X97853001Y-81351399D01*
X97780000Y-82263000D02*
X97853001Y-82189999D01*
X97764602Y-81263000D02*
X96801000Y-81263000D01*
X97853001Y-81351399D02*
X97764602Y-81263000D01*
X96801000Y-82263000D02*
X97780000Y-82263000D01*
X102019500Y-81263000D02*
X96801000Y-81263000D01*
X102047500Y-81235000D02*
X102019500Y-81263000D01*
%TO.N,/D+*%
X101825500Y-82763000D02*
X96801000Y-82763000D01*
X102047500Y-82985000D02*
X101825500Y-82763000D01*
X95748999Y-81851399D02*
X95837398Y-81763000D01*
X95822000Y-82763000D02*
X95748999Y-82689999D01*
X95837398Y-81763000D02*
X96801000Y-81763000D01*
X95748999Y-82689999D02*
X95748999Y-81851399D01*
X96801000Y-82763000D02*
X95822000Y-82763000D01*
%TO.N,Net-(R14-Pad2)*%
X114172500Y-77485000D02*
X110410000Y-77485000D01*
X114922500Y-78235000D02*
X114172500Y-77485000D01*
X103835000Y-68485000D02*
X110335000Y-68485000D01*
X110335000Y-77410000D02*
X110410000Y-77485000D01*
X110335000Y-68485000D02*
X110335000Y-77410000D01*
%TO.N,Net-(R18-Pad1)*%
X167789010Y-78407538D02*
X167789010Y-72151510D01*
X167789010Y-72151510D02*
X166872500Y-71235000D01*
X168116472Y-78735000D02*
X167789010Y-78407538D01*
X168922500Y-78735000D02*
X168116472Y-78735000D01*
D24*
%TO.N,Net-(C1-Pad1)*%
X99785000Y-100060500D02*
X99297500Y-99573000D01*
X99785000Y-101757000D02*
X99785000Y-100060500D01*
X99763000Y-101735000D02*
X99785000Y-101757000D01*
X97022500Y-101735000D02*
X99763000Y-101735000D01*
D25*
%TO.N,Net-(JP10-Pad1)*%
X112585000Y-78735000D02*
X114922500Y-78735000D01*
%TO.N,Net-(D2-Pad2)*%
X130397500Y-105985000D02*
X132547500Y-105985000D01*
%TO.N,Net-(D3-Pad2)*%
X130397500Y-104235000D02*
X132585000Y-104235000D01*
%TO.N,Net-(D4-Pad2)*%
X130397500Y-100485000D02*
X132547500Y-100485000D01*
%TO.N,Net-(D5-Pad2)*%
X130397500Y-98735000D02*
X132547500Y-98735000D01*
%TO.N,/MCU/SWDIO*%
X146447999Y-76307999D02*
X147625000Y-77485000D01*
X146447999Y-70122001D02*
X146447999Y-76307999D01*
X147585000Y-68985000D02*
X146447999Y-70122001D01*
%TO.N,/MCU/SWDCLK*%
X148125000Y-73735000D02*
X147625000Y-73735000D01*
X150125000Y-71235000D02*
X147625000Y-73735000D01*
X150125000Y-68985000D02*
X150125000Y-71235000D01*
%TO.N,/CPU-RX*%
X146262001Y-97597999D02*
X143875000Y-99985000D01*
X146262001Y-83597999D02*
X146262001Y-97597999D01*
X147625000Y-82235000D02*
X146262001Y-83597999D01*
%TO.N,/BMP-RX*%
X145085000Y-85985000D02*
X142585000Y-88485000D01*
X142585000Y-107195000D02*
X143875000Y-108485000D01*
X142585000Y-88485000D02*
X142585000Y-107195000D01*
%TO.N,Net-(JP2-Pad1)*%
X138835000Y-105985000D02*
X141335000Y-108485000D01*
X134122500Y-105985000D02*
X138835000Y-105985000D01*
%TO.N,Net-(JP3-Pad1)*%
X140835000Y-104235000D02*
X141335000Y-104735000D01*
X134160000Y-104235000D02*
X140835000Y-104235000D01*
%TO.N,Net-(JP4-Pad1)*%
X140835000Y-100485000D02*
X141335000Y-99985000D01*
X134122500Y-100485000D02*
X140835000Y-100485000D01*
%TO.N,Net-(JP5-Pad1)*%
X138835000Y-98735000D02*
X141335000Y-96235000D01*
X134122500Y-98735000D02*
X138835000Y-98735000D01*
%TD*%
M02*
