M48
; DRILL file {KiCad (5.1.6)-1} date 09/28/20 21:59:20
; FORMAT={-:-/ absolute / inch / decimal}
; #@! TF.CreationDate,2020-09-28T21:59:20+02:00
; #@! TF.GenerationSoftware,Kicad,Pcbnew,(5.1.6)-1
; #@! TF.FileFunction,Plated,1,4,PTH
FMAT,2
INCH
T1C0.0157
T2C0.0197
T3C0.0236
T4C0.0394
T5C0.0433
T6C0.1063
%
G90
G05
T1
X3.6057Y-2.8242
X3.8813Y-3.0998
X3.8813Y-3.3557
X3.901Y-2.8242
X3.9108Y-3.1293
X3.9108Y-3.3262
X3.9699Y-3.8774
X4.0093Y-3.8774
X4.0093Y-3.9167
X4.0191Y-4.0742
X4.0191Y-4.1136
X4.0191Y-4.153
X4.0191Y-4.1923
X4.0781Y-3.09
X4.0781Y-3.3754
X4.1274Y-3.8774
X4.1667Y-3.8774
X4.1667Y-3.9167
X4.2455Y-3.0506
X4.403Y-3.2868
X4.4325Y-3.0998
X4.4423Y-3.3852
X4.5211Y-2.8833
X4.5211Y-2.9423
X4.5998Y-3.1392
X4.6096Y-3.0801
X4.6096Y-3.1982
X4.649Y-3.0801
X4.6589Y-2.8833
X4.6589Y-2.9423
X4.6687Y-2.8144
X4.7179Y-3.4344
X4.7376Y-2.8144
X4.7868Y-3.09
X4.8459Y-2.4108
X4.8557Y-3.4344
X4.8951Y-2.7848
X4.8951Y-2.9226
X4.9344Y-3.0801
X4.9541Y-2.7848
X4.9738Y-3.1785
X5.0722Y-4.0348
X5.1018Y-3.3459
X6.3222Y-2.8045
X6.401Y-3.0309
X6.5289Y-3.1982
X6.5683Y-3.2967
X6.588Y-3.5624
X6.647Y-2.9423
X6.647Y-3.5624
X6.7553Y-3.1195
X6.7553Y-3.2376
X6.7553Y-3.277
X6.7848Y-2.9423
X6.7947Y-3.0801
X6.8341Y-3.0801
X6.8439Y-3.4344
X6.8439Y-3.4935
X6.9226Y-2.9128
X6.9817Y-3.4344
X6.9817Y-3.4935
X7.0604Y-3.0211
X7.0604Y-3.1589
T2
X3.6539Y-1.9778
X3.6773Y-1.9214
X3.6773Y-2.0341
X3.7337Y-1.898
X3.7337Y-2.0575
X3.79Y-1.9214
X3.79Y-2.0341
X3.8134Y-1.9778
X7.1972Y-5.5211
X7.2206Y-5.4647
X7.2206Y-5.5774
X7.277Y-5.4413
X7.277Y-5.6008
X7.3333Y-5.4647
X7.3333Y-5.5774
X7.3567Y-5.5211
X3.6539Y-5.5211
X3.6773Y-5.4647
X3.6773Y-5.5774
X3.7337Y-5.4413
X3.7337Y-5.6008
X3.79Y-5.4647
X3.79Y-5.5774
X3.8134Y-5.5211
X7.1972Y-1.9778
X7.2206Y-1.9214
X7.2206Y-2.0341
X7.277Y-1.898
X7.277Y-2.0575
X7.3333Y-1.9214
X7.3333Y-2.0341
X7.3567Y-1.9778
T4
X4.5679Y-4.4959
X4.6679Y-4.4959
X4.7679Y-4.4959
X4.8679Y-4.4959
X5.5644Y-4.2711
X5.6644Y-4.2711
X6.7341Y-2.6274
X6.8341Y-2.6274
X6.9341Y-2.6274
X4.8821Y-3.651
X4.9821Y-3.651
X5.0821Y-3.651
X4.3734Y-3.4919
X4.3734Y-3.5919
X4.3734Y-3.6919
X4.3734Y-3.7919
X5.5644Y-3.9364
X5.6644Y-3.9364
X5.712Y-3.2376
X5.812Y-3.2376
X5.5644Y-4.1234
X5.6644Y-4.1234
X5.712Y-3.0506
X5.812Y-3.0506
X3.9404Y-3.5919
X3.9404Y-3.6919
X5.712Y-2.903
X5.812Y-2.903
X5.7104Y-2.7159
X5.8104Y-2.7159
X5.9104Y-2.7159
X6.0104Y-2.7159
X3.6648Y-3.5919
X3.6648Y-3.6919
X5.5644Y-3.7888
X5.6644Y-3.7888
X5.712Y-3.3852
X5.812Y-3.3852
T5
X4.088Y-2.5191
X4.088Y-2.6963
X4.3439Y-2.5191
X4.3439Y-2.6963
X6.5811Y-4.9065
X6.5811Y-5.0837
X6.837Y-4.9065
X6.837Y-5.0837
X6.148Y-4.9065
X6.148Y-5.0837
X6.4039Y-4.9065
X6.4039Y-5.0837
X6.2337Y-3.6805
X6.2337Y-3.8577
X6.4896Y-3.6805
X6.4896Y-3.8577
X6.148Y-5.3396
X6.148Y-5.5167
X6.4039Y-5.3396
X6.4039Y-5.5167
X5.715Y-4.9065
X5.715Y-5.0837
X5.9709Y-4.9065
X5.9709Y-5.0837
X5.0132Y-2.5191
X5.0132Y-2.6963
X5.2691Y-2.5191
X5.2691Y-2.6963
X6.148Y-4.4734
X6.148Y-4.6506
X6.4039Y-4.4734
X6.4039Y-4.6506
T6
X7.277Y-1.9778
X3.7337Y-1.9778
X7.277Y-5.5211
X3.7337Y-5.5211
T3
G00X3.6223Y-3.0588
M15
G01X3.5987Y-3.0588
M16
G05
G00X3.6223Y-3.3989
M15
G01X3.5987Y-3.3989
M16
G05
G00X3.7967Y-3.0588
M15
G01X3.7534Y-3.0588
M16
G05
G00X3.7967Y-3.3989
M15
G01X3.7534Y-3.3989
M16
G05
T0
M30
