%TF.GenerationSoftware,KiCad,Pcbnew,(5.1.6)-1*%
%TF.CreationDate,2020-09-28T21:59:18+02:00*%
%TF.ProjectId,BMP-Arduino,424d502d-4172-4647-9569-6e6f2e6b6963,0.1*%
%TF.SameCoordinates,Original*%
%TF.FileFunction,Soldermask,Top*%
%TF.FilePolarity,Negative*%
%FSLAX46Y46*%
G04 Gerber Fmt 4.6, Leading zero omitted, Abs format (unit mm)*
G04 Created by KiCad (PCBNEW (5.1.6)-1) date 2020-09-28 21:59:18*
%MOMM*%
%LPD*%
G01*
G04 APERTURE LIST*
%ADD10O,1.800000X1.800000*%
%ADD11R,1.800000X1.800000*%
%ADD12C,2.100000*%
%ADD13R,2.500000X2.100000*%
%ADD14R,1.550000X0.700000*%
%ADD15R,1.550000X0.400000*%
%ADD16O,2.200000X1.100000*%
%ADD17C,0.750000*%
%ADD18O,1.700000X1.100000*%
%ADD19C,1.500000*%
%ADD20R,1.600000X2.100000*%
%ADD21R,3.900000X2.100000*%
%ADD22C,0.900000*%
%ADD23C,5.500000*%
G04 APERTURE END LIST*
D10*
%TO.C,JP2*%
X143875000Y-108485000D03*
D11*
X141335000Y-108485000D03*
%TD*%
D10*
%TO.C,JP5*%
X143875000Y-96235000D03*
D11*
X141335000Y-96235000D03*
%TD*%
D10*
%TO.C,JP4*%
X143875000Y-99985000D03*
D11*
X141335000Y-99985000D03*
%TD*%
D10*
%TO.C,JP3*%
X143875000Y-104735000D03*
D11*
X141335000Y-104735000D03*
%TD*%
%TO.C,R9*%
G36*
G01*
X133635000Y-99016250D02*
X133635000Y-98453750D01*
G75*
G02*
X133878750Y-98210000I243750J0D01*
G01*
X134366250Y-98210000D01*
G75*
G02*
X134610000Y-98453750I0J-243750D01*
G01*
X134610000Y-99016250D01*
G75*
G02*
X134366250Y-99260000I-243750J0D01*
G01*
X133878750Y-99260000D01*
G75*
G02*
X133635000Y-99016250I0J243750D01*
G01*
G37*
G36*
G01*
X132060000Y-99016250D02*
X132060000Y-98453750D01*
G75*
G02*
X132303750Y-98210000I243750J0D01*
G01*
X132791250Y-98210000D01*
G75*
G02*
X133035000Y-98453750I0J-243750D01*
G01*
X133035000Y-99016250D01*
G75*
G02*
X132791250Y-99260000I-243750J0D01*
G01*
X132303750Y-99260000D01*
G75*
G02*
X132060000Y-99016250I0J243750D01*
G01*
G37*
%TD*%
%TO.C,R8*%
G36*
G01*
X133635000Y-100766250D02*
X133635000Y-100203750D01*
G75*
G02*
X133878750Y-99960000I243750J0D01*
G01*
X134366250Y-99960000D01*
G75*
G02*
X134610000Y-100203750I0J-243750D01*
G01*
X134610000Y-100766250D01*
G75*
G02*
X134366250Y-101010000I-243750J0D01*
G01*
X133878750Y-101010000D01*
G75*
G02*
X133635000Y-100766250I0J243750D01*
G01*
G37*
G36*
G01*
X132060000Y-100766250D02*
X132060000Y-100203750D01*
G75*
G02*
X132303750Y-99960000I243750J0D01*
G01*
X132791250Y-99960000D01*
G75*
G02*
X133035000Y-100203750I0J-243750D01*
G01*
X133035000Y-100766250D01*
G75*
G02*
X132791250Y-101010000I-243750J0D01*
G01*
X132303750Y-101010000D01*
G75*
G02*
X132060000Y-100766250I0J243750D01*
G01*
G37*
%TD*%
%TO.C,R7*%
G36*
G01*
X133672500Y-104516250D02*
X133672500Y-103953750D01*
G75*
G02*
X133916250Y-103710000I243750J0D01*
G01*
X134403750Y-103710000D01*
G75*
G02*
X134647500Y-103953750I0J-243750D01*
G01*
X134647500Y-104516250D01*
G75*
G02*
X134403750Y-104760000I-243750J0D01*
G01*
X133916250Y-104760000D01*
G75*
G02*
X133672500Y-104516250I0J243750D01*
G01*
G37*
G36*
G01*
X132097500Y-104516250D02*
X132097500Y-103953750D01*
G75*
G02*
X132341250Y-103710000I243750J0D01*
G01*
X132828750Y-103710000D01*
G75*
G02*
X133072500Y-103953750I0J-243750D01*
G01*
X133072500Y-104516250D01*
G75*
G02*
X132828750Y-104760000I-243750J0D01*
G01*
X132341250Y-104760000D01*
G75*
G02*
X132097500Y-104516250I0J243750D01*
G01*
G37*
%TD*%
%TO.C,R6*%
G36*
G01*
X133635000Y-106266250D02*
X133635000Y-105703750D01*
G75*
G02*
X133878750Y-105460000I243750J0D01*
G01*
X134366250Y-105460000D01*
G75*
G02*
X134610000Y-105703750I0J-243750D01*
G01*
X134610000Y-106266250D01*
G75*
G02*
X134366250Y-106510000I-243750J0D01*
G01*
X133878750Y-106510000D01*
G75*
G02*
X133635000Y-106266250I0J243750D01*
G01*
G37*
G36*
G01*
X132060000Y-106266250D02*
X132060000Y-105703750D01*
G75*
G02*
X132303750Y-105460000I243750J0D01*
G01*
X132791250Y-105460000D01*
G75*
G02*
X133035000Y-105703750I0J-243750D01*
G01*
X133035000Y-106266250D01*
G75*
G02*
X132791250Y-106510000I-243750J0D01*
G01*
X132303750Y-106510000D01*
G75*
G02*
X132060000Y-106266250I0J243750D01*
G01*
G37*
%TD*%
%TO.C,D5*%
G36*
G01*
X129735000Y-98972500D02*
X129735000Y-98497500D01*
G75*
G02*
X129972500Y-98260000I237500J0D01*
G01*
X130822500Y-98260000D01*
G75*
G02*
X131060000Y-98497500I0J-237500D01*
G01*
X131060000Y-98972500D01*
G75*
G02*
X130822500Y-99210000I-237500J0D01*
G01*
X129972500Y-99210000D01*
G75*
G02*
X129735000Y-98972500I0J237500D01*
G01*
G37*
G36*
G01*
X128110000Y-98972500D02*
X128110000Y-98497500D01*
G75*
G02*
X128347500Y-98260000I237500J0D01*
G01*
X129197500Y-98260000D01*
G75*
G02*
X129435000Y-98497500I0J-237500D01*
G01*
X129435000Y-98972500D01*
G75*
G02*
X129197500Y-99210000I-237500J0D01*
G01*
X128347500Y-99210000D01*
G75*
G02*
X128110000Y-98972500I0J237500D01*
G01*
G37*
%TD*%
%TO.C,D4*%
G36*
G01*
X129735000Y-100722500D02*
X129735000Y-100247500D01*
G75*
G02*
X129972500Y-100010000I237500J0D01*
G01*
X130822500Y-100010000D01*
G75*
G02*
X131060000Y-100247500I0J-237500D01*
G01*
X131060000Y-100722500D01*
G75*
G02*
X130822500Y-100960000I-237500J0D01*
G01*
X129972500Y-100960000D01*
G75*
G02*
X129735000Y-100722500I0J237500D01*
G01*
G37*
G36*
G01*
X128110000Y-100722500D02*
X128110000Y-100247500D01*
G75*
G02*
X128347500Y-100010000I237500J0D01*
G01*
X129197500Y-100010000D01*
G75*
G02*
X129435000Y-100247500I0J-237500D01*
G01*
X129435000Y-100722500D01*
G75*
G02*
X129197500Y-100960000I-237500J0D01*
G01*
X128347500Y-100960000D01*
G75*
G02*
X128110000Y-100722500I0J237500D01*
G01*
G37*
%TD*%
%TO.C,D3*%
G36*
G01*
X129735000Y-104472500D02*
X129735000Y-103997500D01*
G75*
G02*
X129972500Y-103760000I237500J0D01*
G01*
X130822500Y-103760000D01*
G75*
G02*
X131060000Y-103997500I0J-237500D01*
G01*
X131060000Y-104472500D01*
G75*
G02*
X130822500Y-104710000I-237500J0D01*
G01*
X129972500Y-104710000D01*
G75*
G02*
X129735000Y-104472500I0J237500D01*
G01*
G37*
G36*
G01*
X128110000Y-104472500D02*
X128110000Y-103997500D01*
G75*
G02*
X128347500Y-103760000I237500J0D01*
G01*
X129197500Y-103760000D01*
G75*
G02*
X129435000Y-103997500I0J-237500D01*
G01*
X129435000Y-104472500D01*
G75*
G02*
X129197500Y-104710000I-237500J0D01*
G01*
X128347500Y-104710000D01*
G75*
G02*
X128110000Y-104472500I0J237500D01*
G01*
G37*
%TD*%
%TO.C,D2*%
G36*
G01*
X129735000Y-106222500D02*
X129735000Y-105747500D01*
G75*
G02*
X129972500Y-105510000I237500J0D01*
G01*
X130822500Y-105510000D01*
G75*
G02*
X131060000Y-105747500I0J-237500D01*
G01*
X131060000Y-106222500D01*
G75*
G02*
X130822500Y-106460000I-237500J0D01*
G01*
X129972500Y-106460000D01*
G75*
G02*
X129735000Y-106222500I0J237500D01*
G01*
G37*
G36*
G01*
X128110000Y-106222500D02*
X128110000Y-105747500D01*
G75*
G02*
X128347500Y-105510000I237500J0D01*
G01*
X129197500Y-105510000D01*
G75*
G02*
X129435000Y-105747500I0J-237500D01*
G01*
X129435000Y-106222500D01*
G75*
G02*
X129197500Y-106460000I-237500J0D01*
G01*
X128347500Y-106460000D01*
G75*
G02*
X128110000Y-106222500I0J237500D01*
G01*
G37*
%TD*%
%TO.C,U2*%
G36*
G01*
X122035000Y-84460000D02*
X122035000Y-85835000D01*
G75*
G02*
X121935000Y-85935000I-100000J0D01*
G01*
X121735000Y-85935000D01*
G75*
G02*
X121635000Y-85835000I0J100000D01*
G01*
X121635000Y-84460000D01*
G75*
G02*
X121735000Y-84360000I100000J0D01*
G01*
X121935000Y-84360000D01*
G75*
G02*
X122035000Y-84460000I0J-100000D01*
G01*
G37*
G36*
G01*
X121535000Y-84460000D02*
X121535000Y-85835000D01*
G75*
G02*
X121435000Y-85935000I-100000J0D01*
G01*
X121235000Y-85935000D01*
G75*
G02*
X121135000Y-85835000I0J100000D01*
G01*
X121135000Y-84460000D01*
G75*
G02*
X121235000Y-84360000I100000J0D01*
G01*
X121435000Y-84360000D01*
G75*
G02*
X121535000Y-84460000I0J-100000D01*
G01*
G37*
G36*
G01*
X121035000Y-84460000D02*
X121035000Y-85835000D01*
G75*
G02*
X120935000Y-85935000I-100000J0D01*
G01*
X120735000Y-85935000D01*
G75*
G02*
X120635000Y-85835000I0J100000D01*
G01*
X120635000Y-84460000D01*
G75*
G02*
X120735000Y-84360000I100000J0D01*
G01*
X120935000Y-84360000D01*
G75*
G02*
X121035000Y-84460000I0J-100000D01*
G01*
G37*
G36*
G01*
X120535000Y-84460000D02*
X120535000Y-85835000D01*
G75*
G02*
X120435000Y-85935000I-100000J0D01*
G01*
X120235000Y-85935000D01*
G75*
G02*
X120135000Y-85835000I0J100000D01*
G01*
X120135000Y-84460000D01*
G75*
G02*
X120235000Y-84360000I100000J0D01*
G01*
X120435000Y-84360000D01*
G75*
G02*
X120535000Y-84460000I0J-100000D01*
G01*
G37*
G36*
G01*
X120035000Y-84460000D02*
X120035000Y-85835000D01*
G75*
G02*
X119935000Y-85935000I-100000J0D01*
G01*
X119735000Y-85935000D01*
G75*
G02*
X119635000Y-85835000I0J100000D01*
G01*
X119635000Y-84460000D01*
G75*
G02*
X119735000Y-84360000I100000J0D01*
G01*
X119935000Y-84360000D01*
G75*
G02*
X120035000Y-84460000I0J-100000D01*
G01*
G37*
G36*
G01*
X119535000Y-84460000D02*
X119535000Y-85835000D01*
G75*
G02*
X119435000Y-85935000I-100000J0D01*
G01*
X119235000Y-85935000D01*
G75*
G02*
X119135000Y-85835000I0J100000D01*
G01*
X119135000Y-84460000D01*
G75*
G02*
X119235000Y-84360000I100000J0D01*
G01*
X119435000Y-84360000D01*
G75*
G02*
X119535000Y-84460000I0J-100000D01*
G01*
G37*
G36*
G01*
X119035000Y-84460000D02*
X119035000Y-85835000D01*
G75*
G02*
X118935000Y-85935000I-100000J0D01*
G01*
X118735000Y-85935000D01*
G75*
G02*
X118635000Y-85835000I0J100000D01*
G01*
X118635000Y-84460000D01*
G75*
G02*
X118735000Y-84360000I100000J0D01*
G01*
X118935000Y-84360000D01*
G75*
G02*
X119035000Y-84460000I0J-100000D01*
G01*
G37*
G36*
G01*
X118535000Y-84460000D02*
X118535000Y-85835000D01*
G75*
G02*
X118435000Y-85935000I-100000J0D01*
G01*
X118235000Y-85935000D01*
G75*
G02*
X118135000Y-85835000I0J100000D01*
G01*
X118135000Y-84460000D01*
G75*
G02*
X118235000Y-84360000I100000J0D01*
G01*
X118435000Y-84360000D01*
G75*
G02*
X118535000Y-84460000I0J-100000D01*
G01*
G37*
G36*
G01*
X118035000Y-84460000D02*
X118035000Y-85835000D01*
G75*
G02*
X117935000Y-85935000I-100000J0D01*
G01*
X117735000Y-85935000D01*
G75*
G02*
X117635000Y-85835000I0J100000D01*
G01*
X117635000Y-84460000D01*
G75*
G02*
X117735000Y-84360000I100000J0D01*
G01*
X117935000Y-84360000D01*
G75*
G02*
X118035000Y-84460000I0J-100000D01*
G01*
G37*
G36*
G01*
X117535000Y-84460000D02*
X117535000Y-85835000D01*
G75*
G02*
X117435000Y-85935000I-100000J0D01*
G01*
X117235000Y-85935000D01*
G75*
G02*
X117135000Y-85835000I0J100000D01*
G01*
X117135000Y-84460000D01*
G75*
G02*
X117235000Y-84360000I100000J0D01*
G01*
X117435000Y-84360000D01*
G75*
G02*
X117535000Y-84460000I0J-100000D01*
G01*
G37*
G36*
G01*
X117035000Y-84460000D02*
X117035000Y-85835000D01*
G75*
G02*
X116935000Y-85935000I-100000J0D01*
G01*
X116735000Y-85935000D01*
G75*
G02*
X116635000Y-85835000I0J100000D01*
G01*
X116635000Y-84460000D01*
G75*
G02*
X116735000Y-84360000I100000J0D01*
G01*
X116935000Y-84360000D01*
G75*
G02*
X117035000Y-84460000I0J-100000D01*
G01*
G37*
G36*
G01*
X116535000Y-84460000D02*
X116535000Y-85835000D01*
G75*
G02*
X116435000Y-85935000I-100000J0D01*
G01*
X116235000Y-85935000D01*
G75*
G02*
X116135000Y-85835000I0J100000D01*
G01*
X116135000Y-84460000D01*
G75*
G02*
X116235000Y-84360000I100000J0D01*
G01*
X116435000Y-84360000D01*
G75*
G02*
X116535000Y-84460000I0J-100000D01*
G01*
G37*
G36*
G01*
X115710000Y-83635000D02*
X115710000Y-83835000D01*
G75*
G02*
X115610000Y-83935000I-100000J0D01*
G01*
X114235000Y-83935000D01*
G75*
G02*
X114135000Y-83835000I0J100000D01*
G01*
X114135000Y-83635000D01*
G75*
G02*
X114235000Y-83535000I100000J0D01*
G01*
X115610000Y-83535000D01*
G75*
G02*
X115710000Y-83635000I0J-100000D01*
G01*
G37*
G36*
G01*
X115710000Y-83135000D02*
X115710000Y-83335000D01*
G75*
G02*
X115610000Y-83435000I-100000J0D01*
G01*
X114235000Y-83435000D01*
G75*
G02*
X114135000Y-83335000I0J100000D01*
G01*
X114135000Y-83135000D01*
G75*
G02*
X114235000Y-83035000I100000J0D01*
G01*
X115610000Y-83035000D01*
G75*
G02*
X115710000Y-83135000I0J-100000D01*
G01*
G37*
G36*
G01*
X115710000Y-82635000D02*
X115710000Y-82835000D01*
G75*
G02*
X115610000Y-82935000I-100000J0D01*
G01*
X114235000Y-82935000D01*
G75*
G02*
X114135000Y-82835000I0J100000D01*
G01*
X114135000Y-82635000D01*
G75*
G02*
X114235000Y-82535000I100000J0D01*
G01*
X115610000Y-82535000D01*
G75*
G02*
X115710000Y-82635000I0J-100000D01*
G01*
G37*
G36*
G01*
X115710000Y-82135000D02*
X115710000Y-82335000D01*
G75*
G02*
X115610000Y-82435000I-100000J0D01*
G01*
X114235000Y-82435000D01*
G75*
G02*
X114135000Y-82335000I0J100000D01*
G01*
X114135000Y-82135000D01*
G75*
G02*
X114235000Y-82035000I100000J0D01*
G01*
X115610000Y-82035000D01*
G75*
G02*
X115710000Y-82135000I0J-100000D01*
G01*
G37*
G36*
G01*
X115710000Y-81635000D02*
X115710000Y-81835000D01*
G75*
G02*
X115610000Y-81935000I-100000J0D01*
G01*
X114235000Y-81935000D01*
G75*
G02*
X114135000Y-81835000I0J100000D01*
G01*
X114135000Y-81635000D01*
G75*
G02*
X114235000Y-81535000I100000J0D01*
G01*
X115610000Y-81535000D01*
G75*
G02*
X115710000Y-81635000I0J-100000D01*
G01*
G37*
G36*
G01*
X115710000Y-81135000D02*
X115710000Y-81335000D01*
G75*
G02*
X115610000Y-81435000I-100000J0D01*
G01*
X114235000Y-81435000D01*
G75*
G02*
X114135000Y-81335000I0J100000D01*
G01*
X114135000Y-81135000D01*
G75*
G02*
X114235000Y-81035000I100000J0D01*
G01*
X115610000Y-81035000D01*
G75*
G02*
X115710000Y-81135000I0J-100000D01*
G01*
G37*
G36*
G01*
X115710000Y-80635000D02*
X115710000Y-80835000D01*
G75*
G02*
X115610000Y-80935000I-100000J0D01*
G01*
X114235000Y-80935000D01*
G75*
G02*
X114135000Y-80835000I0J100000D01*
G01*
X114135000Y-80635000D01*
G75*
G02*
X114235000Y-80535000I100000J0D01*
G01*
X115610000Y-80535000D01*
G75*
G02*
X115710000Y-80635000I0J-100000D01*
G01*
G37*
G36*
G01*
X115710000Y-80135000D02*
X115710000Y-80335000D01*
G75*
G02*
X115610000Y-80435000I-100000J0D01*
G01*
X114235000Y-80435000D01*
G75*
G02*
X114135000Y-80335000I0J100000D01*
G01*
X114135000Y-80135000D01*
G75*
G02*
X114235000Y-80035000I100000J0D01*
G01*
X115610000Y-80035000D01*
G75*
G02*
X115710000Y-80135000I0J-100000D01*
G01*
G37*
G36*
G01*
X115710000Y-79635000D02*
X115710000Y-79835000D01*
G75*
G02*
X115610000Y-79935000I-100000J0D01*
G01*
X114235000Y-79935000D01*
G75*
G02*
X114135000Y-79835000I0J100000D01*
G01*
X114135000Y-79635000D01*
G75*
G02*
X114235000Y-79535000I100000J0D01*
G01*
X115610000Y-79535000D01*
G75*
G02*
X115710000Y-79635000I0J-100000D01*
G01*
G37*
G36*
G01*
X115710000Y-79135000D02*
X115710000Y-79335000D01*
G75*
G02*
X115610000Y-79435000I-100000J0D01*
G01*
X114235000Y-79435000D01*
G75*
G02*
X114135000Y-79335000I0J100000D01*
G01*
X114135000Y-79135000D01*
G75*
G02*
X114235000Y-79035000I100000J0D01*
G01*
X115610000Y-79035000D01*
G75*
G02*
X115710000Y-79135000I0J-100000D01*
G01*
G37*
G36*
G01*
X115710000Y-78635000D02*
X115710000Y-78835000D01*
G75*
G02*
X115610000Y-78935000I-100000J0D01*
G01*
X114235000Y-78935000D01*
G75*
G02*
X114135000Y-78835000I0J100000D01*
G01*
X114135000Y-78635000D01*
G75*
G02*
X114235000Y-78535000I100000J0D01*
G01*
X115610000Y-78535000D01*
G75*
G02*
X115710000Y-78635000I0J-100000D01*
G01*
G37*
G36*
G01*
X115710000Y-78135000D02*
X115710000Y-78335000D01*
G75*
G02*
X115610000Y-78435000I-100000J0D01*
G01*
X114235000Y-78435000D01*
G75*
G02*
X114135000Y-78335000I0J100000D01*
G01*
X114135000Y-78135000D01*
G75*
G02*
X114235000Y-78035000I100000J0D01*
G01*
X115610000Y-78035000D01*
G75*
G02*
X115710000Y-78135000I0J-100000D01*
G01*
G37*
G36*
G01*
X116535000Y-76135000D02*
X116535000Y-77510000D01*
G75*
G02*
X116435000Y-77610000I-100000J0D01*
G01*
X116235000Y-77610000D01*
G75*
G02*
X116135000Y-77510000I0J100000D01*
G01*
X116135000Y-76135000D01*
G75*
G02*
X116235000Y-76035000I100000J0D01*
G01*
X116435000Y-76035000D01*
G75*
G02*
X116535000Y-76135000I0J-100000D01*
G01*
G37*
G36*
G01*
X117035000Y-76135000D02*
X117035000Y-77510000D01*
G75*
G02*
X116935000Y-77610000I-100000J0D01*
G01*
X116735000Y-77610000D01*
G75*
G02*
X116635000Y-77510000I0J100000D01*
G01*
X116635000Y-76135000D01*
G75*
G02*
X116735000Y-76035000I100000J0D01*
G01*
X116935000Y-76035000D01*
G75*
G02*
X117035000Y-76135000I0J-100000D01*
G01*
G37*
G36*
G01*
X117535000Y-76135000D02*
X117535000Y-77510000D01*
G75*
G02*
X117435000Y-77610000I-100000J0D01*
G01*
X117235000Y-77610000D01*
G75*
G02*
X117135000Y-77510000I0J100000D01*
G01*
X117135000Y-76135000D01*
G75*
G02*
X117235000Y-76035000I100000J0D01*
G01*
X117435000Y-76035000D01*
G75*
G02*
X117535000Y-76135000I0J-100000D01*
G01*
G37*
G36*
G01*
X118035000Y-76135000D02*
X118035000Y-77510000D01*
G75*
G02*
X117935000Y-77610000I-100000J0D01*
G01*
X117735000Y-77610000D01*
G75*
G02*
X117635000Y-77510000I0J100000D01*
G01*
X117635000Y-76135000D01*
G75*
G02*
X117735000Y-76035000I100000J0D01*
G01*
X117935000Y-76035000D01*
G75*
G02*
X118035000Y-76135000I0J-100000D01*
G01*
G37*
G36*
G01*
X118535000Y-76135000D02*
X118535000Y-77510000D01*
G75*
G02*
X118435000Y-77610000I-100000J0D01*
G01*
X118235000Y-77610000D01*
G75*
G02*
X118135000Y-77510000I0J100000D01*
G01*
X118135000Y-76135000D01*
G75*
G02*
X118235000Y-76035000I100000J0D01*
G01*
X118435000Y-76035000D01*
G75*
G02*
X118535000Y-76135000I0J-100000D01*
G01*
G37*
G36*
G01*
X119035000Y-76135000D02*
X119035000Y-77510000D01*
G75*
G02*
X118935000Y-77610000I-100000J0D01*
G01*
X118735000Y-77610000D01*
G75*
G02*
X118635000Y-77510000I0J100000D01*
G01*
X118635000Y-76135000D01*
G75*
G02*
X118735000Y-76035000I100000J0D01*
G01*
X118935000Y-76035000D01*
G75*
G02*
X119035000Y-76135000I0J-100000D01*
G01*
G37*
G36*
G01*
X119535000Y-76135000D02*
X119535000Y-77510000D01*
G75*
G02*
X119435000Y-77610000I-100000J0D01*
G01*
X119235000Y-77610000D01*
G75*
G02*
X119135000Y-77510000I0J100000D01*
G01*
X119135000Y-76135000D01*
G75*
G02*
X119235000Y-76035000I100000J0D01*
G01*
X119435000Y-76035000D01*
G75*
G02*
X119535000Y-76135000I0J-100000D01*
G01*
G37*
G36*
G01*
X120035000Y-76135000D02*
X120035000Y-77510000D01*
G75*
G02*
X119935000Y-77610000I-100000J0D01*
G01*
X119735000Y-77610000D01*
G75*
G02*
X119635000Y-77510000I0J100000D01*
G01*
X119635000Y-76135000D01*
G75*
G02*
X119735000Y-76035000I100000J0D01*
G01*
X119935000Y-76035000D01*
G75*
G02*
X120035000Y-76135000I0J-100000D01*
G01*
G37*
G36*
G01*
X120535000Y-76135000D02*
X120535000Y-77510000D01*
G75*
G02*
X120435000Y-77610000I-100000J0D01*
G01*
X120235000Y-77610000D01*
G75*
G02*
X120135000Y-77510000I0J100000D01*
G01*
X120135000Y-76135000D01*
G75*
G02*
X120235000Y-76035000I100000J0D01*
G01*
X120435000Y-76035000D01*
G75*
G02*
X120535000Y-76135000I0J-100000D01*
G01*
G37*
G36*
G01*
X121035000Y-76135000D02*
X121035000Y-77510000D01*
G75*
G02*
X120935000Y-77610000I-100000J0D01*
G01*
X120735000Y-77610000D01*
G75*
G02*
X120635000Y-77510000I0J100000D01*
G01*
X120635000Y-76135000D01*
G75*
G02*
X120735000Y-76035000I100000J0D01*
G01*
X120935000Y-76035000D01*
G75*
G02*
X121035000Y-76135000I0J-100000D01*
G01*
G37*
G36*
G01*
X121535000Y-76135000D02*
X121535000Y-77510000D01*
G75*
G02*
X121435000Y-77610000I-100000J0D01*
G01*
X121235000Y-77610000D01*
G75*
G02*
X121135000Y-77510000I0J100000D01*
G01*
X121135000Y-76135000D01*
G75*
G02*
X121235000Y-76035000I100000J0D01*
G01*
X121435000Y-76035000D01*
G75*
G02*
X121535000Y-76135000I0J-100000D01*
G01*
G37*
G36*
G01*
X122035000Y-76135000D02*
X122035000Y-77510000D01*
G75*
G02*
X121935000Y-77610000I-100000J0D01*
G01*
X121735000Y-77610000D01*
G75*
G02*
X121635000Y-77510000I0J100000D01*
G01*
X121635000Y-76135000D01*
G75*
G02*
X121735000Y-76035000I100000J0D01*
G01*
X121935000Y-76035000D01*
G75*
G02*
X122035000Y-76135000I0J-100000D01*
G01*
G37*
G36*
G01*
X124035000Y-78135000D02*
X124035000Y-78335000D01*
G75*
G02*
X123935000Y-78435000I-100000J0D01*
G01*
X122560000Y-78435000D01*
G75*
G02*
X122460000Y-78335000I0J100000D01*
G01*
X122460000Y-78135000D01*
G75*
G02*
X122560000Y-78035000I100000J0D01*
G01*
X123935000Y-78035000D01*
G75*
G02*
X124035000Y-78135000I0J-100000D01*
G01*
G37*
G36*
G01*
X124035000Y-78635000D02*
X124035000Y-78835000D01*
G75*
G02*
X123935000Y-78935000I-100000J0D01*
G01*
X122560000Y-78935000D01*
G75*
G02*
X122460000Y-78835000I0J100000D01*
G01*
X122460000Y-78635000D01*
G75*
G02*
X122560000Y-78535000I100000J0D01*
G01*
X123935000Y-78535000D01*
G75*
G02*
X124035000Y-78635000I0J-100000D01*
G01*
G37*
G36*
G01*
X124035000Y-79135000D02*
X124035000Y-79335000D01*
G75*
G02*
X123935000Y-79435000I-100000J0D01*
G01*
X122560000Y-79435000D01*
G75*
G02*
X122460000Y-79335000I0J100000D01*
G01*
X122460000Y-79135000D01*
G75*
G02*
X122560000Y-79035000I100000J0D01*
G01*
X123935000Y-79035000D01*
G75*
G02*
X124035000Y-79135000I0J-100000D01*
G01*
G37*
G36*
G01*
X124035000Y-79635000D02*
X124035000Y-79835000D01*
G75*
G02*
X123935000Y-79935000I-100000J0D01*
G01*
X122560000Y-79935000D01*
G75*
G02*
X122460000Y-79835000I0J100000D01*
G01*
X122460000Y-79635000D01*
G75*
G02*
X122560000Y-79535000I100000J0D01*
G01*
X123935000Y-79535000D01*
G75*
G02*
X124035000Y-79635000I0J-100000D01*
G01*
G37*
G36*
G01*
X124035000Y-80135000D02*
X124035000Y-80335000D01*
G75*
G02*
X123935000Y-80435000I-100000J0D01*
G01*
X122560000Y-80435000D01*
G75*
G02*
X122460000Y-80335000I0J100000D01*
G01*
X122460000Y-80135000D01*
G75*
G02*
X122560000Y-80035000I100000J0D01*
G01*
X123935000Y-80035000D01*
G75*
G02*
X124035000Y-80135000I0J-100000D01*
G01*
G37*
G36*
G01*
X124035000Y-80635000D02*
X124035000Y-80835000D01*
G75*
G02*
X123935000Y-80935000I-100000J0D01*
G01*
X122560000Y-80935000D01*
G75*
G02*
X122460000Y-80835000I0J100000D01*
G01*
X122460000Y-80635000D01*
G75*
G02*
X122560000Y-80535000I100000J0D01*
G01*
X123935000Y-80535000D01*
G75*
G02*
X124035000Y-80635000I0J-100000D01*
G01*
G37*
G36*
G01*
X124035000Y-81135000D02*
X124035000Y-81335000D01*
G75*
G02*
X123935000Y-81435000I-100000J0D01*
G01*
X122560000Y-81435000D01*
G75*
G02*
X122460000Y-81335000I0J100000D01*
G01*
X122460000Y-81135000D01*
G75*
G02*
X122560000Y-81035000I100000J0D01*
G01*
X123935000Y-81035000D01*
G75*
G02*
X124035000Y-81135000I0J-100000D01*
G01*
G37*
G36*
G01*
X124035000Y-81635000D02*
X124035000Y-81835000D01*
G75*
G02*
X123935000Y-81935000I-100000J0D01*
G01*
X122560000Y-81935000D01*
G75*
G02*
X122460000Y-81835000I0J100000D01*
G01*
X122460000Y-81635000D01*
G75*
G02*
X122560000Y-81535000I100000J0D01*
G01*
X123935000Y-81535000D01*
G75*
G02*
X124035000Y-81635000I0J-100000D01*
G01*
G37*
G36*
G01*
X124035000Y-82135000D02*
X124035000Y-82335000D01*
G75*
G02*
X123935000Y-82435000I-100000J0D01*
G01*
X122560000Y-82435000D01*
G75*
G02*
X122460000Y-82335000I0J100000D01*
G01*
X122460000Y-82135000D01*
G75*
G02*
X122560000Y-82035000I100000J0D01*
G01*
X123935000Y-82035000D01*
G75*
G02*
X124035000Y-82135000I0J-100000D01*
G01*
G37*
G36*
G01*
X124035000Y-82635000D02*
X124035000Y-82835000D01*
G75*
G02*
X123935000Y-82935000I-100000J0D01*
G01*
X122560000Y-82935000D01*
G75*
G02*
X122460000Y-82835000I0J100000D01*
G01*
X122460000Y-82635000D01*
G75*
G02*
X122560000Y-82535000I100000J0D01*
G01*
X123935000Y-82535000D01*
G75*
G02*
X124035000Y-82635000I0J-100000D01*
G01*
G37*
G36*
G01*
X124035000Y-83135000D02*
X124035000Y-83335000D01*
G75*
G02*
X123935000Y-83435000I-100000J0D01*
G01*
X122560000Y-83435000D01*
G75*
G02*
X122460000Y-83335000I0J100000D01*
G01*
X122460000Y-83135000D01*
G75*
G02*
X122560000Y-83035000I100000J0D01*
G01*
X123935000Y-83035000D01*
G75*
G02*
X124035000Y-83135000I0J-100000D01*
G01*
G37*
G36*
G01*
X124035000Y-83635000D02*
X124035000Y-83835000D01*
G75*
G02*
X123935000Y-83935000I-100000J0D01*
G01*
X122560000Y-83935000D01*
G75*
G02*
X122460000Y-83835000I0J100000D01*
G01*
X122460000Y-83635000D01*
G75*
G02*
X122560000Y-83535000I100000J0D01*
G01*
X123935000Y-83535000D01*
G75*
G02*
X124035000Y-83635000I0J-100000D01*
G01*
G37*
%TD*%
%TO.C,R13*%
G36*
G01*
X124053750Y-72785000D02*
X124616250Y-72785000D01*
G75*
G02*
X124860000Y-73028750I0J-243750D01*
G01*
X124860000Y-73516250D01*
G75*
G02*
X124616250Y-73760000I-243750J0D01*
G01*
X124053750Y-73760000D01*
G75*
G02*
X123810000Y-73516250I0J243750D01*
G01*
X123810000Y-73028750D01*
G75*
G02*
X124053750Y-72785000I243750J0D01*
G01*
G37*
G36*
G01*
X124053750Y-71210000D02*
X124616250Y-71210000D01*
G75*
G02*
X124860000Y-71453750I0J-243750D01*
G01*
X124860000Y-71941250D01*
G75*
G02*
X124616250Y-72185000I-243750J0D01*
G01*
X124053750Y-72185000D01*
G75*
G02*
X123810000Y-71941250I0J243750D01*
G01*
X123810000Y-71453750D01*
G75*
G02*
X124053750Y-71210000I243750J0D01*
G01*
G37*
%TD*%
%TO.C,JP11*%
X129085000Y-92735000D03*
D10*
X126545000Y-92735000D03*
X124005000Y-92735000D03*
%TD*%
%TO.C,C10*%
G36*
G01*
X115310000Y-73516250D02*
X115310000Y-72953750D01*
G75*
G02*
X115553750Y-72710000I243750J0D01*
G01*
X116041250Y-72710000D01*
G75*
G02*
X116285000Y-72953750I0J-243750D01*
G01*
X116285000Y-73516250D01*
G75*
G02*
X116041250Y-73760000I-243750J0D01*
G01*
X115553750Y-73760000D01*
G75*
G02*
X115310000Y-73516250I0J243750D01*
G01*
G37*
G36*
G01*
X116885000Y-73516250D02*
X116885000Y-72953750D01*
G75*
G02*
X117128750Y-72710000I243750J0D01*
G01*
X117616250Y-72710000D01*
G75*
G02*
X117860000Y-72953750I0J-243750D01*
G01*
X117860000Y-73516250D01*
G75*
G02*
X117616250Y-73760000I-243750J0D01*
G01*
X117128750Y-73760000D01*
G75*
G02*
X116885000Y-73516250I0J243750D01*
G01*
G37*
%TD*%
%TO.C,C8*%
G36*
G01*
X122860000Y-86953750D02*
X122860000Y-87516250D01*
G75*
G02*
X122616250Y-87760000I-243750J0D01*
G01*
X122128750Y-87760000D01*
G75*
G02*
X121885000Y-87516250I0J243750D01*
G01*
X121885000Y-86953750D01*
G75*
G02*
X122128750Y-86710000I243750J0D01*
G01*
X122616250Y-86710000D01*
G75*
G02*
X122860000Y-86953750I0J-243750D01*
G01*
G37*
G36*
G01*
X121285000Y-86953750D02*
X121285000Y-87516250D01*
G75*
G02*
X121041250Y-87760000I-243750J0D01*
G01*
X120553750Y-87760000D01*
G75*
G02*
X120310000Y-87516250I0J243750D01*
G01*
X120310000Y-86953750D01*
G75*
G02*
X120553750Y-86710000I243750J0D01*
G01*
X121041250Y-86710000D01*
G75*
G02*
X121285000Y-86953750I0J-243750D01*
G01*
G37*
%TD*%
%TO.C,C9*%
G36*
G01*
X125053750Y-78710000D02*
X125616250Y-78710000D01*
G75*
G02*
X125860000Y-78953750I0J-243750D01*
G01*
X125860000Y-79441250D01*
G75*
G02*
X125616250Y-79685000I-243750J0D01*
G01*
X125053750Y-79685000D01*
G75*
G02*
X124810000Y-79441250I0J243750D01*
G01*
X124810000Y-78953750D01*
G75*
G02*
X125053750Y-78710000I243750J0D01*
G01*
G37*
G36*
G01*
X125053750Y-80285000D02*
X125616250Y-80285000D01*
G75*
G02*
X125860000Y-80528750I0J-243750D01*
G01*
X125860000Y-81016250D01*
G75*
G02*
X125616250Y-81260000I-243750J0D01*
G01*
X125053750Y-81260000D01*
G75*
G02*
X124810000Y-81016250I0J243750D01*
G01*
X124810000Y-80528750D01*
G75*
G02*
X125053750Y-80285000I243750J0D01*
G01*
G37*
%TD*%
%TO.C,C4*%
G36*
G01*
X129866250Y-88010000D02*
X129303750Y-88010000D01*
G75*
G02*
X129060000Y-87766250I0J243750D01*
G01*
X129060000Y-87278750D01*
G75*
G02*
X129303750Y-87035000I243750J0D01*
G01*
X129866250Y-87035000D01*
G75*
G02*
X130110000Y-87278750I0J-243750D01*
G01*
X130110000Y-87766250D01*
G75*
G02*
X129866250Y-88010000I-243750J0D01*
G01*
G37*
G36*
G01*
X129866250Y-86435000D02*
X129303750Y-86435000D01*
G75*
G02*
X129060000Y-86191250I0J243750D01*
G01*
X129060000Y-85703750D01*
G75*
G02*
X129303750Y-85460000I243750J0D01*
G01*
X129866250Y-85460000D01*
G75*
G02*
X130110000Y-85703750I0J-243750D01*
G01*
X130110000Y-86191250D01*
G75*
G02*
X129866250Y-86435000I-243750J0D01*
G01*
G37*
%TD*%
%TO.C,C7*%
G36*
G01*
X115310000Y-75016250D02*
X115310000Y-74453750D01*
G75*
G02*
X115553750Y-74210000I243750J0D01*
G01*
X116041250Y-74210000D01*
G75*
G02*
X116285000Y-74453750I0J-243750D01*
G01*
X116285000Y-75016250D01*
G75*
G02*
X116041250Y-75260000I-243750J0D01*
G01*
X115553750Y-75260000D01*
G75*
G02*
X115310000Y-75016250I0J243750D01*
G01*
G37*
G36*
G01*
X116885000Y-75016250D02*
X116885000Y-74453750D01*
G75*
G02*
X117128750Y-74210000I243750J0D01*
G01*
X117616250Y-74210000D01*
G75*
G02*
X117860000Y-74453750I0J-243750D01*
G01*
X117860000Y-75016250D01*
G75*
G02*
X117616250Y-75260000I-243750J0D01*
G01*
X117128750Y-75260000D01*
G75*
G02*
X116885000Y-75016250I0J243750D01*
G01*
G37*
%TD*%
%TO.C,C5*%
G36*
G01*
X129303750Y-81960000D02*
X129866250Y-81960000D01*
G75*
G02*
X130110000Y-82203750I0J-243750D01*
G01*
X130110000Y-82691250D01*
G75*
G02*
X129866250Y-82935000I-243750J0D01*
G01*
X129303750Y-82935000D01*
G75*
G02*
X129060000Y-82691250I0J243750D01*
G01*
X129060000Y-82203750D01*
G75*
G02*
X129303750Y-81960000I243750J0D01*
G01*
G37*
G36*
G01*
X129303750Y-83535000D02*
X129866250Y-83535000D01*
G75*
G02*
X130110000Y-83778750I0J-243750D01*
G01*
X130110000Y-84266250D01*
G75*
G02*
X129866250Y-84510000I-243750J0D01*
G01*
X129303750Y-84510000D01*
G75*
G02*
X129060000Y-84266250I0J243750D01*
G01*
X129060000Y-83778750D01*
G75*
G02*
X129303750Y-83535000I243750J0D01*
G01*
G37*
%TD*%
%TO.C,C3*%
G36*
G01*
X126116250Y-72185000D02*
X125553750Y-72185000D01*
G75*
G02*
X125310000Y-71941250I0J243750D01*
G01*
X125310000Y-71453750D01*
G75*
G02*
X125553750Y-71210000I243750J0D01*
G01*
X126116250Y-71210000D01*
G75*
G02*
X126360000Y-71453750I0J-243750D01*
G01*
X126360000Y-71941250D01*
G75*
G02*
X126116250Y-72185000I-243750J0D01*
G01*
G37*
G36*
G01*
X126116250Y-73760000D02*
X125553750Y-73760000D01*
G75*
G02*
X125310000Y-73516250I0J243750D01*
G01*
X125310000Y-73028750D01*
G75*
G02*
X125553750Y-72785000I243750J0D01*
G01*
X126116250Y-72785000D01*
G75*
G02*
X126360000Y-73028750I0J-243750D01*
G01*
X126360000Y-73516250D01*
G75*
G02*
X126116250Y-73760000I-243750J0D01*
G01*
G37*
%TD*%
%TO.C,R16*%
G36*
G01*
X118866250Y-91547500D02*
X118303750Y-91547500D01*
G75*
G02*
X118060000Y-91303750I0J243750D01*
G01*
X118060000Y-90816250D01*
G75*
G02*
X118303750Y-90572500I243750J0D01*
G01*
X118866250Y-90572500D01*
G75*
G02*
X119110000Y-90816250I0J-243750D01*
G01*
X119110000Y-91303750D01*
G75*
G02*
X118866250Y-91547500I-243750J0D01*
G01*
G37*
G36*
G01*
X118866250Y-89972500D02*
X118303750Y-89972500D01*
G75*
G02*
X118060000Y-89728750I0J243750D01*
G01*
X118060000Y-89241250D01*
G75*
G02*
X118303750Y-88997500I243750J0D01*
G01*
X118866250Y-88997500D01*
G75*
G02*
X119110000Y-89241250I0J-243750D01*
G01*
X119110000Y-89728750D01*
G75*
G02*
X118866250Y-89972500I-243750J0D01*
G01*
G37*
%TD*%
D12*
%TO.C,SW1*%
X127335000Y-68485000D03*
X127335000Y-63985000D03*
X133835000Y-68485000D03*
X133835000Y-63985000D03*
%TD*%
D13*
%TO.C,Y1*%
X126585000Y-86835000D03*
X126585000Y-83135000D03*
%TD*%
%TO.C,C6*%
G36*
G01*
X113116250Y-85510000D02*
X112553750Y-85510000D01*
G75*
G02*
X112310000Y-85266250I0J243750D01*
G01*
X112310000Y-84778750D01*
G75*
G02*
X112553750Y-84535000I243750J0D01*
G01*
X113116250Y-84535000D01*
G75*
G02*
X113360000Y-84778750I0J-243750D01*
G01*
X113360000Y-85266250D01*
G75*
G02*
X113116250Y-85510000I-243750J0D01*
G01*
G37*
G36*
G01*
X113116250Y-83935000D02*
X112553750Y-83935000D01*
G75*
G02*
X112310000Y-83691250I0J243750D01*
G01*
X112310000Y-83203750D01*
G75*
G02*
X112553750Y-82960000I243750J0D01*
G01*
X113116250Y-82960000D01*
G75*
G02*
X113360000Y-83203750I0J-243750D01*
G01*
X113360000Y-83691250D01*
G75*
G02*
X113116250Y-83935000I-243750J0D01*
G01*
G37*
%TD*%
%TO.C,FB1*%
G36*
G01*
X95685000Y-101253750D02*
X95685000Y-102216250D01*
G75*
G02*
X95416250Y-102485000I-268750J0D01*
G01*
X94878750Y-102485000D01*
G75*
G02*
X94610000Y-102216250I0J268750D01*
G01*
X94610000Y-101253750D01*
G75*
G02*
X94878750Y-100985000I268750J0D01*
G01*
X95416250Y-100985000D01*
G75*
G02*
X95685000Y-101253750I0J-268750D01*
G01*
G37*
G36*
G01*
X97560000Y-101253750D02*
X97560000Y-102216250D01*
G75*
G02*
X97291250Y-102485000I-268750J0D01*
G01*
X96753750Y-102485000D01*
G75*
G02*
X96485000Y-102216250I0J268750D01*
G01*
X96485000Y-101253750D01*
G75*
G02*
X96753750Y-100985000I268750J0D01*
G01*
X97291250Y-100985000D01*
G75*
G02*
X97560000Y-101253750I0J-268750D01*
G01*
G37*
%TD*%
%TO.C,U4*%
G36*
G01*
X168135000Y-78335000D02*
X168135000Y-78135000D01*
G75*
G02*
X168235000Y-78035000I100000J0D01*
G01*
X169610000Y-78035000D01*
G75*
G02*
X169710000Y-78135000I0J-100000D01*
G01*
X169710000Y-78335000D01*
G75*
G02*
X169610000Y-78435000I-100000J0D01*
G01*
X168235000Y-78435000D01*
G75*
G02*
X168135000Y-78335000I0J100000D01*
G01*
G37*
G36*
G01*
X168135000Y-78835000D02*
X168135000Y-78635000D01*
G75*
G02*
X168235000Y-78535000I100000J0D01*
G01*
X169610000Y-78535000D01*
G75*
G02*
X169710000Y-78635000I0J-100000D01*
G01*
X169710000Y-78835000D01*
G75*
G02*
X169610000Y-78935000I-100000J0D01*
G01*
X168235000Y-78935000D01*
G75*
G02*
X168135000Y-78835000I0J100000D01*
G01*
G37*
G36*
G01*
X168135000Y-79335000D02*
X168135000Y-79135000D01*
G75*
G02*
X168235000Y-79035000I100000J0D01*
G01*
X169610000Y-79035000D01*
G75*
G02*
X169710000Y-79135000I0J-100000D01*
G01*
X169710000Y-79335000D01*
G75*
G02*
X169610000Y-79435000I-100000J0D01*
G01*
X168235000Y-79435000D01*
G75*
G02*
X168135000Y-79335000I0J100000D01*
G01*
G37*
G36*
G01*
X168135000Y-79835000D02*
X168135000Y-79635000D01*
G75*
G02*
X168235000Y-79535000I100000J0D01*
G01*
X169610000Y-79535000D01*
G75*
G02*
X169710000Y-79635000I0J-100000D01*
G01*
X169710000Y-79835000D01*
G75*
G02*
X169610000Y-79935000I-100000J0D01*
G01*
X168235000Y-79935000D01*
G75*
G02*
X168135000Y-79835000I0J100000D01*
G01*
G37*
G36*
G01*
X168135000Y-80335000D02*
X168135000Y-80135000D01*
G75*
G02*
X168235000Y-80035000I100000J0D01*
G01*
X169610000Y-80035000D01*
G75*
G02*
X169710000Y-80135000I0J-100000D01*
G01*
X169710000Y-80335000D01*
G75*
G02*
X169610000Y-80435000I-100000J0D01*
G01*
X168235000Y-80435000D01*
G75*
G02*
X168135000Y-80335000I0J100000D01*
G01*
G37*
G36*
G01*
X168135000Y-80835000D02*
X168135000Y-80635000D01*
G75*
G02*
X168235000Y-80535000I100000J0D01*
G01*
X169610000Y-80535000D01*
G75*
G02*
X169710000Y-80635000I0J-100000D01*
G01*
X169710000Y-80835000D01*
G75*
G02*
X169610000Y-80935000I-100000J0D01*
G01*
X168235000Y-80935000D01*
G75*
G02*
X168135000Y-80835000I0J100000D01*
G01*
G37*
G36*
G01*
X168135000Y-81335000D02*
X168135000Y-81135000D01*
G75*
G02*
X168235000Y-81035000I100000J0D01*
G01*
X169610000Y-81035000D01*
G75*
G02*
X169710000Y-81135000I0J-100000D01*
G01*
X169710000Y-81335000D01*
G75*
G02*
X169610000Y-81435000I-100000J0D01*
G01*
X168235000Y-81435000D01*
G75*
G02*
X168135000Y-81335000I0J100000D01*
G01*
G37*
G36*
G01*
X168135000Y-81835000D02*
X168135000Y-81635000D01*
G75*
G02*
X168235000Y-81535000I100000J0D01*
G01*
X169610000Y-81535000D01*
G75*
G02*
X169710000Y-81635000I0J-100000D01*
G01*
X169710000Y-81835000D01*
G75*
G02*
X169610000Y-81935000I-100000J0D01*
G01*
X168235000Y-81935000D01*
G75*
G02*
X168135000Y-81835000I0J100000D01*
G01*
G37*
G36*
G01*
X168135000Y-82335000D02*
X168135000Y-82135000D01*
G75*
G02*
X168235000Y-82035000I100000J0D01*
G01*
X169610000Y-82035000D01*
G75*
G02*
X169710000Y-82135000I0J-100000D01*
G01*
X169710000Y-82335000D01*
G75*
G02*
X169610000Y-82435000I-100000J0D01*
G01*
X168235000Y-82435000D01*
G75*
G02*
X168135000Y-82335000I0J100000D01*
G01*
G37*
G36*
G01*
X168135000Y-82835000D02*
X168135000Y-82635000D01*
G75*
G02*
X168235000Y-82535000I100000J0D01*
G01*
X169610000Y-82535000D01*
G75*
G02*
X169710000Y-82635000I0J-100000D01*
G01*
X169710000Y-82835000D01*
G75*
G02*
X169610000Y-82935000I-100000J0D01*
G01*
X168235000Y-82935000D01*
G75*
G02*
X168135000Y-82835000I0J100000D01*
G01*
G37*
G36*
G01*
X168135000Y-83335000D02*
X168135000Y-83135000D01*
G75*
G02*
X168235000Y-83035000I100000J0D01*
G01*
X169610000Y-83035000D01*
G75*
G02*
X169710000Y-83135000I0J-100000D01*
G01*
X169710000Y-83335000D01*
G75*
G02*
X169610000Y-83435000I-100000J0D01*
G01*
X168235000Y-83435000D01*
G75*
G02*
X168135000Y-83335000I0J100000D01*
G01*
G37*
G36*
G01*
X168135000Y-83835000D02*
X168135000Y-83635000D01*
G75*
G02*
X168235000Y-83535000I100000J0D01*
G01*
X169610000Y-83535000D01*
G75*
G02*
X169710000Y-83635000I0J-100000D01*
G01*
X169710000Y-83835000D01*
G75*
G02*
X169610000Y-83935000I-100000J0D01*
G01*
X168235000Y-83935000D01*
G75*
G02*
X168135000Y-83835000I0J100000D01*
G01*
G37*
G36*
G01*
X170135000Y-85835000D02*
X170135000Y-84460000D01*
G75*
G02*
X170235000Y-84360000I100000J0D01*
G01*
X170435000Y-84360000D01*
G75*
G02*
X170535000Y-84460000I0J-100000D01*
G01*
X170535000Y-85835000D01*
G75*
G02*
X170435000Y-85935000I-100000J0D01*
G01*
X170235000Y-85935000D01*
G75*
G02*
X170135000Y-85835000I0J100000D01*
G01*
G37*
G36*
G01*
X170635000Y-85835000D02*
X170635000Y-84460000D01*
G75*
G02*
X170735000Y-84360000I100000J0D01*
G01*
X170935000Y-84360000D01*
G75*
G02*
X171035000Y-84460000I0J-100000D01*
G01*
X171035000Y-85835000D01*
G75*
G02*
X170935000Y-85935000I-100000J0D01*
G01*
X170735000Y-85935000D01*
G75*
G02*
X170635000Y-85835000I0J100000D01*
G01*
G37*
G36*
G01*
X171135000Y-85835000D02*
X171135000Y-84460000D01*
G75*
G02*
X171235000Y-84360000I100000J0D01*
G01*
X171435000Y-84360000D01*
G75*
G02*
X171535000Y-84460000I0J-100000D01*
G01*
X171535000Y-85835000D01*
G75*
G02*
X171435000Y-85935000I-100000J0D01*
G01*
X171235000Y-85935000D01*
G75*
G02*
X171135000Y-85835000I0J100000D01*
G01*
G37*
G36*
G01*
X171635000Y-85835000D02*
X171635000Y-84460000D01*
G75*
G02*
X171735000Y-84360000I100000J0D01*
G01*
X171935000Y-84360000D01*
G75*
G02*
X172035000Y-84460000I0J-100000D01*
G01*
X172035000Y-85835000D01*
G75*
G02*
X171935000Y-85935000I-100000J0D01*
G01*
X171735000Y-85935000D01*
G75*
G02*
X171635000Y-85835000I0J100000D01*
G01*
G37*
G36*
G01*
X172135000Y-85835000D02*
X172135000Y-84460000D01*
G75*
G02*
X172235000Y-84360000I100000J0D01*
G01*
X172435000Y-84360000D01*
G75*
G02*
X172535000Y-84460000I0J-100000D01*
G01*
X172535000Y-85835000D01*
G75*
G02*
X172435000Y-85935000I-100000J0D01*
G01*
X172235000Y-85935000D01*
G75*
G02*
X172135000Y-85835000I0J100000D01*
G01*
G37*
G36*
G01*
X172635000Y-85835000D02*
X172635000Y-84460000D01*
G75*
G02*
X172735000Y-84360000I100000J0D01*
G01*
X172935000Y-84360000D01*
G75*
G02*
X173035000Y-84460000I0J-100000D01*
G01*
X173035000Y-85835000D01*
G75*
G02*
X172935000Y-85935000I-100000J0D01*
G01*
X172735000Y-85935000D01*
G75*
G02*
X172635000Y-85835000I0J100000D01*
G01*
G37*
G36*
G01*
X173135000Y-85835000D02*
X173135000Y-84460000D01*
G75*
G02*
X173235000Y-84360000I100000J0D01*
G01*
X173435000Y-84360000D01*
G75*
G02*
X173535000Y-84460000I0J-100000D01*
G01*
X173535000Y-85835000D01*
G75*
G02*
X173435000Y-85935000I-100000J0D01*
G01*
X173235000Y-85935000D01*
G75*
G02*
X173135000Y-85835000I0J100000D01*
G01*
G37*
G36*
G01*
X173635000Y-85835000D02*
X173635000Y-84460000D01*
G75*
G02*
X173735000Y-84360000I100000J0D01*
G01*
X173935000Y-84360000D01*
G75*
G02*
X174035000Y-84460000I0J-100000D01*
G01*
X174035000Y-85835000D01*
G75*
G02*
X173935000Y-85935000I-100000J0D01*
G01*
X173735000Y-85935000D01*
G75*
G02*
X173635000Y-85835000I0J100000D01*
G01*
G37*
G36*
G01*
X174135000Y-85835000D02*
X174135000Y-84460000D01*
G75*
G02*
X174235000Y-84360000I100000J0D01*
G01*
X174435000Y-84360000D01*
G75*
G02*
X174535000Y-84460000I0J-100000D01*
G01*
X174535000Y-85835000D01*
G75*
G02*
X174435000Y-85935000I-100000J0D01*
G01*
X174235000Y-85935000D01*
G75*
G02*
X174135000Y-85835000I0J100000D01*
G01*
G37*
G36*
G01*
X174635000Y-85835000D02*
X174635000Y-84460000D01*
G75*
G02*
X174735000Y-84360000I100000J0D01*
G01*
X174935000Y-84360000D01*
G75*
G02*
X175035000Y-84460000I0J-100000D01*
G01*
X175035000Y-85835000D01*
G75*
G02*
X174935000Y-85935000I-100000J0D01*
G01*
X174735000Y-85935000D01*
G75*
G02*
X174635000Y-85835000I0J100000D01*
G01*
G37*
G36*
G01*
X175135000Y-85835000D02*
X175135000Y-84460000D01*
G75*
G02*
X175235000Y-84360000I100000J0D01*
G01*
X175435000Y-84360000D01*
G75*
G02*
X175535000Y-84460000I0J-100000D01*
G01*
X175535000Y-85835000D01*
G75*
G02*
X175435000Y-85935000I-100000J0D01*
G01*
X175235000Y-85935000D01*
G75*
G02*
X175135000Y-85835000I0J100000D01*
G01*
G37*
G36*
G01*
X175635000Y-85835000D02*
X175635000Y-84460000D01*
G75*
G02*
X175735000Y-84360000I100000J0D01*
G01*
X175935000Y-84360000D01*
G75*
G02*
X176035000Y-84460000I0J-100000D01*
G01*
X176035000Y-85835000D01*
G75*
G02*
X175935000Y-85935000I-100000J0D01*
G01*
X175735000Y-85935000D01*
G75*
G02*
X175635000Y-85835000I0J100000D01*
G01*
G37*
G36*
G01*
X176460000Y-83835000D02*
X176460000Y-83635000D01*
G75*
G02*
X176560000Y-83535000I100000J0D01*
G01*
X177935000Y-83535000D01*
G75*
G02*
X178035000Y-83635000I0J-100000D01*
G01*
X178035000Y-83835000D01*
G75*
G02*
X177935000Y-83935000I-100000J0D01*
G01*
X176560000Y-83935000D01*
G75*
G02*
X176460000Y-83835000I0J100000D01*
G01*
G37*
G36*
G01*
X176460000Y-83335000D02*
X176460000Y-83135000D01*
G75*
G02*
X176560000Y-83035000I100000J0D01*
G01*
X177935000Y-83035000D01*
G75*
G02*
X178035000Y-83135000I0J-100000D01*
G01*
X178035000Y-83335000D01*
G75*
G02*
X177935000Y-83435000I-100000J0D01*
G01*
X176560000Y-83435000D01*
G75*
G02*
X176460000Y-83335000I0J100000D01*
G01*
G37*
G36*
G01*
X176460000Y-82835000D02*
X176460000Y-82635000D01*
G75*
G02*
X176560000Y-82535000I100000J0D01*
G01*
X177935000Y-82535000D01*
G75*
G02*
X178035000Y-82635000I0J-100000D01*
G01*
X178035000Y-82835000D01*
G75*
G02*
X177935000Y-82935000I-100000J0D01*
G01*
X176560000Y-82935000D01*
G75*
G02*
X176460000Y-82835000I0J100000D01*
G01*
G37*
G36*
G01*
X176460000Y-82335000D02*
X176460000Y-82135000D01*
G75*
G02*
X176560000Y-82035000I100000J0D01*
G01*
X177935000Y-82035000D01*
G75*
G02*
X178035000Y-82135000I0J-100000D01*
G01*
X178035000Y-82335000D01*
G75*
G02*
X177935000Y-82435000I-100000J0D01*
G01*
X176560000Y-82435000D01*
G75*
G02*
X176460000Y-82335000I0J100000D01*
G01*
G37*
G36*
G01*
X176460000Y-81835000D02*
X176460000Y-81635000D01*
G75*
G02*
X176560000Y-81535000I100000J0D01*
G01*
X177935000Y-81535000D01*
G75*
G02*
X178035000Y-81635000I0J-100000D01*
G01*
X178035000Y-81835000D01*
G75*
G02*
X177935000Y-81935000I-100000J0D01*
G01*
X176560000Y-81935000D01*
G75*
G02*
X176460000Y-81835000I0J100000D01*
G01*
G37*
G36*
G01*
X176460000Y-81335000D02*
X176460000Y-81135000D01*
G75*
G02*
X176560000Y-81035000I100000J0D01*
G01*
X177935000Y-81035000D01*
G75*
G02*
X178035000Y-81135000I0J-100000D01*
G01*
X178035000Y-81335000D01*
G75*
G02*
X177935000Y-81435000I-100000J0D01*
G01*
X176560000Y-81435000D01*
G75*
G02*
X176460000Y-81335000I0J100000D01*
G01*
G37*
G36*
G01*
X176460000Y-80835000D02*
X176460000Y-80635000D01*
G75*
G02*
X176560000Y-80535000I100000J0D01*
G01*
X177935000Y-80535000D01*
G75*
G02*
X178035000Y-80635000I0J-100000D01*
G01*
X178035000Y-80835000D01*
G75*
G02*
X177935000Y-80935000I-100000J0D01*
G01*
X176560000Y-80935000D01*
G75*
G02*
X176460000Y-80835000I0J100000D01*
G01*
G37*
G36*
G01*
X176460000Y-80335000D02*
X176460000Y-80135000D01*
G75*
G02*
X176560000Y-80035000I100000J0D01*
G01*
X177935000Y-80035000D01*
G75*
G02*
X178035000Y-80135000I0J-100000D01*
G01*
X178035000Y-80335000D01*
G75*
G02*
X177935000Y-80435000I-100000J0D01*
G01*
X176560000Y-80435000D01*
G75*
G02*
X176460000Y-80335000I0J100000D01*
G01*
G37*
G36*
G01*
X176460000Y-79835000D02*
X176460000Y-79635000D01*
G75*
G02*
X176560000Y-79535000I100000J0D01*
G01*
X177935000Y-79535000D01*
G75*
G02*
X178035000Y-79635000I0J-100000D01*
G01*
X178035000Y-79835000D01*
G75*
G02*
X177935000Y-79935000I-100000J0D01*
G01*
X176560000Y-79935000D01*
G75*
G02*
X176460000Y-79835000I0J100000D01*
G01*
G37*
G36*
G01*
X176460000Y-79335000D02*
X176460000Y-79135000D01*
G75*
G02*
X176560000Y-79035000I100000J0D01*
G01*
X177935000Y-79035000D01*
G75*
G02*
X178035000Y-79135000I0J-100000D01*
G01*
X178035000Y-79335000D01*
G75*
G02*
X177935000Y-79435000I-100000J0D01*
G01*
X176560000Y-79435000D01*
G75*
G02*
X176460000Y-79335000I0J100000D01*
G01*
G37*
G36*
G01*
X176460000Y-78835000D02*
X176460000Y-78635000D01*
G75*
G02*
X176560000Y-78535000I100000J0D01*
G01*
X177935000Y-78535000D01*
G75*
G02*
X178035000Y-78635000I0J-100000D01*
G01*
X178035000Y-78835000D01*
G75*
G02*
X177935000Y-78935000I-100000J0D01*
G01*
X176560000Y-78935000D01*
G75*
G02*
X176460000Y-78835000I0J100000D01*
G01*
G37*
G36*
G01*
X176460000Y-78335000D02*
X176460000Y-78135000D01*
G75*
G02*
X176560000Y-78035000I100000J0D01*
G01*
X177935000Y-78035000D01*
G75*
G02*
X178035000Y-78135000I0J-100000D01*
G01*
X178035000Y-78335000D01*
G75*
G02*
X177935000Y-78435000I-100000J0D01*
G01*
X176560000Y-78435000D01*
G75*
G02*
X176460000Y-78335000I0J100000D01*
G01*
G37*
G36*
G01*
X175635000Y-77510000D02*
X175635000Y-76135000D01*
G75*
G02*
X175735000Y-76035000I100000J0D01*
G01*
X175935000Y-76035000D01*
G75*
G02*
X176035000Y-76135000I0J-100000D01*
G01*
X176035000Y-77510000D01*
G75*
G02*
X175935000Y-77610000I-100000J0D01*
G01*
X175735000Y-77610000D01*
G75*
G02*
X175635000Y-77510000I0J100000D01*
G01*
G37*
G36*
G01*
X175135000Y-77510000D02*
X175135000Y-76135000D01*
G75*
G02*
X175235000Y-76035000I100000J0D01*
G01*
X175435000Y-76035000D01*
G75*
G02*
X175535000Y-76135000I0J-100000D01*
G01*
X175535000Y-77510000D01*
G75*
G02*
X175435000Y-77610000I-100000J0D01*
G01*
X175235000Y-77610000D01*
G75*
G02*
X175135000Y-77510000I0J100000D01*
G01*
G37*
G36*
G01*
X174635000Y-77510000D02*
X174635000Y-76135000D01*
G75*
G02*
X174735000Y-76035000I100000J0D01*
G01*
X174935000Y-76035000D01*
G75*
G02*
X175035000Y-76135000I0J-100000D01*
G01*
X175035000Y-77510000D01*
G75*
G02*
X174935000Y-77610000I-100000J0D01*
G01*
X174735000Y-77610000D01*
G75*
G02*
X174635000Y-77510000I0J100000D01*
G01*
G37*
G36*
G01*
X174135000Y-77510000D02*
X174135000Y-76135000D01*
G75*
G02*
X174235000Y-76035000I100000J0D01*
G01*
X174435000Y-76035000D01*
G75*
G02*
X174535000Y-76135000I0J-100000D01*
G01*
X174535000Y-77510000D01*
G75*
G02*
X174435000Y-77610000I-100000J0D01*
G01*
X174235000Y-77610000D01*
G75*
G02*
X174135000Y-77510000I0J100000D01*
G01*
G37*
G36*
G01*
X173635000Y-77510000D02*
X173635000Y-76135000D01*
G75*
G02*
X173735000Y-76035000I100000J0D01*
G01*
X173935000Y-76035000D01*
G75*
G02*
X174035000Y-76135000I0J-100000D01*
G01*
X174035000Y-77510000D01*
G75*
G02*
X173935000Y-77610000I-100000J0D01*
G01*
X173735000Y-77610000D01*
G75*
G02*
X173635000Y-77510000I0J100000D01*
G01*
G37*
G36*
G01*
X173135000Y-77510000D02*
X173135000Y-76135000D01*
G75*
G02*
X173235000Y-76035000I100000J0D01*
G01*
X173435000Y-76035000D01*
G75*
G02*
X173535000Y-76135000I0J-100000D01*
G01*
X173535000Y-77510000D01*
G75*
G02*
X173435000Y-77610000I-100000J0D01*
G01*
X173235000Y-77610000D01*
G75*
G02*
X173135000Y-77510000I0J100000D01*
G01*
G37*
G36*
G01*
X172635000Y-77510000D02*
X172635000Y-76135000D01*
G75*
G02*
X172735000Y-76035000I100000J0D01*
G01*
X172935000Y-76035000D01*
G75*
G02*
X173035000Y-76135000I0J-100000D01*
G01*
X173035000Y-77510000D01*
G75*
G02*
X172935000Y-77610000I-100000J0D01*
G01*
X172735000Y-77610000D01*
G75*
G02*
X172635000Y-77510000I0J100000D01*
G01*
G37*
G36*
G01*
X172135000Y-77510000D02*
X172135000Y-76135000D01*
G75*
G02*
X172235000Y-76035000I100000J0D01*
G01*
X172435000Y-76035000D01*
G75*
G02*
X172535000Y-76135000I0J-100000D01*
G01*
X172535000Y-77510000D01*
G75*
G02*
X172435000Y-77610000I-100000J0D01*
G01*
X172235000Y-77610000D01*
G75*
G02*
X172135000Y-77510000I0J100000D01*
G01*
G37*
G36*
G01*
X171635000Y-77510000D02*
X171635000Y-76135000D01*
G75*
G02*
X171735000Y-76035000I100000J0D01*
G01*
X171935000Y-76035000D01*
G75*
G02*
X172035000Y-76135000I0J-100000D01*
G01*
X172035000Y-77510000D01*
G75*
G02*
X171935000Y-77610000I-100000J0D01*
G01*
X171735000Y-77610000D01*
G75*
G02*
X171635000Y-77510000I0J100000D01*
G01*
G37*
G36*
G01*
X171135000Y-77510000D02*
X171135000Y-76135000D01*
G75*
G02*
X171235000Y-76035000I100000J0D01*
G01*
X171435000Y-76035000D01*
G75*
G02*
X171535000Y-76135000I0J-100000D01*
G01*
X171535000Y-77510000D01*
G75*
G02*
X171435000Y-77610000I-100000J0D01*
G01*
X171235000Y-77610000D01*
G75*
G02*
X171135000Y-77510000I0J100000D01*
G01*
G37*
G36*
G01*
X170635000Y-77510000D02*
X170635000Y-76135000D01*
G75*
G02*
X170735000Y-76035000I100000J0D01*
G01*
X170935000Y-76035000D01*
G75*
G02*
X171035000Y-76135000I0J-100000D01*
G01*
X171035000Y-77510000D01*
G75*
G02*
X170935000Y-77610000I-100000J0D01*
G01*
X170735000Y-77610000D01*
G75*
G02*
X170635000Y-77510000I0J100000D01*
G01*
G37*
G36*
G01*
X170135000Y-77510000D02*
X170135000Y-76135000D01*
G75*
G02*
X170235000Y-76035000I100000J0D01*
G01*
X170435000Y-76035000D01*
G75*
G02*
X170535000Y-76135000I0J-100000D01*
G01*
X170535000Y-77510000D01*
G75*
G02*
X170435000Y-77610000I-100000J0D01*
G01*
X170235000Y-77610000D01*
G75*
G02*
X170135000Y-77510000I0J100000D01*
G01*
G37*
%TD*%
D14*
%TO.C,J1*%
X96801000Y-85263000D03*
X96801000Y-84463000D03*
X96801000Y-79563000D03*
X96801000Y-78763000D03*
X96801000Y-78763000D03*
X96801000Y-79563000D03*
X96801000Y-84463000D03*
X96801000Y-85263000D03*
D15*
X96801000Y-80263000D03*
X96801000Y-80763000D03*
X96801000Y-81263000D03*
X96801000Y-82263000D03*
X96801000Y-82763000D03*
X96801000Y-83263000D03*
X96801000Y-83763000D03*
X96801000Y-81763000D03*
D16*
X95886000Y-86333000D03*
X95886000Y-77693000D03*
D17*
X95356000Y-79123000D03*
D18*
X91706000Y-77693000D03*
D17*
X95356000Y-84903000D03*
D18*
X91706000Y-86333000D03*
%TD*%
%TO.C,R15*%
G36*
G01*
X110616250Y-81472500D02*
X110053750Y-81472500D01*
G75*
G02*
X109810000Y-81228750I0J243750D01*
G01*
X109810000Y-80741250D01*
G75*
G02*
X110053750Y-80497500I243750J0D01*
G01*
X110616250Y-80497500D01*
G75*
G02*
X110860000Y-80741250I0J-243750D01*
G01*
X110860000Y-81228750D01*
G75*
G02*
X110616250Y-81472500I-243750J0D01*
G01*
G37*
G36*
G01*
X110616250Y-83047500D02*
X110053750Y-83047500D01*
G75*
G02*
X109810000Y-82803750I0J243750D01*
G01*
X109810000Y-82316250D01*
G75*
G02*
X110053750Y-82072500I243750J0D01*
G01*
X110616250Y-82072500D01*
G75*
G02*
X110860000Y-82316250I0J-243750D01*
G01*
X110860000Y-82803750D01*
G75*
G02*
X110616250Y-83047500I-243750J0D01*
G01*
G37*
%TD*%
%TO.C,C16*%
G36*
G01*
X179053750Y-78785000D02*
X179616250Y-78785000D01*
G75*
G02*
X179860000Y-79028750I0J-243750D01*
G01*
X179860000Y-79516250D01*
G75*
G02*
X179616250Y-79760000I-243750J0D01*
G01*
X179053750Y-79760000D01*
G75*
G02*
X178810000Y-79516250I0J243750D01*
G01*
X178810000Y-79028750D01*
G75*
G02*
X179053750Y-78785000I243750J0D01*
G01*
G37*
G36*
G01*
X179053750Y-77210000D02*
X179616250Y-77210000D01*
G75*
G02*
X179860000Y-77453750I0J-243750D01*
G01*
X179860000Y-77941250D01*
G75*
G02*
X179616250Y-78185000I-243750J0D01*
G01*
X179053750Y-78185000D01*
G75*
G02*
X178810000Y-77941250I0J243750D01*
G01*
X178810000Y-77453750D01*
G75*
G02*
X179053750Y-77210000I243750J0D01*
G01*
G37*
%TD*%
D12*
%TO.C,SW7*%
X162660000Y-113625000D03*
X162660000Y-118125000D03*
X156160000Y-113625000D03*
X156160000Y-118125000D03*
%TD*%
%TO.C,SW6*%
X151660000Y-124625000D03*
X151660000Y-129125000D03*
X145160000Y-124625000D03*
X145160000Y-129125000D03*
%TD*%
%TO.C,SW4*%
X173660000Y-124625000D03*
X173660000Y-129125000D03*
X167160000Y-124625000D03*
X167160000Y-129125000D03*
%TD*%
%TO.C,SW3*%
X162660000Y-135625000D03*
X162660000Y-140125000D03*
X156160000Y-135625000D03*
X156160000Y-140125000D03*
%TD*%
D19*
%TO.C,FID3*%
X180835000Y-136235000D03*
%TD*%
%TO.C,FID2*%
X180835000Y-54235000D03*
%TD*%
%TO.C,FID1*%
X98835000Y-54235000D03*
%TD*%
D20*
%TO.C,U1*%
X104385000Y-101757000D03*
X99785000Y-101757000D03*
X102085000Y-101757000D03*
D21*
X102085000Y-108057000D03*
%TD*%
D13*
%TO.C,Y2*%
X165585000Y-78835000D03*
X165585000Y-75135000D03*
%TD*%
D10*
%TO.C,U3*%
X118565000Y-114195000D03*
D11*
X116025000Y-114195000D03*
D10*
X121105000Y-114195000D03*
X123645000Y-114195000D03*
%TD*%
D12*
%TO.C,SW5*%
X158335000Y-97985000D03*
X158335000Y-93485000D03*
X164835000Y-97985000D03*
X164835000Y-93485000D03*
%TD*%
%TO.C,SW8*%
X162660000Y-124625000D03*
X162660000Y-129125000D03*
X156160000Y-124625000D03*
X156160000Y-129125000D03*
%TD*%
%TO.C,SW2*%
X110335000Y-63985000D03*
X110335000Y-68485000D03*
X103835000Y-63985000D03*
X103835000Y-68485000D03*
%TD*%
%TO.C,R19*%
G36*
G01*
X173303750Y-71997500D02*
X173866250Y-71997500D01*
G75*
G02*
X174110000Y-72241250I0J-243750D01*
G01*
X174110000Y-72728750D01*
G75*
G02*
X173866250Y-72972500I-243750J0D01*
G01*
X173303750Y-72972500D01*
G75*
G02*
X173060000Y-72728750I0J243750D01*
G01*
X173060000Y-72241250D01*
G75*
G02*
X173303750Y-71997500I243750J0D01*
G01*
G37*
G36*
G01*
X173303750Y-70422500D02*
X173866250Y-70422500D01*
G75*
G02*
X174110000Y-70666250I0J-243750D01*
G01*
X174110000Y-71153750D01*
G75*
G02*
X173866250Y-71397500I-243750J0D01*
G01*
X173303750Y-71397500D01*
G75*
G02*
X173060000Y-71153750I0J243750D01*
G01*
X173060000Y-70666250D01*
G75*
G02*
X173303750Y-70422500I243750J0D01*
G01*
G37*
%TD*%
%TO.C,R18*%
G36*
G01*
X165785000Y-70953750D02*
X165785000Y-71516250D01*
G75*
G02*
X165541250Y-71760000I-243750J0D01*
G01*
X165053750Y-71760000D01*
G75*
G02*
X164810000Y-71516250I0J243750D01*
G01*
X164810000Y-70953750D01*
G75*
G02*
X165053750Y-70710000I243750J0D01*
G01*
X165541250Y-70710000D01*
G75*
G02*
X165785000Y-70953750I0J-243750D01*
G01*
G37*
G36*
G01*
X167360000Y-70953750D02*
X167360000Y-71516250D01*
G75*
G02*
X167116250Y-71760000I-243750J0D01*
G01*
X166628750Y-71760000D01*
G75*
G02*
X166385000Y-71516250I0J243750D01*
G01*
X166385000Y-70953750D01*
G75*
G02*
X166628750Y-70710000I243750J0D01*
G01*
X167116250Y-70710000D01*
G75*
G02*
X167360000Y-70953750I0J-243750D01*
G01*
G37*
%TD*%
%TO.C,R17*%
G36*
G01*
X169116250Y-88435000D02*
X168553750Y-88435000D01*
G75*
G02*
X168310000Y-88191250I0J243750D01*
G01*
X168310000Y-87703750D01*
G75*
G02*
X168553750Y-87460000I243750J0D01*
G01*
X169116250Y-87460000D01*
G75*
G02*
X169360000Y-87703750I0J-243750D01*
G01*
X169360000Y-88191250D01*
G75*
G02*
X169116250Y-88435000I-243750J0D01*
G01*
G37*
G36*
G01*
X169116250Y-90010000D02*
X168553750Y-90010000D01*
G75*
G02*
X168310000Y-89766250I0J243750D01*
G01*
X168310000Y-89278750D01*
G75*
G02*
X168553750Y-89035000I243750J0D01*
G01*
X169116250Y-89035000D01*
G75*
G02*
X169360000Y-89278750I0J-243750D01*
G01*
X169360000Y-89766250D01*
G75*
G02*
X169116250Y-90010000I-243750J0D01*
G01*
G37*
%TD*%
%TO.C,R14*%
G36*
G01*
X109922500Y-77766250D02*
X109922500Y-77203750D01*
G75*
G02*
X110166250Y-76960000I243750J0D01*
G01*
X110653750Y-76960000D01*
G75*
G02*
X110897500Y-77203750I0J-243750D01*
G01*
X110897500Y-77766250D01*
G75*
G02*
X110653750Y-78010000I-243750J0D01*
G01*
X110166250Y-78010000D01*
G75*
G02*
X109922500Y-77766250I0J243750D01*
G01*
G37*
G36*
G01*
X108347500Y-77766250D02*
X108347500Y-77203750D01*
G75*
G02*
X108591250Y-76960000I243750J0D01*
G01*
X109078750Y-76960000D01*
G75*
G02*
X109322500Y-77203750I0J-243750D01*
G01*
X109322500Y-77766250D01*
G75*
G02*
X109078750Y-78010000I-243750J0D01*
G01*
X108591250Y-78010000D01*
G75*
G02*
X108347500Y-77766250I0J243750D01*
G01*
G37*
%TD*%
%TO.C,R12*%
G36*
G01*
X118866250Y-65185000D02*
X118303750Y-65185000D01*
G75*
G02*
X118060000Y-64941250I0J243750D01*
G01*
X118060000Y-64453750D01*
G75*
G02*
X118303750Y-64210000I243750J0D01*
G01*
X118866250Y-64210000D01*
G75*
G02*
X119110000Y-64453750I0J-243750D01*
G01*
X119110000Y-64941250D01*
G75*
G02*
X118866250Y-65185000I-243750J0D01*
G01*
G37*
G36*
G01*
X118866250Y-66760000D02*
X118303750Y-66760000D01*
G75*
G02*
X118060000Y-66516250I0J243750D01*
G01*
X118060000Y-66028750D01*
G75*
G02*
X118303750Y-65785000I243750J0D01*
G01*
X118866250Y-65785000D01*
G75*
G02*
X119110000Y-66028750I0J-243750D01*
G01*
X119110000Y-66516250D01*
G75*
G02*
X118866250Y-66760000I-243750J0D01*
G01*
G37*
%TD*%
%TO.C,R11*%
G36*
G01*
X120616250Y-65185000D02*
X120053750Y-65185000D01*
G75*
G02*
X119810000Y-64941250I0J243750D01*
G01*
X119810000Y-64453750D01*
G75*
G02*
X120053750Y-64210000I243750J0D01*
G01*
X120616250Y-64210000D01*
G75*
G02*
X120860000Y-64453750I0J-243750D01*
G01*
X120860000Y-64941250D01*
G75*
G02*
X120616250Y-65185000I-243750J0D01*
G01*
G37*
G36*
G01*
X120616250Y-66760000D02*
X120053750Y-66760000D01*
G75*
G02*
X119810000Y-66516250I0J243750D01*
G01*
X119810000Y-66028750D01*
G75*
G02*
X120053750Y-65785000I243750J0D01*
G01*
X120616250Y-65785000D01*
G75*
G02*
X120860000Y-66028750I0J-243750D01*
G01*
X120860000Y-66516250D01*
G75*
G02*
X120616250Y-66760000I-243750J0D01*
G01*
G37*
%TD*%
%TO.C,R10*%
G36*
G01*
X122366250Y-65185000D02*
X121803750Y-65185000D01*
G75*
G02*
X121560000Y-64941250I0J243750D01*
G01*
X121560000Y-64453750D01*
G75*
G02*
X121803750Y-64210000I243750J0D01*
G01*
X122366250Y-64210000D01*
G75*
G02*
X122610000Y-64453750I0J-243750D01*
G01*
X122610000Y-64941250D01*
G75*
G02*
X122366250Y-65185000I-243750J0D01*
G01*
G37*
G36*
G01*
X122366250Y-66760000D02*
X121803750Y-66760000D01*
G75*
G02*
X121560000Y-66516250I0J243750D01*
G01*
X121560000Y-66028750D01*
G75*
G02*
X121803750Y-65785000I243750J0D01*
G01*
X122366250Y-65785000D01*
G75*
G02*
X122610000Y-66028750I0J-243750D01*
G01*
X122610000Y-66516250D01*
G75*
G02*
X122366250Y-66760000I-243750J0D01*
G01*
G37*
%TD*%
%TO.C,R3*%
G36*
G01*
X97635000Y-72016250D02*
X97635000Y-71453750D01*
G75*
G02*
X97878750Y-71210000I243750J0D01*
G01*
X98366250Y-71210000D01*
G75*
G02*
X98610000Y-71453750I0J-243750D01*
G01*
X98610000Y-72016250D01*
G75*
G02*
X98366250Y-72260000I-243750J0D01*
G01*
X97878750Y-72260000D01*
G75*
G02*
X97635000Y-72016250I0J243750D01*
G01*
G37*
G36*
G01*
X96060000Y-72016250D02*
X96060000Y-71453750D01*
G75*
G02*
X96303750Y-71210000I243750J0D01*
G01*
X96791250Y-71210000D01*
G75*
G02*
X97035000Y-71453750I0J-243750D01*
G01*
X97035000Y-72016250D01*
G75*
G02*
X96791250Y-72260000I-243750J0D01*
G01*
X96303750Y-72260000D01*
G75*
G02*
X96060000Y-72016250I0J243750D01*
G01*
G37*
%TD*%
%TO.C,R5*%
G36*
G01*
X103135000Y-83266250D02*
X103135000Y-82703750D01*
G75*
G02*
X103378750Y-82460000I243750J0D01*
G01*
X103866250Y-82460000D01*
G75*
G02*
X104110000Y-82703750I0J-243750D01*
G01*
X104110000Y-83266250D01*
G75*
G02*
X103866250Y-83510000I-243750J0D01*
G01*
X103378750Y-83510000D01*
G75*
G02*
X103135000Y-83266250I0J243750D01*
G01*
G37*
G36*
G01*
X101560000Y-83266250D02*
X101560000Y-82703750D01*
G75*
G02*
X101803750Y-82460000I243750J0D01*
G01*
X102291250Y-82460000D01*
G75*
G02*
X102535000Y-82703750I0J-243750D01*
G01*
X102535000Y-83266250D01*
G75*
G02*
X102291250Y-83510000I-243750J0D01*
G01*
X101803750Y-83510000D01*
G75*
G02*
X101560000Y-83266250I0J243750D01*
G01*
G37*
%TD*%
%TO.C,R4*%
G36*
G01*
X102535000Y-80953750D02*
X102535000Y-81516250D01*
G75*
G02*
X102291250Y-81760000I-243750J0D01*
G01*
X101803750Y-81760000D01*
G75*
G02*
X101560000Y-81516250I0J243750D01*
G01*
X101560000Y-80953750D01*
G75*
G02*
X101803750Y-80710000I243750J0D01*
G01*
X102291250Y-80710000D01*
G75*
G02*
X102535000Y-80953750I0J-243750D01*
G01*
G37*
G36*
G01*
X104110000Y-80953750D02*
X104110000Y-81516250D01*
G75*
G02*
X103866250Y-81760000I-243750J0D01*
G01*
X103378750Y-81760000D01*
G75*
G02*
X103135000Y-81516250I0J243750D01*
G01*
X103135000Y-80953750D01*
G75*
G02*
X103378750Y-80710000I243750J0D01*
G01*
X103866250Y-80710000D01*
G75*
G02*
X104110000Y-80953750I0J-243750D01*
G01*
G37*
%TD*%
%TO.C,R2*%
G36*
G01*
X103135000Y-85016250D02*
X103135000Y-84453750D01*
G75*
G02*
X103378750Y-84210000I243750J0D01*
G01*
X103866250Y-84210000D01*
G75*
G02*
X104110000Y-84453750I0J-243750D01*
G01*
X104110000Y-85016250D01*
G75*
G02*
X103866250Y-85260000I-243750J0D01*
G01*
X103378750Y-85260000D01*
G75*
G02*
X103135000Y-85016250I0J243750D01*
G01*
G37*
G36*
G01*
X101560000Y-85016250D02*
X101560000Y-84453750D01*
G75*
G02*
X101803750Y-84210000I243750J0D01*
G01*
X102291250Y-84210000D01*
G75*
G02*
X102535000Y-84453750I0J-243750D01*
G01*
X102535000Y-85016250D01*
G75*
G02*
X102291250Y-85260000I-243750J0D01*
G01*
X101803750Y-85260000D01*
G75*
G02*
X101560000Y-85016250I0J243750D01*
G01*
G37*
%TD*%
%TO.C,R1*%
G36*
G01*
X102535000Y-79203750D02*
X102535000Y-79766250D01*
G75*
G02*
X102291250Y-80010000I-243750J0D01*
G01*
X101803750Y-80010000D01*
G75*
G02*
X101560000Y-79766250I0J243750D01*
G01*
X101560000Y-79203750D01*
G75*
G02*
X101803750Y-78960000I243750J0D01*
G01*
X102291250Y-78960000D01*
G75*
G02*
X102535000Y-79203750I0J-243750D01*
G01*
G37*
G36*
G01*
X104110000Y-79203750D02*
X104110000Y-79766250D01*
G75*
G02*
X103866250Y-80010000I-243750J0D01*
G01*
X103378750Y-80010000D01*
G75*
G02*
X103135000Y-79766250I0J243750D01*
G01*
X103135000Y-79203750D01*
G75*
G02*
X103378750Y-78960000I243750J0D01*
G01*
X103866250Y-78960000D01*
G75*
G02*
X104110000Y-79203750I0J-243750D01*
G01*
G37*
%TD*%
D10*
%TO.C,JP12*%
X176125000Y-66735000D03*
X173585000Y-66735000D03*
D11*
X171045000Y-66735000D03*
%TD*%
D10*
%TO.C,JP10*%
X100085000Y-93775000D03*
D11*
X100085000Y-91235000D03*
%TD*%
D10*
%TO.C,JP9*%
X147625000Y-73735000D03*
D11*
X145085000Y-73735000D03*
%TD*%
D10*
%TO.C,JP8*%
X147625000Y-77485000D03*
D11*
X145085000Y-77485000D03*
%TD*%
D10*
%TO.C,JP7*%
X147625000Y-82235000D03*
D11*
X145085000Y-82235000D03*
%TD*%
D10*
%TO.C,JP6*%
X147625000Y-85985000D03*
D11*
X145085000Y-85985000D03*
%TD*%
D10*
%TO.C,JP1*%
X93085000Y-93775000D03*
D11*
X93085000Y-91235000D03*
%TD*%
D10*
%TO.C,J3*%
X145045000Y-68985000D03*
X147585000Y-68985000D03*
X150125000Y-68985000D03*
D11*
X152665000Y-68985000D03*
%TD*%
D10*
%TO.C,J2*%
X111085000Y-88695000D03*
X111085000Y-91235000D03*
X111085000Y-93775000D03*
D11*
X111085000Y-96315000D03*
%TD*%
%TO.C,D9*%
G36*
G01*
X162985000Y-71472500D02*
X162985000Y-70997500D01*
G75*
G02*
X163222500Y-70760000I237500J0D01*
G01*
X164072500Y-70760000D01*
G75*
G02*
X164310000Y-70997500I0J-237500D01*
G01*
X164310000Y-71472500D01*
G75*
G02*
X164072500Y-71710000I-237500J0D01*
G01*
X163222500Y-71710000D01*
G75*
G02*
X162985000Y-71472500I0J237500D01*
G01*
G37*
G36*
G01*
X161360000Y-71472500D02*
X161360000Y-70997500D01*
G75*
G02*
X161597500Y-70760000I237500J0D01*
G01*
X162447500Y-70760000D01*
G75*
G02*
X162685000Y-70997500I0J-237500D01*
G01*
X162685000Y-71472500D01*
G75*
G02*
X162447500Y-71710000I-237500J0D01*
G01*
X161597500Y-71710000D01*
G75*
G02*
X161360000Y-71472500I0J237500D01*
G01*
G37*
%TD*%
%TO.C,D8*%
G36*
G01*
X118347500Y-62135000D02*
X118822500Y-62135000D01*
G75*
G02*
X119060000Y-62372500I0J-237500D01*
G01*
X119060000Y-63222500D01*
G75*
G02*
X118822500Y-63460000I-237500J0D01*
G01*
X118347500Y-63460000D01*
G75*
G02*
X118110000Y-63222500I0J237500D01*
G01*
X118110000Y-62372500D01*
G75*
G02*
X118347500Y-62135000I237500J0D01*
G01*
G37*
G36*
G01*
X118347500Y-60510000D02*
X118822500Y-60510000D01*
G75*
G02*
X119060000Y-60747500I0J-237500D01*
G01*
X119060000Y-61597500D01*
G75*
G02*
X118822500Y-61835000I-237500J0D01*
G01*
X118347500Y-61835000D01*
G75*
G02*
X118110000Y-61597500I0J237500D01*
G01*
X118110000Y-60747500D01*
G75*
G02*
X118347500Y-60510000I237500J0D01*
G01*
G37*
%TD*%
%TO.C,D7*%
G36*
G01*
X120097500Y-62135000D02*
X120572500Y-62135000D01*
G75*
G02*
X120810000Y-62372500I0J-237500D01*
G01*
X120810000Y-63222500D01*
G75*
G02*
X120572500Y-63460000I-237500J0D01*
G01*
X120097500Y-63460000D01*
G75*
G02*
X119860000Y-63222500I0J237500D01*
G01*
X119860000Y-62372500D01*
G75*
G02*
X120097500Y-62135000I237500J0D01*
G01*
G37*
G36*
G01*
X120097500Y-60510000D02*
X120572500Y-60510000D01*
G75*
G02*
X120810000Y-60747500I0J-237500D01*
G01*
X120810000Y-61597500D01*
G75*
G02*
X120572500Y-61835000I-237500J0D01*
G01*
X120097500Y-61835000D01*
G75*
G02*
X119860000Y-61597500I0J237500D01*
G01*
X119860000Y-60747500D01*
G75*
G02*
X120097500Y-60510000I237500J0D01*
G01*
G37*
%TD*%
%TO.C,D6*%
G36*
G01*
X121847500Y-62135000D02*
X122322500Y-62135000D01*
G75*
G02*
X122560000Y-62372500I0J-237500D01*
G01*
X122560000Y-63222500D01*
G75*
G02*
X122322500Y-63460000I-237500J0D01*
G01*
X121847500Y-63460000D01*
G75*
G02*
X121610000Y-63222500I0J237500D01*
G01*
X121610000Y-62372500D01*
G75*
G02*
X121847500Y-62135000I237500J0D01*
G01*
G37*
G36*
G01*
X121847500Y-60510000D02*
X122322500Y-60510000D01*
G75*
G02*
X122560000Y-60747500I0J-237500D01*
G01*
X122560000Y-61597500D01*
G75*
G02*
X122322500Y-61835000I-237500J0D01*
G01*
X121847500Y-61835000D01*
G75*
G02*
X121610000Y-61597500I0J237500D01*
G01*
X121610000Y-60747500D01*
G75*
G02*
X121847500Y-60510000I237500J0D01*
G01*
G37*
%TD*%
%TO.C,D1*%
G36*
G01*
X94235000Y-71972500D02*
X94235000Y-71497500D01*
G75*
G02*
X94472500Y-71260000I237500J0D01*
G01*
X95322500Y-71260000D01*
G75*
G02*
X95560000Y-71497500I0J-237500D01*
G01*
X95560000Y-71972500D01*
G75*
G02*
X95322500Y-72210000I-237500J0D01*
G01*
X94472500Y-72210000D01*
G75*
G02*
X94235000Y-71972500I0J237500D01*
G01*
G37*
G36*
G01*
X92610000Y-71972500D02*
X92610000Y-71497500D01*
G75*
G02*
X92847500Y-71260000I237500J0D01*
G01*
X93697500Y-71260000D01*
G75*
G02*
X93935000Y-71497500I0J-237500D01*
G01*
X93935000Y-71972500D01*
G75*
G02*
X93697500Y-72210000I-237500J0D01*
G01*
X92847500Y-72210000D01*
G75*
G02*
X92610000Y-71972500I0J237500D01*
G01*
G37*
%TD*%
%TO.C,C18*%
G36*
G01*
X175285000Y-88453750D02*
X175285000Y-89016250D01*
G75*
G02*
X175041250Y-89260000I-243750J0D01*
G01*
X174553750Y-89260000D01*
G75*
G02*
X174310000Y-89016250I0J243750D01*
G01*
X174310000Y-88453750D01*
G75*
G02*
X174553750Y-88210000I243750J0D01*
G01*
X175041250Y-88210000D01*
G75*
G02*
X175285000Y-88453750I0J-243750D01*
G01*
G37*
G36*
G01*
X176860000Y-88453750D02*
X176860000Y-89016250D01*
G75*
G02*
X176616250Y-89260000I-243750J0D01*
G01*
X176128750Y-89260000D01*
G75*
G02*
X175885000Y-89016250I0J243750D01*
G01*
X175885000Y-88453750D01*
G75*
G02*
X176128750Y-88210000I243750J0D01*
G01*
X176616250Y-88210000D01*
G75*
G02*
X176860000Y-88453750I0J-243750D01*
G01*
G37*
%TD*%
%TO.C,C17*%
G36*
G01*
X175285000Y-86953750D02*
X175285000Y-87516250D01*
G75*
G02*
X175041250Y-87760000I-243750J0D01*
G01*
X174553750Y-87760000D01*
G75*
G02*
X174310000Y-87516250I0J243750D01*
G01*
X174310000Y-86953750D01*
G75*
G02*
X174553750Y-86710000I243750J0D01*
G01*
X175041250Y-86710000D01*
G75*
G02*
X175285000Y-86953750I0J-243750D01*
G01*
G37*
G36*
G01*
X176860000Y-86953750D02*
X176860000Y-87516250D01*
G75*
G02*
X176616250Y-87760000I-243750J0D01*
G01*
X176128750Y-87760000D01*
G75*
G02*
X175885000Y-87516250I0J243750D01*
G01*
X175885000Y-86953750D01*
G75*
G02*
X176128750Y-86710000I243750J0D01*
G01*
X176616250Y-86710000D01*
G75*
G02*
X176860000Y-86953750I0J-243750D01*
G01*
G37*
%TD*%
%TO.C,C15*%
G36*
G01*
X170885000Y-75016250D02*
X170885000Y-74453750D01*
G75*
G02*
X171128750Y-74210000I243750J0D01*
G01*
X171616250Y-74210000D01*
G75*
G02*
X171860000Y-74453750I0J-243750D01*
G01*
X171860000Y-75016250D01*
G75*
G02*
X171616250Y-75260000I-243750J0D01*
G01*
X171128750Y-75260000D01*
G75*
G02*
X170885000Y-75016250I0J243750D01*
G01*
G37*
G36*
G01*
X169310000Y-75016250D02*
X169310000Y-74453750D01*
G75*
G02*
X169553750Y-74210000I243750J0D01*
G01*
X170041250Y-74210000D01*
G75*
G02*
X170285000Y-74453750I0J-243750D01*
G01*
X170285000Y-75016250D01*
G75*
G02*
X170041250Y-75260000I-243750J0D01*
G01*
X169553750Y-75260000D01*
G75*
G02*
X169310000Y-75016250I0J243750D01*
G01*
G37*
%TD*%
%TO.C,C14*%
G36*
G01*
X167116250Y-81685000D02*
X166553750Y-81685000D01*
G75*
G02*
X166310000Y-81441250I0J243750D01*
G01*
X166310000Y-80953750D01*
G75*
G02*
X166553750Y-80710000I243750J0D01*
G01*
X167116250Y-80710000D01*
G75*
G02*
X167360000Y-80953750I0J-243750D01*
G01*
X167360000Y-81441250D01*
G75*
G02*
X167116250Y-81685000I-243750J0D01*
G01*
G37*
G36*
G01*
X167116250Y-83260000D02*
X166553750Y-83260000D01*
G75*
G02*
X166310000Y-83016250I0J243750D01*
G01*
X166310000Y-82528750D01*
G75*
G02*
X166553750Y-82285000I243750J0D01*
G01*
X167116250Y-82285000D01*
G75*
G02*
X167360000Y-82528750I0J-243750D01*
G01*
X167360000Y-83016250D01*
G75*
G02*
X167116250Y-83260000I-243750J0D01*
G01*
G37*
%TD*%
%TO.C,C13*%
G36*
G01*
X162866250Y-78435000D02*
X162303750Y-78435000D01*
G75*
G02*
X162060000Y-78191250I0J243750D01*
G01*
X162060000Y-77703750D01*
G75*
G02*
X162303750Y-77460000I243750J0D01*
G01*
X162866250Y-77460000D01*
G75*
G02*
X163110000Y-77703750I0J-243750D01*
G01*
X163110000Y-78191250D01*
G75*
G02*
X162866250Y-78435000I-243750J0D01*
G01*
G37*
G36*
G01*
X162866250Y-80010000D02*
X162303750Y-80010000D01*
G75*
G02*
X162060000Y-79766250I0J243750D01*
G01*
X162060000Y-79278750D01*
G75*
G02*
X162303750Y-79035000I243750J0D01*
G01*
X162866250Y-79035000D01*
G75*
G02*
X163110000Y-79278750I0J-243750D01*
G01*
X163110000Y-79766250D01*
G75*
G02*
X162866250Y-80010000I-243750J0D01*
G01*
G37*
%TD*%
%TO.C,C12*%
G36*
G01*
X162303750Y-75535000D02*
X162866250Y-75535000D01*
G75*
G02*
X163110000Y-75778750I0J-243750D01*
G01*
X163110000Y-76266250D01*
G75*
G02*
X162866250Y-76510000I-243750J0D01*
G01*
X162303750Y-76510000D01*
G75*
G02*
X162060000Y-76266250I0J243750D01*
G01*
X162060000Y-75778750D01*
G75*
G02*
X162303750Y-75535000I243750J0D01*
G01*
G37*
G36*
G01*
X162303750Y-73960000D02*
X162866250Y-73960000D01*
G75*
G02*
X163110000Y-74203750I0J-243750D01*
G01*
X163110000Y-74691250D01*
G75*
G02*
X162866250Y-74935000I-243750J0D01*
G01*
X162303750Y-74935000D01*
G75*
G02*
X162060000Y-74691250I0J243750D01*
G01*
X162060000Y-74203750D01*
G75*
G02*
X162303750Y-73960000I243750J0D01*
G01*
G37*
%TD*%
%TO.C,C11*%
G36*
G01*
X167053750Y-89035000D02*
X167616250Y-89035000D01*
G75*
G02*
X167860000Y-89278750I0J-243750D01*
G01*
X167860000Y-89766250D01*
G75*
G02*
X167616250Y-90010000I-243750J0D01*
G01*
X167053750Y-90010000D01*
G75*
G02*
X166810000Y-89766250I0J243750D01*
G01*
X166810000Y-89278750D01*
G75*
G02*
X167053750Y-89035000I243750J0D01*
G01*
G37*
G36*
G01*
X167053750Y-87460000D02*
X167616250Y-87460000D01*
G75*
G02*
X167860000Y-87703750I0J-243750D01*
G01*
X167860000Y-88191250D01*
G75*
G02*
X167616250Y-88435000I-243750J0D01*
G01*
X167053750Y-88435000D01*
G75*
G02*
X166810000Y-88191250I0J243750D01*
G01*
X166810000Y-87703750D01*
G75*
G02*
X167053750Y-87460000I243750J0D01*
G01*
G37*
%TD*%
%TO.C,C2*%
G36*
G01*
X104385000Y-99854250D02*
X104385000Y-99291750D01*
G75*
G02*
X104628750Y-99048000I243750J0D01*
G01*
X105116250Y-99048000D01*
G75*
G02*
X105360000Y-99291750I0J-243750D01*
G01*
X105360000Y-99854250D01*
G75*
G02*
X105116250Y-100098000I-243750J0D01*
G01*
X104628750Y-100098000D01*
G75*
G02*
X104385000Y-99854250I0J243750D01*
G01*
G37*
G36*
G01*
X102810000Y-99854250D02*
X102810000Y-99291750D01*
G75*
G02*
X103053750Y-99048000I243750J0D01*
G01*
X103541250Y-99048000D01*
G75*
G02*
X103785000Y-99291750I0J-243750D01*
G01*
X103785000Y-99854250D01*
G75*
G02*
X103541250Y-100098000I-243750J0D01*
G01*
X103053750Y-100098000D01*
G75*
G02*
X102810000Y-99854250I0J243750D01*
G01*
G37*
%TD*%
%TO.C,C1*%
G36*
G01*
X100385000Y-99854250D02*
X100385000Y-99291750D01*
G75*
G02*
X100628750Y-99048000I243750J0D01*
G01*
X101116250Y-99048000D01*
G75*
G02*
X101360000Y-99291750I0J-243750D01*
G01*
X101360000Y-99854250D01*
G75*
G02*
X101116250Y-100098000I-243750J0D01*
G01*
X100628750Y-100098000D01*
G75*
G02*
X100385000Y-99854250I0J243750D01*
G01*
G37*
G36*
G01*
X98810000Y-99854250D02*
X98810000Y-99291750D01*
G75*
G02*
X99053750Y-99048000I243750J0D01*
G01*
X99541250Y-99048000D01*
G75*
G02*
X99785000Y-99291750I0J-243750D01*
G01*
X99785000Y-99854250D01*
G75*
G02*
X99541250Y-100098000I-243750J0D01*
G01*
X99053750Y-100098000D01*
G75*
G02*
X98810000Y-99854250I0J243750D01*
G01*
G37*
%TD*%
D22*
%TO.C,H4*%
X186266891Y-138803109D03*
X184835000Y-138210000D03*
X183403109Y-138803109D03*
X182810000Y-140235000D03*
X183403109Y-141666891D03*
X184835000Y-142260000D03*
X186266891Y-141666891D03*
X186860000Y-140235000D03*
D23*
X184835000Y-140235000D03*
%TD*%
D22*
%TO.C,H3*%
X186266891Y-48803109D03*
X184835000Y-48210000D03*
X183403109Y-48803109D03*
X182810000Y-50235000D03*
X183403109Y-51666891D03*
X184835000Y-52260000D03*
X186266891Y-51666891D03*
X186860000Y-50235000D03*
D23*
X184835000Y-50235000D03*
%TD*%
D22*
%TO.C,H2*%
X96266891Y-138803109D03*
X94835000Y-138210000D03*
X93403109Y-138803109D03*
X92810000Y-140235000D03*
X93403109Y-141666891D03*
X94835000Y-142260000D03*
X96266891Y-141666891D03*
X96860000Y-140235000D03*
D23*
X94835000Y-140235000D03*
%TD*%
D22*
%TO.C,H1*%
X96266891Y-48803109D03*
X94835000Y-48210000D03*
X93403109Y-48803109D03*
X92810000Y-50235000D03*
X93403109Y-51666891D03*
X94835000Y-52260000D03*
X96266891Y-51666891D03*
X96860000Y-50235000D03*
D23*
X94835000Y-50235000D03*
%TD*%
M02*
